<svg id="Сгруппировать_3072" data-name="Сгруппировать 3072" xmlns="http://www.w3.org/2000/svg" width="81.071" height="81.071" viewBox="0 0 81.071 81.071">
  <path id="Fill-2" d="M0,81.071H81.071V0H0Z" transform="translate(0)" fill="#c80000" fill-rule="evenodd"/>
  <path id="Объединение_74" data-name="Объединение 74" d="M36.378,9.1A9.3,9.3,0,0,1,54.442,6.211l.012.037a.22.22,0,0,1,.009.067.266.266,0,0,1-.265.264H49.879a.27.27,0,0,1-.221-.115l-.027-.049a4.469,4.469,0,0,0-4-2.471A4.877,4.877,0,0,0,40.9,9.079c0,2.662,1.817,5.23,4.757,5.23A4.5,4.5,0,0,0,49.616,11.9a.265.265,0,0,1,.222-.118h4.31a.262.262,0,0,1,.25.349c0,.007,0,.014-.007.022a9.055,9.055,0,0,1-8.691,6.1A9.174,9.174,0,0,1,36.378,9.1ZM17.2,9.1A9.1,9.1,0,0,1,26.47,0a9.1,9.1,0,0,1,8.789,6.211c0,.012.008.024.012.037a.264.264,0,0,1-.256.332H30.7a.273.273,0,0,1-.222-.115c-.008-.016-.019-.034-.026-.049a4.467,4.467,0,0,0-4-2.471,4.877,4.877,0,0,0-4.734,5.134c0,2.662,1.817,5.23,4.756,5.23A4.5,4.5,0,0,0,30.433,11.9a.267.267,0,0,1,.222-.118h4.31a.265.265,0,0,1,.251.349l-.008.022a9.056,9.056,0,0,1-8.691,6.1A9.174,9.174,0,0,1,17.2,9.1Zm50,8.817a.266.266,0,0,1-.247-.16l0-.006L66.2,15.54a.267.267,0,0,0-.247-.164H60.191a.27.27,0,0,0-.247.164l-.813,2.218h0a.266.266,0,0,1-.244.161H54.614a.266.266,0,0,1-.268-.264.241.241,0,0,1,.019-.1l0-.012L61.248.506l.008-.019A.268.268,0,0,1,61.5.332h3.2a.264.264,0,0,1,.237.149l.014.034,6.8,17.025.014.036a.252.252,0,0,1,.013.08.265.265,0,0,1-.265.264ZM62.946,6.162,61.308,11.6l-.007.022a.107.107,0,0,0,0,.031.156.156,0,0,0,.158.156H64.74a.155.155,0,0,0,.157-.156.223.223,0,0,0,0-.029l-.011-.031L63.257,6.168a.164.164,0,0,0-.159-.122A.153.153,0,0,0,62.946,6.162ZM12.854,17.92a.267.267,0,0,1-.247-.16l0-.006-.748-2.213a.267.267,0,0,0-.247-.164H5.845a.27.27,0,0,0-.247.164l-.813,2.218h0a.264.264,0,0,1-.243.161H.268A.266.266,0,0,1,0,17.656a.241.241,0,0,1,.019-.1l0-.012L6.9.506,6.91.487A.268.268,0,0,1,7.153.332h3.2a.264.264,0,0,1,.237.149l.014.034,6.8,17.025.014.036a.222.222,0,0,1,.014.08.264.264,0,0,1-.264.264ZM8.6,6.162,6.962,11.6l-.007.022a.107.107,0,0,0,0,.031.156.156,0,0,0,.158.156h3.283a.156.156,0,0,0,.158-.156.223.223,0,0,0,0-.029l-.011-.031L8.911,6.168a.163.163,0,0,0-.158-.122A.154.154,0,0,0,8.6,6.162Z" transform="translate(5.37 32.928)" fill="#fff"/>
</svg>
