<svg xmlns="http://www.w3.org/2000/svg" width="264.607" height="81" viewBox="0 0 264.607 81">
  <g id="Сгруппировать_3074" data-name="Сгруппировать 3074" transform="translate(-0.4 0.062)">
    <circle id="Эллипс_217" data-name="Эллипс 217" cx="40.5" cy="40.5" r="40.5" transform="translate(0.4 -0.062)" fill="#0261fd"/>
    <g id="Сгруппировать_3073" data-name="Сгруппировать 3073" transform="translate(23.754 10.243)">
      <path id="Контур_2111" data-name="Контур 2111" d="M97.476-29.433H94.6v10.45h-4.22V-43.367H94.6v10.249h2.328l7.168-10.249h5.192l-8.374,11.673,9.111,12.711h-5.091Z" transform="translate(-75.444 79.759)" fill="#fff"/>
      <path id="Контур_2112" data-name="Контур 2112" d="M66.642-18.983h-4.22V-39.951H51.686v20.967h-4.22V-43.367H66.642Z" transform="translate(-47.466 43.367)" fill="#fff"/>
      <path id="Контур_2113" data-name="Контур 2113" d="M23.768-26.678l-4.22,6.368V-29.8H8.645v10.819H4.408V-43.367H8.645v10.149h10.9V-43.367h4.22Z" transform="translate(2.869 61.716)" fill="#fff"/>
    </g>
    <path id="Контур_2114" data-name="Контур 2114" d="M14.407-12.908H11.856V-25.039H5.368v12.131H2.817V-27.016h11.59Zm11.171-3.285H19.87l-1.194,3.285H16.013L21.58-27.016h2.3l5.578,14.108H26.783Zm-4.99-1.977H24.86l-2.136-5.852Zm22.134-8.846v14.108H40.171V-25.039H35.657l-.263,5.455a15.021,15.021,0,0,1-.653,3.968,4.018,4.018,0,0,1-1.453,2.059,4.457,4.457,0,0,1-2.551.649h-.648v-1.977l.4-.029a2.033,2.033,0,0,0,1.361-.59,3.4,3.4,0,0,0,.729-1.553,18.055,18.055,0,0,0,.349-3.062l.283-6.9ZM54.066-16.193H48.357l-1.194,3.285H44.5l5.567-14.108h2.3l5.578,14.108H55.27Zm-4.99-1.977h4.272l-2.136-5.852Zm19.806-6.87h-4.6v12.131H61.745V-25.039H57.19v-1.977H68.881Zm8.8,8.846H71.975L70.78-12.908H68.118l5.567-14.108h2.3l5.578,14.108H78.888Zm-4.99-1.977h4.272l-2.136-5.852ZM14.448,7.98H11.9V1.721H5.307V7.98H2.746V-6.128H5.307V-.256H11.9V-6.128h2.551ZM25.741,4.7H20.031L18.837,7.98H16.175L21.742-6.128h2.3L29.617,7.98H26.945ZM20.75,2.719h4.272L22.886-3.134ZM42.884-6.128V7.98H40.333V-4.151H35.819L35.556,1.3A15.021,15.021,0,0,1,34.9,5.272,4.018,4.018,0,0,1,33.45,7.331,4.457,4.457,0,0,1,30.9,7.98h-.648V6l.4-.029a2.033,2.033,0,0,0,1.361-.59,3.4,3.4,0,0,0,.729-1.553A18.055,18.055,0,0,0,33.1.77l.283-6.9ZM57.558,1.294a8.337,8.337,0,0,1-.749,3.638,5.5,5.5,0,0,1-2.141,2.4,6.523,6.523,0,0,1-6.4,0A5.585,5.585,0,0,1,46.1,4.947a8.081,8.081,0,0,1-.774-3.575V.577a8.267,8.267,0,0,1,.764-3.643A5.573,5.573,0,0,1,48.25-5.483a6.069,6.069,0,0,1,3.194-.838,6.124,6.124,0,0,1,3.194.828,5.506,5.506,0,0,1,2.151,2.384A8.251,8.251,0,0,1,57.558.51ZM55,.558a5.965,5.965,0,0,0-.926-3.595,3.076,3.076,0,0,0-2.627-1.25,3.066,3.066,0,0,0-2.6,1.245A5.854,5.854,0,0,0,47.891.48v.814a5.921,5.921,0,0,0,.946,3.595,3.092,3.092,0,0,0,2.627,1.269,3.058,3.058,0,0,0,2.617-1.24A6.045,6.045,0,0,0,55,1.294Zm14.37-4.709h-6.8V7.98H60.014V-6.128h9.353ZM82.411,1.294a8.337,8.337,0,0,1-.749,3.638,5.5,5.5,0,0,1-2.141,2.4,6.523,6.523,0,0,1-6.4,0,5.585,5.585,0,0,1-2.166-2.388,8.081,8.081,0,0,1-.774-3.575V.577a8.267,8.267,0,0,1,.764-3.643A5.573,5.573,0,0,1,73.1-5.483,6.069,6.069,0,0,1,76.3-6.321a6.124,6.124,0,0,1,3.194.828,5.506,5.506,0,0,1,2.151,2.384A8.251,8.251,0,0,1,82.411.51ZM79.85.558a5.965,5.965,0,0,0-.926-3.595A3.076,3.076,0,0,0,76.3-4.287a3.066,3.066,0,0,0-2.6,1.245A5.854,5.854,0,0,0,72.744.48v.814a5.921,5.921,0,0,0,.946,3.595,3.092,3.092,0,0,0,2.627,1.269,3.058,3.058,0,0,0,2.617-1.24,6.045,6.045,0,0,0,.916-3.624ZM84.8,7.98V-6.128h5.051a6.373,6.373,0,0,1,3.806.959A3.319,3.319,0,0,1,94.959-2.31a2.954,2.954,0,0,1-.547,1.744,3.5,3.5,0,0,1-1.6,1.2A3.265,3.265,0,0,1,94.661,1.8a3.3,3.3,0,0,1,.653,2.059,3.682,3.682,0,0,1-1.331,3.052A5.969,5.969,0,0,1,90.171,7.98Zm2.561-6.366V6H90.2a2.843,2.843,0,0,0,1.883-.569,1.953,1.953,0,0,0,.678-1.582q0-2.19-2.348-2.238Zm0-1.8h2.51a3,3,0,0,0,1.868-.518,1.744,1.744,0,0,0,.673-1.468,1.763,1.763,0,0,0-.623-1.512,3.251,3.251,0,0,0-1.938-.465h-2.49ZM100.34-.731h3.017a6.932,6.932,0,0,1,2.824.533,4.052,4.052,0,0,1,1.832,1.512,4.108,4.108,0,0,1,.628,2.267,3.979,3.979,0,0,1-1.4,3.178,5.754,5.754,0,0,1-3.821,1.221H97.779V-6.128h2.561ZM112.649,7.98H110.1V-6.128h2.551ZM100.34,1.246V6h3.006a2.862,2.862,0,0,0,2.019-.669,2.3,2.3,0,0,0,.724-1.777,2.107,2.107,0,0,0-.709-1.676,2.967,2.967,0,0,0-1.964-.636Zm20.342-2.277,3.1-5.1h2.956l-4.454,7,4.555,7.112h-2.986l-3.168-5.174L117.5,7.98h-2.976L119.094.868l-4.464-7h2.956ZM7.109,22.822H5.368v6.046H2.817V14.76H5.368v5.93H6.775l4.332-5.93h3.138L9.184,21.514l5.507,7.354H11.613Zm20.282-.639a8.337,8.337,0,0,1-.749,3.638,5.5,5.5,0,0,1-2.141,2.4,6.088,6.088,0,0,1-3.2.838,6.1,6.1,0,0,1-3.194-.838,5.585,5.585,0,0,1-2.166-2.388,8.081,8.081,0,0,1-.774-3.575v-.795a8.267,8.267,0,0,1,.764-3.643A5.573,5.573,0,0,1,18.083,15.4a6.069,6.069,0,0,1,3.194-.838,6.124,6.124,0,0,1,3.194.828,5.506,5.506,0,0,1,2.151,2.384,8.251,8.251,0,0,1,.769,3.619Zm-2.561-.736a5.965,5.965,0,0,0-.926-3.595,3.076,3.076,0,0,0-2.627-1.25,3.066,3.066,0,0,0-2.6,1.245,5.854,5.854,0,0,0-.957,3.522v.814a5.921,5.921,0,0,0,.946,3.595A3.092,3.092,0,0,0,21.3,27.046a3.058,3.058,0,0,0,2.617-1.24,6.045,6.045,0,0,0,.916-3.624Zm16.648,7.422H38.926V22.609h-6.59v6.259H29.776V14.76h2.561v5.872h6.59V14.76h2.551Zm14.107-4.593A5.012,5.012,0,0,1,53.843,27.8,6.108,6.108,0,0,1,49.8,29.062a5.944,5.944,0,0,1-3.1-.8,5.325,5.325,0,0,1-2.07-2.272,7.9,7.9,0,0,1-.759-3.42V21.252a7.957,7.957,0,0,1,.739-3.517,5.407,5.407,0,0,1,2.121-2.345,6.117,6.117,0,0,1,3.194-.824,5.859,5.859,0,0,1,3.928,1.264,5.194,5.194,0,0,1,1.731,3.58H53.033a3.411,3.411,0,0,0-.926-2.195,3.15,3.15,0,0,0-2.181-.673,3.04,3.04,0,0,0-2.566,1.169,5.653,5.653,0,0,0-.916,3.428v1.251a5.988,5.988,0,0,0,.855,3.491,2.88,2.88,0,0,0,2.505,1.2,3.412,3.412,0,0,0,2.267-.649,3.319,3.319,0,0,0,.962-2.161Zm7.426-2.141,2.956-7.374H68.81l-5.132,11.7-.466.882a3.512,3.512,0,0,1-3.28,1.725l-1.053-.059.02-1.957a6.369,6.369,0,0,0,.86.039,1.58,1.58,0,0,0,1.539-.883l.526-1.181L56.785,14.76h2.794ZM81.642,14.76V28.868H79.091V16.737H74.576l-.263,5.455a15.02,15.02,0,0,1-.653,3.968,4.018,4.018,0,0,1-1.453,2.059,4.457,4.457,0,0,1-2.551.649h-.648V26.891l.4-.029a2.033,2.033,0,0,0,1.361-.59A3.4,3.4,0,0,0,71.5,24.72a18.056,18.056,0,0,0,.349-3.062l.283-6.9Zm5.432,5.4H90.09a6.932,6.932,0,0,1,2.824.533A4.052,4.052,0,0,1,94.747,22.2a4.108,4.108,0,0,1,.628,2.267,3.979,3.979,0,0,1-1.4,3.178,5.754,5.754,0,0,1-3.821,1.221H84.513V14.76h2.561Zm0,1.977v4.757H90.08a2.862,2.862,0,0,0,2.019-.669,2.3,2.3,0,0,0,.724-1.777,2.106,2.106,0,0,0-.709-1.676,2.967,2.967,0,0,0-1.964-.636Zm20.008-5.4h-4.6V28.868H99.946V16.737H95.391V14.76h11.692Zm8.8,8.846h-5.709l-1.194,3.285h-2.662l5.567-14.108h2.3l5.578,14.108h-2.672Zm-4.99-1.977h4.272l-2.136-5.852Zm22.073,5.261h-2.551V22.609h-6.59v6.259h-2.561V14.76h2.561v5.872h6.59V14.76h2.551Zm13.216-12.131h-4.6V28.868h-2.541V16.737h-4.555V14.76h11.692Zm13.247,5.445a8.337,8.337,0,0,1-.749,3.638,5.494,5.494,0,0,1-2.141,2.4,6.523,6.523,0,0,1-6.4,0,5.585,5.585,0,0,1-2.166-2.388,8.08,8.08,0,0,1-.774-3.575v-.795a8.267,8.267,0,0,1,.764-3.643,5.573,5.573,0,0,1,2.156-2.417,6.537,6.537,0,0,1,6.387-.01,5.506,5.506,0,0,1,2.151,2.384,8.251,8.251,0,0,1,.769,3.619Zm-2.561-.736a5.965,5.965,0,0,0-.926-3.595,3.357,3.357,0,0,0-5.223,0,5.854,5.854,0,0,0-.957,3.522v.814a5.921,5.921,0,0,0,.946,3.595,3.092,3.092,0,0,0,2.627,1.269,3.058,3.058,0,0,0,2.617-1.24,6.045,6.045,0,0,0,.916-3.624Zm4.946,7.422V14.76h5.051a6.373,6.373,0,0,1,3.806.959,3.319,3.319,0,0,1,1.306,2.858,2.954,2.954,0,0,1-.547,1.744,3.5,3.5,0,0,1-1.6,1.2,3.265,3.265,0,0,1,1.847,1.168,3.3,3.3,0,0,1,.653,2.059A3.682,3.682,0,0,1,171,27.8a5.969,5.969,0,0,1-3.811,1.066Zm2.561-6.366v4.389h2.844a2.842,2.842,0,0,0,1.883-.569,1.953,1.953,0,0,0,.678-1.582q0-2.19-2.348-2.238Zm0-1.8h2.51a3,3,0,0,0,1.868-.518,1.744,1.744,0,0,0,.673-1.468A1.764,1.764,0,0,0,168.8,17.2a3.251,3.251,0,0,0-1.938-.465h-2.49Z" transform="translate(92.674 39.549)" fill="#0261fd"/>
  </g>
</svg>
