<svg id="checked" xmlns="http://www.w3.org/2000/svg" width="25.582" height="25.582" viewBox="0 0 25.582 25.582">
  <g id="Сгруппировать_2958" data-name="Сгруппировать 2958" transform="translate(6.074 3.214)">
    <g id="Сгруппировать_2957" data-name="Сгруппировать 2957">
      <path id="Контур_1967" data-name="Контур 1967" d="M140.344,64.611a.964.964,0,0,0-1.363,0L127.414,76.145l-4.173-4.532a.964.964,0,0,0-1.419,1.306l4.853,5.27a.963.963,0,0,0,.689.311h.021a.965.965,0,0,0,.681-.281l12.277-12.245A.964.964,0,0,0,140.344,64.611Z" transform="translate(-121.568 -64.327)" fill="#fff"/>
    </g>
  </g>
  <g id="Сгруппировать_2960" data-name="Сгруппировать 2960">
    <g id="Сгруппировать_2959" data-name="Сгруппировать 2959">
      <path id="Контур_1968" data-name="Контур 1968" d="M24.618,11.827a.964.964,0,0,0-.964.964A10.863,10.863,0,1,1,12.791,1.928a.964.964,0,1,0,0-1.928A12.791,12.791,0,1,0,25.582,12.791.964.964,0,0,0,24.618,11.827Z" fill="#fff"/>
    </g>
  </g>
</svg>
