<svg id="checked" xmlns="http://www.w3.org/2000/svg" width="78.379" height="78.379" viewBox="0 0 78.379 78.379">
  <g id="Сгруппировать_3035" data-name="Сгруппировать 3035" transform="translate(18.61 9.847)">
    <g id="Сгруппировать_3034" data-name="Сгруппировать 3034">
      <path id="Контур_2056" data-name="Контур 2056" d="M179.1,65.195a2.953,2.953,0,0,0-4.177,0l-35.438,35.344L126.695,86.648a2.954,2.954,0,0,0-4.346,4L137.217,106.8a2.95,2.95,0,0,0,2.11.952h.063a2.957,2.957,0,0,0,2.085-.862L179.09,69.373A2.954,2.954,0,0,0,179.1,65.195Z" transform="translate(-121.568 -64.327)" fill="#84c44c"/>
    </g>
  </g>
  <g id="Сгруппировать_3037" data-name="Сгруппировать 3037">
    <g id="Сгруппировать_3036" data-name="Сгруппировать 3036">
      <path id="Контур_2057" data-name="Контур 2057" d="M75.425,36.235a2.954,2.954,0,0,0-2.954,2.954A33.281,33.281,0,1,1,39.189,5.908a2.954,2.954,0,1,0,0-5.908A39.189,39.189,0,1,0,78.379,39.189,2.954,2.954,0,0,0,75.425,36.235Z" fill="#84c44c"/>
    </g>
  </g>
</svg>
