<svg id="download" xmlns="http://www.w3.org/2000/svg" width="43" height="43" viewBox="0 0 43 43">
  <g id="Сгруппировать_3154" data-name="Сгруппировать 3154">
    <g id="Сгруппировать_3153" data-name="Сгруппировать 3153">
      <path id="Контур_2133" data-name="Контур 2133" d="M40.655,2.345A7.954,7.954,0,0,0,34.994,0H8.007A8.016,8.016,0,0,0,0,8.007V34.994A8.016,8.016,0,0,0,8.007,43H34.994A8.016,8.016,0,0,0,43,34.994V8.007A7.954,7.954,0,0,0,40.655,2.345ZM40.48,34.994a5.493,5.493,0,0,1-5.487,5.487H8.007A5.493,5.493,0,0,1,2.52,34.994V8.006A5.493,5.493,0,0,1,8.007,2.52H34.994A5.487,5.487,0,0,1,40.48,8.007Z" fill="#fff"/>
    </g>
  </g>
  <g id="Сгруппировать_3156" data-name="Сгруппировать 3156" transform="translate(13.561 8.096)">
    <g id="Сгруппировать_3155" data-name="Сгруппировать 3155">
      <path id="Контур_2134" data-name="Контур 2134" d="M176.98,106.57a1.26,1.26,0,0,0-1.782,0L170.67,111.1V97.66a1.26,1.26,0,0,0-2.52,0V111.1l-4.529-4.529a1.26,1.26,0,0,0-1.782,1.782l6.679,6.679a1.26,1.26,0,0,0,1.782,0l6.679-6.679A1.26,1.26,0,0,0,176.98,106.57Z" transform="translate(-161.471 -96.4)" fill="#fff"/>
    </g>
  </g>
  <g id="Сгруппировать_3158" data-name="Сгруппировать 3158" transform="translate(8.096 32.384)">
    <g id="Сгруппировать_3157" data-name="Сгруппировать 3157">
      <path id="Контур_2135" data-name="Контур 2135" d="M121.95,385.6H97.662a1.26,1.26,0,0,0,0,2.52H121.95a1.26,1.26,0,0,0,0-2.52Z" transform="translate(-96.402 -385.601)" fill="#fff"/>
    </g>
  </g>
</svg>
