<svg xmlns="http://www.w3.org/2000/svg" width="20.015" height="35.329" viewBox="0 0 20.015 35.329">
  <path id="facebook" d="M272.948,261.386c.042-.042.3-.212,1.145-.212h2.926a1.7,1.7,0,0,0,1.7-1.7v-5.089a1.7,1.7,0,0,0-1.7-1.7h-4.325a8.882,8.882,0,0,0-6.53,2.544,9.45,9.45,0,0,0-2.459,6.7v2.756H260.4a1.7,1.7,0,0,0-1.7,1.7v5.47a1.7,1.7,0,0,0,1.7,1.7H263.7V286.32a1.7,1.7,0,0,0,1.7,1.7h5.64a1.711,1.711,0,0,0,1.7-1.739V273.514h4.028a1.7,1.7,0,0,0,1.7-1.7v-5.47a1.664,1.664,0,0,0-.89-1.484,1.93,1.93,0,0,0-.848-.212h-4.028v-2.163C272.778,261.725,272.863,261.471,272.948,261.386Zm-2.247,1.06v3.1a1.14,1.14,0,0,0,1.145,1.145h4.622v4.749h-4.622a1.14,1.14,0,0,0-1.145,1.145V285.9h-4.961V272.581a1.14,1.14,0,0,0-1.145-1.145h-3.859v-4.749h3.859a1.14,1.14,0,0,0,1.145-1.145v-3.647c0-4.41,2.671-7.166,6.954-7.166h3.944V259.1h-2.544a3.563,3.563,0,0,0-2.714.933A3.459,3.459,0,0,0,270.7,262.446Z" transform="translate(-258.7 -252.687)" fill="#013cb2"/>
</svg>
