<svg xmlns="http://www.w3.org/2000/svg" width="16.865" height="16.865" viewBox="0 0 16.865 16.865">
  <path id="Контур_15" data-name="Контур 15" d="M16.854.564l0-.008a.706.706,0,0,0-.058-.162l-.021-.04A.691.691,0,0,0,16.662.2a.693.693,0,0,0-.15-.111l-.039-.02a.7.7,0,0,0-.167-.06h0A.7.7,0,0,0,16.121,0l-.04,0A.7.7,0,0,0,15.9.05L.437,6.376A.7.7,0,0,0,.5,7.7l6.666,2,2,6.666a.7.7,0,0,0,.639.5H9.84a.7.7,0,0,0,.65-.437L16.816.967h0A.687.687,0,0,0,16.86.787c0-.015,0-.03,0-.045A.71.71,0,0,0,16.854.564ZM2.809,6.924,13.2,2.673,7.531,8.341Zm7.133,7.133L8.525,9.334l5.666-5.666Z" transform="translate(0 0)" fill="#959595"/>
</svg>
