<svg xmlns="http://www.w3.org/2000/svg" width="27.445" height="24" viewBox="0 0 27.445 24">
  <g id="presentation_1_" data-name="presentation (1)" transform="translate(0)">
    <path id="Контур_2001" data-name="Контур 2001" d="M207.385,0H195.327A2.526,2.526,0,0,0,192.8,2.526V8.465l1.969.979.983-1.968a2.412,2.412,0,1,1,4.315,2.158l-1.753,3.507a3.663,3.663,0,0,1-.126,1.385h1.158l-3.053,8.395a.8.8,0,1,0,1.511.549l3.253-8.944h.563l3.286,8.947a.8.8,0,0,0,1.509-.554l-3.082-8.393h4.05A2.526,2.526,0,0,0,209.911,12V2.526A2.526,2.526,0,0,0,207.385,0Zm-1.723,11.082h-3.608a.8.8,0,0,1,0-1.608h3.608a.8.8,0,1,1,0,1.608Zm0-3.015h-3.608a.8.8,0,0,1,0-1.608h3.608a.8.8,0,1,1,0,1.608Zm0-3.014H197.05a.8.8,0,1,1,0-1.608h8.612a.8.8,0,1,1,0,1.608Zm0,0" transform="translate(-182.466)" fill="#ef0f3d"/>
    <path id="Контур_2002" data-name="Контур 2002" d="M14.147,42.573a2.079,2.079,0,0,0,.022-1.276l2-3.99a.8.8,0,1,0-1.438-.719l-1.7,3.4L9.216,38.1A6.9,6.9,0,0,0,5.821,37H5.11a3.5,3.5,0,1,0-2.55-1.1A3.493,3.493,0,0,0,5.11,37,5.136,5.136,0,0,0,1.5,38.5,5.07,5.07,0,0,0,0,42.114V44.7a2.531,2.531,0,0,0,1.722,2.4v4.494a.8.8,0,0,0,.8.8H7.694a.8.8,0,0,0,.8-.8V42.553l2.574,1.287a2.2,2.2,0,0,0,3.072-1.258l0-.009Zm0,0" transform="translate(0 -28.392)" fill="#ef0f3d"/>
  </g>
</svg>
