<svg xmlns="http://www.w3.org/2000/svg" width="20" height="24" viewBox="0 0 20 24">
  <g id="webcam" transform="translate(-2)">
    <circle id="Эллипс_205" data-name="Эллипс 205" cx="3" cy="3" r="3" transform="translate(9 8)" fill="#84c44c"/>
    <path id="Контур_1998" data-name="Контур 1998" d="M12,0A10,10,0,1,0,22,10,10.011,10.011,0,0,0,12,0Zm0,18A7.993,7.993,0,0,1,7.694,3.268l.338.507A2.745,2.745,0,0,0,10.32,5h3.359a2.745,2.745,0,0,0,2.288-1.225l.338-.507A7.993,7.993,0,0,1,12,18Z" fill="#84c44c"/>
    <path id="Контур_1999" data-name="Контур 1999" d="M18.71,23H5.29a.817.817,0,0,1,.29-.37A4.3,4.3,0,0,0,7.5,19.05v-.3a.761.761,0,0,1,.49-.7,8.938,8.938,0,0,0,8.02,0,.761.761,0,0,1,.49.7v.3a4.3,4.3,0,0,0,1.92,3.58A.817.817,0,0,1,18.71,23Z" fill="#84c44c"/>
    <path id="Контур_2000" data-name="Контур 2000" d="M19,24H5a1,1,0,0,1,0-2H19a1,1,0,0,1,0,2Z" fill="#84c44c"/>
  </g>
</svg>
