<svg xmlns="http://www.w3.org/2000/svg" width="18.4" height="24" viewBox="0 0 18.4 24">
  <path id="user_1_" data-name="user (1)" d="M23.406,17.156l-3.821-1.91A1.052,1.052,0,0,1,19,14.3V12.947c.092-.112.188-.24.288-.38a9.154,9.154,0,0,0,1.182-2.32A1.587,1.587,0,0,0,21.4,8.8V7.2A1.6,1.6,0,0,0,21,6.15V4.022a3.586,3.586,0,0,0-.837-2.61A5.035,5.035,0,0,0,16.2,0a5.036,5.036,0,0,0-3.963,1.412,3.587,3.587,0,0,0-.837,2.61V6.15A1.6,1.6,0,0,0,11,7.2V8.8a1.591,1.591,0,0,0,.6,1.244A8.4,8.4,0,0,0,13,12.938v1.324a1.057,1.057,0,0,1-.551.928L8.881,17.136A3.607,3.607,0,0,0,7,20.3v1.3c0,1.9,6.018,2.4,9.2,2.4s9.2-.5,9.2-2.4V20.383A3.589,3.589,0,0,0,23.406,17.156Z" transform="translate(-7)" fill="#1486e8"/>
</svg>
