<svg xmlns="http://www.w3.org/2000/svg" width="48" height="58.702" viewBox="0 0 48 58.702">
  <g id="clap" transform="translate(-0.499 -0.001)">
    <path id="Контур_2065" data-name="Контур 2065" d="M45.374,85.115l2.448-2.943a3.552,3.552,0,0,0-.8-4.927,4.149,4.149,0,0,0-1.754-.858,3.728,3.728,0,0,0-.7-4.987,3.773,3.773,0,0,0-5.3.486l-1.014,1.22a3.7,3.7,0,0,0-3.819-2.45,3.753,3.753,0,0,0-4.763-2.947,3.741,3.741,0,0,0-2.242,1.811l-.759,1.392a3.72,3.72,0,0,0-1.4-1.352,3.772,3.772,0,0,0-5.109,1.507L16.2,78.328a5.468,5.468,0,0,0-4.224.775,2.046,2.046,0,0,0-.575,2.835l1.555,2.347-.138.253-3-2.609a5.492,5.492,0,0,0-7.759-.039,2.046,2.046,0,0,0-.015,2.893l2.214,2.236c2.957,2.987,3.487,3.891,2.922,7.537L6.5,98.6a.94.94,0,0,0-1.262.386l-4.624,8.49a.948.948,0,0,0,.378,1.285L18.681,118.4a.948.948,0,0,0,1.284-.379l.341-.627.9.749a.947.947,0,0,0,1.333-.122l6.183-7.432a.947.947,0,0,0-.122-1.333l-.085-.07,1.575-1.894a6.209,6.209,0,0,0,5-2.234L47.18,90.524a3.368,3.368,0,0,0-.436-4.737,3.317,3.317,0,0,0-1.37-.672ZM29.087,70.425a1.865,1.865,0,0,1,3.506.9,3.705,3.705,0,0,0-.758.673L22.026,83.787l-.127-.164Zm-7.265,1.548a1.873,1.873,0,1,1,3.29,1.791l-.072.133-4.408,8.094-1.045-1.346a5.456,5.456,0,0,0-1.622-1.589ZM5.6,85.687,3.39,83.45a.169.169,0,0,1,0-.215A3.478,3.478,0,0,1,5.938,82.2a3.627,3.627,0,0,1,2.587,1.114l3.944,3.43a.947.947,0,0,0,1.452-.262l.2-.373c1.4,2.349,1.477,3.521.423,6.417L13.1,96.358a.944.944,0,0,0-1.312.133L8.932,99.921l-.672-.366.79-4.7c.668-4.308-.134-5.827-3.445-9.171Zm13.151,30.592L2.731,107.552l3.689-6.774a.934.934,0,0,0,.312.292l.856.467L5.6,103.924a.947.947,0,0,0,.122,1.333l13.1,10.9Zm2.935-.2L7.663,104.407l4.934-5.93a.931.931,0,0,0,.249.347l13.626,11.335a.986.986,0,0,0,.1.056ZM45.724,89.313,33.64,103.841a4.321,4.321,0,0,1-3.849,1.525.938.938,0,0,0-.842.334l-1.888,2.27L14.637,97.634l1.686-4.454c1.49-4.1,1-5.742-1.6-9.665l-1.737-2.623a.171.171,0,0,1,.043-.211,3.564,3.564,0,0,1,2.7-.526,3.625,3.625,0,0,1,2.322,1.594l1.98,2.551,0,.006,1.22,1.572a.949.949,0,0,0,.732.366,1.064,1.064,0,0,0,.744-.341l10.562-12.7A1.873,1.873,0,0,1,36.172,75.6l0,0h0l-5.409,6.5a.947.947,0,1,0,1.455,1.211l5.41-6.5a.041.041,0,0,0,0-.006L40.716,73.1a1.873,1.873,0,1,1,2.88,2.4L42.117,77.27c-.027.03-.061.052-.087.083s-.019.042-.034.062L33.035,88.189A.947.947,0,1,0,34.49,89.4l9.066-10.9a1.747,1.747,0,0,1,2.254.2,1.71,1.71,0,0,1,.556,2.261L39.676,89l-.062.074h0l-2.062,2.479a.947.947,0,1,0,1.455,1.211l2.058-2.474h0l2.4-2.861a1.471,1.471,0,0,1,2.262,1.881Zm0,0" transform="translate(0 -59.808)" fill="#fff"/>
    <path id="Контур_2066" data-name="Контур 2066" d="M98.134,370.564a1.611,1.611,0,1,0,1.752,1.457A1.612,1.612,0,0,0,98.134,370.564Zm0,0" transform="translate(-85.145 -328.071)" fill="#fff"/>
    <path id="Контур_2067" data-name="Контур 2067" d="M88.436,63.909,94.2,65.8a.947.947,0,1,0,.59-1.8l-5.76-1.89a.947.947,0,0,0-.59,1.8Zm0,0" transform="translate(-77.277 -54.946)" fill="#fff"/>
    <path id="Контур_2068" data-name="Контур 2068" d="M129.874,22.04A.947.947,0,1,0,131.459,21l-2.59-3.962a.947.947,0,1,0-1.585,1.036Zm0,0" transform="translate(-112.112 -14.708)" fill="#fff"/>
    <path id="Контур_2069" data-name="Контур 2069" d="M180.245,7.771a.972.972,0,0,0,.195.02.948.948,0,0,0,.926-.753l1.234-5.9a.947.947,0,0,0-1.854-.388l-1.234,5.9A.947.947,0,0,0,180.245,7.771Zm0,0" transform="translate(-158.47 0)" fill="#fff"/>
  </g>
</svg>
