<svg xmlns="http://www.w3.org/2000/svg" width="61" height="61.729" viewBox="0 0 61 61.729">
  <g id="pie-chart" transform="translate(-3.024)">
    <g id="Сгруппировать_3041" data-name="Сгруппировать 3041" transform="translate(3.024)">
      <path id="Контур_2070" data-name="Контур 2070" d="M6.532,497h-2.6a.9.9,0,1,0,0,1.808h2.6a.9.9,0,1,0,0-1.808Z" transform="translate(-3.024 -437.079)" fill="#fff"/>
      <path id="Контур_2071" data-name="Контур 2071" d="M53.241,497H52.226a.9.9,0,1,0,0,1.808h1.015a.9.9,0,1,0,0-1.808Z" transform="translate(-45.499 -437.079)" fill="#fff"/>
      <path id="Контур_2072" data-name="Контур 2072" d="M15.5,469.167H3.928a.9.9,0,1,0,0,1.808H15.5a.9.9,0,0,0,0-1.808Z" transform="translate(-3.024 -412.602)" fill="#fff"/>
      <path id="Контур_2073" data-name="Контур 2073" d="M47.521,1.808h2.6a.9.9,0,1,0,0-1.808h-2.6a.9.9,0,1,0,0,1.808Z" transform="translate(-41.361)" fill="#fff"/>
      <path id="Контур_2074" data-name="Контур 2074" d="M95.819,1.808h1.014a.9.9,0,1,0,0-1.808H95.819a.9.9,0,1,0,0,1.808Z" transform="translate(-83.836)" fill="#fff"/>
      <path id="Контур_2075" data-name="Контур 2075" d="M47.521,29.641H59.094a.9.9,0,0,0,0-1.808H47.521a.9.9,0,1,0,0,1.808Z" transform="translate(-41.361 -24.477)" fill="#fff"/>
      <path id="Контур_2076" data-name="Контур 2076" d="M255.564,31.212h7.913a.9.9,0,0,0,.639-.265l4.712-4.712a13.8,13.8,0,0,1,3.131,8.106,1.624,1.624,0,0,0,1.621,1.555H275.4a.9.9,0,1,0,0-1.808h-1.645a15.646,15.646,0,0,0-3.625-9.155l1.309-1.309a.9.9,0,0,0-1.279-1.279l-1.268,1.268a15.658,15.658,0,0,0-9.919-4.307V11.84a23.191,23.191,0,0,1,22.246,22.246h-1.8a.9.9,0,1,0,0,1.808h1.991a1.625,1.625,0,0,0,1.624-1.673,25,25,0,0,0-24.2-24.2,1.625,1.625,0,0,0-1.673,1.624v7.83a1.624,1.624,0,0,0,1.555,1.621,13.849,13.849,0,0,1,8.875,3.808L263.1,29.4h-7.539a.9.9,0,0,0,0,1.809Z" transform="translate(-224.322 -8.817)" fill="#fff"/>
      <path id="Контур_2077" data-name="Контур 2077" d="M255.564,230.174h2.6a.9.9,0,0,0,0-1.808h-2.6a.9.9,0,1,0,0,1.808Z" transform="translate(-224.322 -200.833)" fill="#fff"/>
      <path id="Контур_2078" data-name="Контур 2078" d="M303.861,228.366a.9.9,0,1,0,0,1.808h1.015a.9.9,0,1,0,0-1.808Z" transform="translate(-266.796 -200.833)" fill="#fff"/>
      <path id="Контур_2079" data-name="Контур 2079" d="M255.564,202.342h10.522a.9.9,0,1,0,0-1.808H255.564a.9.9,0,1,0,0,1.808Z" transform="translate(-224.322 -176.357)" fill="#fff"/>
      <path id="Контур_2080" data-name="Контур 2080" d="M54.567,99.628a.9.9,0,0,0,.639.265H63.12a.9.9,0,0,0,0-1.808H55.581l-3.223-3.223a24.812,24.812,0,0,0,2.714-10.582,1.625,1.625,0,0,0-1.624-1.674h-7.83A1.625,1.625,0,0,0,44,84.161,13.833,13.833,0,0,1,36.79,95.726L33.366,92.3a.9.9,0,0,0-.639-.265H25.1a.9.9,0,1,0,0,1.808h7.254l2.683,2.683a14,14,0,0,1-4.922.886l-.213,0a13.9,13.9,0,0,1-8.762-3.3.9.9,0,1,0-1.17,1.379A15.725,15.725,0,0,0,29.2,99.2v7.463a23.018,23.018,0,0,1-13.3-4.9l2.805-2.805a.9.9,0,0,0-1.279-1.279l-2.912,2.912A23.143,23.143,0,0,1,6.959,84.414h7.463a15.6,15.6,0,0,0,2.691,7.9A.9.9,0,0,0,18.608,91.3,13.882,13.882,0,0,1,29.265,69.632,1.629,1.629,0,0,0,30.8,68.012V66.18a.9.9,0,1,0-1.808,0v1.658A15.732,15.732,0,0,0,14.423,82.605H6.959A23.391,23.391,0,0,1,20,62.7l2.689,2.689a.9.9,0,0,0,1.279-1.279l-2.195-2.195a22.707,22.707,0,0,1,7.217-1.547v1.792a.9.9,0,1,0,1.808,0V60.179a1.625,1.625,0,0,0-1.688-1.624,24.861,24.861,0,0,0-8.747,1.954l-2.627-2.627a.9.9,0,0,0-.639-.265H9.184a.9.9,0,1,0,0,1.808h7.538l1.9,1.9A25.06,25.06,0,0,0,5.133,83.769a24.815,24.815,0,0,0,7.355,17.4c.243.242.491.478.742.709l-1.763,1.763H3.928a.9.9,0,0,0,0,1.808h7.913a.9.9,0,0,0,.639-.265l2.126-2.126a24.754,24.754,0,0,0,15.3,5.423h.2a24.829,24.829,0,0,0,17.331-7.008,25.181,25.181,0,0,0,4-4.979Zm-23.555,7.031V99.2a15.6,15.6,0,0,0,5.4-1.292l2.532,2.532a.9.9,0,0,0,1.279-1.279L38.1,97.036a15.839,15.839,0,0,0,2.789-2.105c.134-.127.265-.256.394-.386,1.7,1.69,3.453,3.446,5.242,5.237a23.171,23.171,0,0,1-15.512,6.877Zm16.737-8.21c-1.8-1.8-3.565-3.565-5.268-5.263A15.592,15.592,0,0,0,45.8,84.414h7.464a22.809,22.809,0,0,1-2.271,9.076l-1.372-1.372A.9.9,0,0,0,48.336,93.4L50.1,95.156a23.466,23.466,0,0,1-2.346,3.292Z" transform="translate(-3.024 -50.67)" fill="#fff"/>
      <path id="Контур_2081" data-name="Контур 2081" d="M475.885,450.879h-2.6a.9.9,0,1,0,0,1.808h2.6a.9.9,0,1,0,0-1.808Z" transform="translate(-415.79 -396.519)" fill="#fff"/>
      <path id="Контур_2082" data-name="Контур 2082" d="M439.182,450.879h-1.015a.9.9,0,0,0,0,1.808h1.015a.9.9,0,1,0,0-1.808Z" transform="translate(-384.909 -396.519)" fill="#fff"/>
      <path id="Контур_2083" data-name="Контур 2083" d="M418.133,423.047H407.611a.9.9,0,0,0,0,1.809h10.522a.9.9,0,0,0,0-1.809Z" transform="translate(-358.037 -372.042)" fill="#fff"/>
      <path id="Контур_2084" data-name="Контур 2084" d="M179.512,283.524h2.6a.9.9,0,1,0,0-1.808h-2.6a.9.9,0,1,0,0,1.808Z" transform="translate(-157.439 -247.751)" fill="#fff"/>
      <path id="Контур_2085" data-name="Контур 2085" d="M226.906,282.62a.9.9,0,0,0,.9.9h1.014a.9.9,0,0,0,0-1.808H227.81A.9.9,0,0,0,226.906,282.62Z" transform="translate(-199.914 -247.751)" fill="#fff"/>
      <path id="Контур_2086" data-name="Контур 2086" d="M179.512,311.356h11.047a.9.9,0,1,0,0-1.808H179.512a.9.9,0,1,0,0,1.808Z" transform="translate(-157.439 -272.227)" fill="#fff"/>
    </g>
  </g>
</svg>
