<svg xmlns="http://www.w3.org/2000/svg" width="55.095" height="61.222" viewBox="0 0 55.095 61.222">
  <path id="goal" d="M54.655,8.23l-2.616-2.3,2.616-2.3A1.291,1.291,0,0,0,53.8,1.362H42.976V.9a.9.9,0,1,0-1.795,0V13l-7.369,4a2.839,2.839,0,0,0-.291-.943L32.482,14.03A2.839,2.839,0,0,0,28.666,12.8l-.8.411a2.835,2.835,0,0,0-1.231,3.817l1.038,2.028a2.818,2.818,0,0,0,1.022,1.11,7.86,7.86,0,0,0-1.082,2.6l-.193.685a.9.9,0,0,0,.619,1.107.883.883,0,0,0,.244.034.9.9,0,0,0,.863-.653l.193-.683c.393-1.387.635-2.129,1.4-2.547l1.378-.749.17-.087c.057-.029.109-.062.163-.094l9.824-5.335A3.8,3.8,0,0,1,40.465,17.5l-6.388,3.881-.022.013L32.066,22.6a.9.9,0,0,0,.858,1.574l-1.509,4.561-1.1.452-3,1.229.864-3.055a.9.9,0,0,0-1.727-.489L25.085,31.7a.861.861,0,0,0-.032.2L24.7,38.457a3,3,0,0,1-.073.968l-3.968,8.349H17.77a3.067,3.067,0,0,0-3.064,3.063v2.59a3.039,3.039,0,0,0-1.269-.276H6.115a3.066,3.066,0,0,0-3.063,3.063v3.214H.9a.9.9,0,1,0,0,1.795H53.8a.9.9,0,0,0,0-1.795H51.468V36.3A3.067,3.067,0,0,0,48.4,33.236H42.976V17.583a5.6,5.6,0,0,0,.9-4.8.9.9,0,0,0-.9-.659V10.491H53.8a1.292,1.292,0,0,0,.854-2.261Zm-26.49,7.185a1.034,1.034,0,0,1,.516-.607l.8-.411a1.041,1.041,0,0,1,1.4.452l1.039,2.028a1.042,1.042,0,0,1-.346,1.338l-.292.158-.617.316a1.042,1.042,0,0,1-1.4-.452l-1.039-2.027a1.034,1.034,0,0,1-.064-.794Zm-1.8,32.635a3.046,3.046,0,0,0-.985-.263l.985-1.308Zm4.26-7.23a3.381,3.381,0,0,0,.647-1.608c.024-.116.467-2.534.467-2.534s.419.261.463.28a.1.1,0,0,1,.055.078L32.743,42H29.736Zm5.306-4.952-.758,6.126h-.625l-.5-5.133a1.89,1.89,0,0,0-1.057-1.517l-.9-.572.6-3.332s2.533,3.008,2.591,3.085c.524.681.7.954.655,1.343Zm-9.692,4.342a4.864,4.864,0,0,0,.251-1.666l.326-5.986,4.15-1.7-.754,4.179c0,.011,0,.023-.006.034l-.624,3.455a3.418,3.418,0,0,1-.376,1.2l-6.063,8.053h-.5Zm-21.391,16a1.27,1.27,0,0,1,1.269-1.268h7.323a1.27,1.27,0,0,1,1.269,1.268v3.214H4.846Zm11.655,0V50.837a1.27,1.27,0,0,1,1.269-1.269h7.323a1.27,1.27,0,0,1,1.269,1.269v8.591H16.5V56.213ZM49.673,36.3V59.427H39.812v-5.38a.9.9,0,0,0-1.8,0v5.38H28.157V45.06a1.27,1.27,0,0,1,1.269-1.268h7.323a1.27,1.27,0,0,1,1.269,1.268v4.5a.9.9,0,0,0,1.795,0V36.3a1.27,1.27,0,0,1,1.269-1.269H48.4A1.271,1.271,0,0,1,49.673,36.3Zm-8.592-3.063A3.067,3.067,0,0,0,38.018,36.3v5.974a3.037,3.037,0,0,0-1.04-.267l.732-5.919A3.465,3.465,0,0,0,36.7,33.43c-.06-.078-3.548-4.22-3.548-4.22l2.14-6.469,5.894-3.581V33.236ZM42.976,8.7V3.158h9.493l-2.044,1.8a1.291,1.291,0,0,0,0,1.938l2.044,1.8H42.976Zm0,0" fill="#fff"/>
</svg>
