<svg xmlns="http://www.w3.org/2000/svg" width="62.333" height="53.826" viewBox="0 0 62.333 53.826">
  <g id="certificate" transform="translate(0 -34.936)">
    <path id="Контур_2059" data-name="Контур 2059" d="M60.2,34.936H2.131A2.133,2.133,0,0,0,0,37.066v7.5a.914.914,0,0,0,1.826,0v-7.5a.3.3,0,0,1,.3-.3H60.2a.3.3,0,0,1,.3.3V81.593a.3.3,0,0,1-.3.3H48.5V80h9.184a.913.913,0,0,0,.913-.913V69.523a.914.914,0,0,0-1.826,0v8.649H48.5V74.12l.088.008a2.793,2.793,0,0,0,2.354-.5,2.8,2.8,0,0,0,.5-2.356,1.385,1.385,0,0,1,.631-1.557c1.611-1.339,1.641-2.773,0-4.137a1.386,1.386,0,0,1-.631-1.557c.179-2.042-.775-3.043-2.857-2.861a1.378,1.378,0,0,1-1.551-.631c-1.337-1.614-2.772-1.644-4.134,0a1.377,1.377,0,0,1-1.551.631c-2.044-.18-3.04.78-2.858,2.861a1.386,1.386,0,0,1-.631,1.557c-1.611,1.339-1.64,2.773,0,4.137a1.386,1.386,0,0,1,.631,1.557c-.192,2.188.853,3.034,2.945,2.853v4.051H5.561V40.488H56.772V64.653a.914.914,0,0,0,1.826,0V39.575a.913.913,0,0,0-.913-.913H4.648a.913.913,0,0,0-.913.913V79.084A.913.913,0,0,0,4.648,80H41.44v1.9H2.131a.3.3,0,0,1-.3-.3v-32.4a.914.914,0,0,0-1.826,0v32.4a2.133,2.133,0,0,0,2.131,2.131H41.44v4.133a.913.913,0,0,0,1.3.828l2.232-1.038L47.2,88.685a.931.931,0,0,0,1.3-.828V83.724H60.2a2.133,2.133,0,0,0,2.131-2.131V37.066A2.133,2.133,0,0,0,60.2,34.936ZM41.193,72.308c-.914.08-.958.032-.879-.882a3.15,3.15,0,0,0-1.283-3.12c-.741-.616-.741-.712,0-1.328a3.15,3.15,0,0,0,1.283-3.12c-.08-.914-.036-.962.879-.882a3.141,3.141,0,0,0,3.117-1.286c.614-.741.708-.741,1.321,0a3.142,3.142,0,0,0,3.117,1.286c.914-.08.958-.032.879.882a3.15,3.15,0,0,0,1.283,3.12c.741.616.741.712,0,1.328a3.15,3.15,0,0,0-1.283,3.12c.08.914.036.963-.878.882a3.815,3.815,0,0,0-1.8.13,3.643,3.643,0,0,0-1.321,1.155,3.376,3.376,0,0,1-.661.675,3.379,3.379,0,0,1-.661-.675,3.643,3.643,0,0,0-1.321-1.155A4,4,0,0,0,41.193,72.308Zm4.163,13.5a.913.913,0,0,0-.77,0l-1.319.614V75.182a2.041,2.041,0,0,0,3.409,0V86.425Z" fill="#fff"/>
    <path id="Контур_2060" data-name="Контур 2060" d="M90.875,130.147h31.477a.914.914,0,0,0,0-1.826H90.875A.914.914,0,0,0,90.875,130.147Z" transform="translate(-79.034 -82.016)" fill="#fff"/>
    <path id="Контур_2061" data-name="Контур 2061" d="M130.439,174.852a.913.913,0,0,0-.913-.913H90.876a.914.914,0,0,0,0,1.826h38.651A.913.913,0,0,0,130.439,174.852Z" transform="translate(-79.034 -122.08)" fill="#fff"/>
    <path id="Контур_2062" data-name="Контур 2062" d="M113.748,220.469a.913.913,0,0,0-.913-.913H90.876a.914.914,0,0,0,0,1.826h21.959A.913.913,0,0,0,113.748,220.469Z" transform="translate(-79.034 -162.144)" fill="#fff"/>
    <path id="Контур_2063" data-name="Контур 2063" d="M104.3,274.513l-1.494,0c-.958,0-1.485-.255-1.681-1.27-.179-.927-1.516-.809-1.761,0-.108.358-.656,1.384-1.135,1.3-.254-.044-.364-.436-.458-.638a7.788,7.788,0,0,1-.429-1.231c-.481-1.769-.577-3.617-.877-5.42-.174-1.045-1.768-.75-1.794.243a27.941,27.941,0,0,1-1.724,9.244c-.418,1.1,1.347,1.575,1.761.486a25.818,25.818,0,0,0,1.046-3.5,9.259,9.259,0,0,0,.523,1.27,2.173,2.173,0,0,0,2.784,1.209,3.117,3.117,0,0,0,1.117-.816c.864,1,2.149.951,3.348.95q2.711,0,5.423-.012a.914.914,0,0,0,0-1.826l-4.649.01Z" transform="translate(-81.572 -203.46)" fill="#fff"/>
    <path id="Контур_2064" data-name="Контур 2064" d="M343.66,281.419a3.566,3.566,0,1,0-3.566-3.566A3.57,3.57,0,0,0,343.66,281.419Zm0-5.307a1.74,1.74,0,1,1-1.74,1.74A1.742,1.742,0,0,1,343.66,276.112Z" transform="translate(-298.69 -210.211)" fill="#fff"/>
  </g>
</svg>
