<svg xmlns="http://www.w3.org/2000/svg" width="53.001" height="53.001" viewBox="0 0 53.001 53.001">
  <g id="business" transform="translate(-1 -1)">
    <path id="Контур_2087" data-name="Контур 2087" d="M52.847,40.73a6.02,6.02,0,0,0,1.2-3.59V26.027a2.556,2.556,0,0,0-3.519-2.376,2.542,2.542,0,0,0-4.175-1.231,2.486,2.486,0,0,0-2.565-.509V14.059a2.523,2.523,0,0,0-.257-1.1L47.2,9.283l3.028,3.028,2.422-9.686L42.968,5.047,46,8.075l-3.677,3.677a2.523,2.523,0,0,0-1.1-.257,2.561,2.561,0,0,0-2.407,1.71h-8.2L1.293,42.519,2.5,43.728,31.316,14.914h7.34v15.4A2.578,2.578,0,0,1,38.4,31.44l-.717-3.585a5.525,5.525,0,0,0-5.4-4.428,2.167,2.167,0,0,0-1.8,3.369l.88,1.319a3.83,3.83,0,0,1,.61,1.637l.591,4.731a5.848,5.848,0,0,0,.716,2.176l2.824,5.806v1.513h-1.71V54.237H53.189V43.979h-1.71V42.554ZM50.3,4.976l-1,3.991L46.312,5.973Zm1.175,40.712V47.4H36.092v-1.71ZM36.092,52.527V49.108H51.479v3.419Zm1.71-8.549V42.072l-3.024-6.211a4.251,4.251,0,0,1-.53-1.59l-.591-4.731a5.544,5.544,0,0,0-.883-2.373l-.88-1.32a.457.457,0,0,1,.38-.711A3.809,3.809,0,0,1,36,28.19l1.1,5.494h2.084l.73-1.46a4.3,4.3,0,0,0,.451-1.911V14.059a.855.855,0,1,1,1.71,0V27.736h1.71V24.317a.855.855,0,1,1,1.71,0v3.419H47.2V24.317a.855.855,0,1,1,1.71,0v3.419h1.71v-1.71a.855.855,0,0,1,1.71,0V37.14a4.3,4.3,0,0,1-.855,2.565l-1.71,2.28v1.994Z" transform="translate(-0.043 -0.236)" fill="#fff"/>
    <path id="Контур_2088" data-name="Контур 2088" d="M12.113,23.226A11.113,11.113,0,1,0,1,12.113,11.126,11.126,0,0,0,12.113,23.226Zm0-20.517a9.4,9.4,0,1,1-9.4,9.4A9.415,9.415,0,0,1,12.113,2.71Z" fill="#fff"/>
    <path id="Контур_2089" data-name="Контур 2089" d="M13.419,16.968a1.711,1.711,0,0,1-1.71-1.71H10a3.417,3.417,0,0,0,2.565,3.3v1.831h1.71v-1.71h2.565V15.258a3.423,3.423,0,0,0-3.419-3.419,1.711,1.711,0,0,1-1.71-1.71V8.419h1.71a1.711,1.711,0,0,1,1.71,1.71h1.71a3.417,3.417,0,0,0-2.565-3.3V5h-1.71V6.71H10v3.419a3.423,3.423,0,0,0,3.419,3.419,1.711,1.711,0,0,1,1.71,1.71v1.71Z" transform="translate(-1.306 -0.581)" fill="#fff"/>
    <path id="Контур_2090" data-name="Контур 2090" d="M21,13h1.71v1.71H21Z" transform="translate(-2.903 -1.742)" fill="#fff"/>
    <path id="Контур_2091" data-name="Контур 2091" d="M5,13H6.71v1.71H5Z" transform="translate(-0.581 -1.742)" fill="#fff"/>
    <path id="Контур_2092" data-name="Контур 2092" d="M3,61.258H9.839V51H3ZM4.71,52.71H8.129v6.839H4.71Z" transform="translate(-0.29 -7.257)" fill="#fff"/>
    <path id="Контур_2093" data-name="Контур 2093" d="M15,59.807h6.839V41H15Zm1.71-17.1h3.419V58.1H16.71Z" transform="translate(-2.032 -5.806)" fill="#fff"/>
    <path id="Контур_2094" data-name="Контур 2094" d="M27,58.646h6.839V33H27ZM28.71,34.71h3.419V56.936H28.71Z" transform="translate(-3.774 -4.645)" fill="#fff"/>
  </g>
</svg>
