<svg xmlns="http://www.w3.org/2000/svg" width="24.691" height="29.63" viewBox="0 0 24.691 29.63">
  <g id="webcam" transform="translate(0.001)">
    <ellipse id="Эллипс_205" data-name="Эллипс 205" cx="3.5" cy="4" rx="3.5" ry="4" transform="translate(9.062 9.629)" fill="#84c44c"/>
    <path id="Контур_1998" data-name="Контур 1998" d="M14.346,0A12.346,12.346,0,1,0,26.691,12.346,12.36,12.36,0,0,0,14.346,0Zm0,22.222A9.868,9.868,0,0,1,9.03,4.035l.417.626a3.388,3.388,0,0,0,2.825,1.512h4.147A3.388,3.388,0,0,0,19.243,4.66l.417-.626a9.868,9.868,0,0,1-5.315,18.188Z" transform="translate(-2.001)" fill="#84c44c"/>
    <path id="Контур_1999" data-name="Контур 1999" d="M21.858,24.161H5.29a1.009,1.009,0,0,1,.358-.457,5.308,5.308,0,0,0,2.37-4.42v-.37a.94.94,0,0,1,.6-.864,11.035,11.035,0,0,0,9.9,0,.94.94,0,0,1,.6.864v.37A5.308,5.308,0,0,0,21.5,23.7,1.009,1.009,0,0,1,21.858,24.161Z" transform="translate(-1.229 4.234)" fill="#84c44c"/>
    <path id="Контур_2000" data-name="Контур 2000" d="M22.518,24.469H5.235a1.235,1.235,0,0,1,0-2.469H22.518a1.235,1.235,0,0,1,0,2.469Z" transform="translate(-1.531 5.16)" fill="#84c44c"/>
  </g>
</svg>
