<svg id="video" xmlns="http://www.w3.org/2000/svg" width="29.605" height="32.299" viewBox="0 0 29.605 32.299">
  <path id="Контур_2343" data-name="Контур 2343" d="M24.1,0H15.355A2.358,2.358,0,0,0,13,2.355V12.448A2.358,2.358,0,0,0,15.355,14.8H24.1a2.358,2.358,0,0,0,2.355-2.355V2.355A2.358,2.358,0,0,0,24.1,0ZM22.086,8.152,18.722,11.18a1.011,1.011,0,0,1-1.685-.751V4.373a1.011,1.011,0,0,1,1.685-.751L22.086,6.65a1.011,1.011,0,0,1,0,1.5Z" transform="translate(3.148)" fill="#fd0"/>
  <path id="Контур_2344" data-name="Контур 2344" d="M25.222,17.494H19.5a5.048,5.048,0,0,1-5.046-5.046V2.355A4.969,4.969,0,0,1,15.049,0H5.037A4.049,4.049,0,0,0,1,4.037V23.55c0,1.319,1.8,3.364,4.037,3.364H9.074v4.373a1.011,1.011,0,0,0,1.682.754l2.355-2.1,2.355,2.1a1.011,1.011,0,0,0,1.682-.754V26.914h6.728a1.35,1.35,0,0,0,1.346-1.346ZM9.074,24.222H5.037a1.346,1.346,0,1,1,0-2.691H9.074Zm13.457,0H17.148V21.531h5.383Z" transform="translate(-1)" fill="#fd0"/>
</svg>
