<svg id="speaker" xmlns="http://www.w3.org/2000/svg" width="30.532" height="30.529" viewBox="0 0 30.532 30.529">
  <path id="Контур_2355" data-name="Контур 2355" d="M19.038,26.176H8.226a.953.953,0,0,1-.943-.809L6.011,17.1A.953.953,0,0,1,6.954,16H20.31a.955.955,0,0,1,.943,1.1l-1.272,8.268a.953.953,0,0,1-.943.808Z" transform="translate(1.634 4.352)" fill="#1288d6"/>
  <ellipse id="Эллипс_300" data-name="Эллипс 300" cx="5.081" cy="5.081" rx="5.081" ry="5.081" transform="translate(10.163)" fill="#1288d6"/>
  <path id="Контур_2356" data-name="Контур 2356" d="M29.533,14.9A9.245,9.245,0,0,0,25.44,7.9a1.928,1.928,0,1,0-.955,1.657A7.332,7.332,0,0,1,27.625,14.9h-2.26A6.049,6.049,0,0,0,19.4,9.816H11.131A6.049,6.049,0,0,0,5.165,14.9H.954a.97.97,0,0,0-.9,1.285l2.544,7a.967.967,0,0,0,.9.623H5.686l-.56-3.6a3.513,3.513,0,0,1,.8-2.811,3.564,3.564,0,0,1,2.659-1.221H21.943a3.5,3.5,0,0,1,3.46,4.032l-.56,3.6h2.188a.967.967,0,0,0,.9-.623l2.544-7a.967.967,0,0,0-.945-1.285Z" transform="translate(0.001 1.632)" fill="#1288d6"/>
</svg>
