<svg xmlns="http://www.w3.org/2000/svg" width="29.45" height="29.45" viewBox="0 0 29.45 29.45">
  <path id="information" d="M14.725,0A14.725,14.725,0,1,0,29.45,14.725,14.742,14.742,0,0,0,14.725,0Zm.958,23.462c-.7.117-2.092.408-2.8.466a1.723,1.723,0,0,1-1.507-.785,1.84,1.84,0,0,1-.223-1.685L13.938,13.8H11.044a3.459,3.459,0,0,1,2.724-3.217,10.656,10.656,0,0,1,2.8-.464,2.22,2.22,0,0,1,1.507.785,1.84,1.84,0,0,1,.223,1.685l-2.783,7.654h2.893a3.258,3.258,0,0,1-2.722,3.215ZM16.566,9.2a1.841,1.841,0,1,1,1.841-1.841A1.841,1.841,0,0,1,16.566,9.2Z" fill="#f80"/>
</svg>
