<svg id="teamwork" xmlns="http://www.w3.org/2000/svg" width="30.492" height="30.491" viewBox="0 0 30.492 30.491">
  <g id="Сгруппировать_3576" data-name="Сгруппировать 3576" transform="translate(11.434 0)">
    <g id="Сгруппировать_3575" data-name="Сгруппировать 3575">
      <ellipse id="Эллипс_298" data-name="Эллипс 298" cx="3.811" cy="3.811" rx="3.811" ry="3.811" fill="#10dc54"/>
    </g>
  </g>
  <g id="Сгруппировать_3578" data-name="Сгруппировать 3578" transform="translate(9.529 9.528)">
    <g id="Сгруппировать_3577" data-name="Сгруппировать 3577">
      <path id="Контур_2351" data-name="Контур 2351" d="M171.427,168.459l-.865-6.739A1.9,1.9,0,0,0,168.668,160h-1.044a.96.96,0,0,0-.675.278l-1.231,1.231-1.231-1.231a.96.96,0,0,0-.675-.278h-1.042a1.894,1.894,0,0,0-1.894,1.69l-.867,6.765a.955.955,0,0,0,.945,1.073h1.029l.8,9.719a1.9,1.9,0,0,0,1.9,1.715h2.087a1.9,1.9,0,0,0,1.9-1.732l.795-9.7h1.027a.95.95,0,0,0,.715-.324A.938.938,0,0,0,171.427,168.459Z" transform="translate(-160.001 -160.005)" fill="#10dc54"/>
    </g>
  </g>
  <g id="Сгруппировать_3580" data-name="Сгруппировать 3580" transform="translate(20.963 0)">
    <g id="Сгруппировать_3579" data-name="Сгруппировать 3579">
      <ellipse id="Эллипс_299" data-name="Эллипс 299" cx="3.811" cy="3.811" rx="3.811" ry="3.811" fill="#10dc54"/>
    </g>
  </g>
  <g id="Сгруппировать_3582" data-name="Сгруппировать 3582" transform="translate(1.906 0)">
    <g id="Сгруппировать_3581" data-name="Сгруппировать 3581">
      <path id="Контур_2352" data-name="Контур 2352" d="M35.81,0a3.811,3.811,0,1,0,3.811,3.811A3.815,3.815,0,0,0,35.81,0Z" transform="translate(-31.999 -0.005)" fill="#10dc54"/>
    </g>
  </g>
  <g id="Сгруппировать_3584" data-name="Сгруппировать 3584" transform="translate(21.205 9.528)">
    <g id="Сгруппировать_3583" data-name="Сгруппировать 3583">
      <path id="Контур_2353" data-name="Контур 2353" d="M365.342,168.459l-.865-6.737a1.9,1.9,0,0,0-1.894-1.717h-1.044a.96.96,0,0,0-.675.278l-1.231,1.231-1.231-1.231a.959.959,0,0,0-.673-.278h-1.044a1.816,1.816,0,0,0-.337.063,3.708,3.708,0,0,1,.5,1.433l.863,6.716a2.851,2.851,0,0,1-.7,2.26,2.762,2.762,0,0,1-.945.671l.633,6.2a1.9,1.9,0,0,0,1.9,1.715h2.087a1.9,1.9,0,0,0,1.9-1.732l.793-7.8H364.4a.95.95,0,0,0,.715-.324A.938.938,0,0,0,365.342,168.459Z" transform="translate(-356.063 -160.005)" fill="#10dc54"/>
    </g>
  </g>
  <g id="Сгруппировать_3586" data-name="Сгруппировать 3586" transform="translate(0 9.528)">
    <g id="Сгруппировать_3585" data-name="Сгруппировать 3585">
      <path id="Контур_2354" data-name="Контур 2354" d="M8.335,170.467a2.854,2.854,0,0,1-.69-2.247l.867-6.767a3.523,3.523,0,0,1,.475-1.387,1.794,1.794,0,0,0-.32-.061H7.622a.96.96,0,0,0-.675.278l-1.231,1.231-1.231-1.231A.959.959,0,0,0,3.813,160H2.768A1.894,1.894,0,0,0,.874,161.7l-.867,6.765a.955.955,0,0,0,.945,1.073H1.981l.8,7.813a1.9,1.9,0,0,0,1.9,1.715H6.761a1.9,1.9,0,0,0,1.9-1.732l.633-6.184A2.857,2.857,0,0,1,8.335,170.467Z" transform="translate(0.001 -160.005)" fill="#10dc54"/>
    </g>
  </g>
</svg>
