<svg xmlns="http://www.w3.org/2000/svg" width="36.378" height="32.7" viewBox="0 0 36.378 32.7">
  <path id="shopping-cart" d="M17.572,137.769a3.021,3.021,0,1,1-3.021-3.021A3.021,3.021,0,0,1,17.572,137.769Zm9.211-3.021a3.021,3.021,0,1,0,3.021,3.021A3.021,3.021,0,0,0,26.784,134.748Zm9.378-14.182-3.717,11.049a2,2,0,0,1-1.876,1.64H11.8c-1.871,0-1.95-2.055-1.95-2.055s-1.995-14.8-2.093-15.692-1.242-1.557-1.242-1.557l-4.919-2.3c-2.693-1.408-1.469-4.088,0-3.473,6.238,2.942,9.135,4.391,9.322,5.55s.517,3.958.517,3.958v.018l.065-.018H34.488C37.264,117.688,36.161,120.57,36.161,120.566Zm-5.377,6.152-.038,0h-18.2l.375,2.974H29.9Zm1.772-6H11.795l.4,3.178H31.617Z" transform="translate(0 -108.09)" fill="#a513a5"/>
</svg>
