<svg xmlns="http://www.w3.org/2000/svg" width="124.688" height="124.688" viewBox="0 0 124.688 124.688">
  <path id="networking_1_" data-name="networking (1)" d="M99.75,49.875A24.938,24.938,0,1,0,77.176,14.41L70.5,11.945a10.088,10.088,0,0,0,.158-1.555,10.481,10.481,0,1,0-1.588,5.457l6.667,2.461a24.483,24.483,0,0,0,.341,14.42L53.221,42.415A24.817,24.817,0,0,0,22.382,30.723l-5.748-12.08a10.338,10.338,0,1,0-6.242,2.138,10.217,10.217,0,0,0,2.5-.339L18.63,32.51A24.895,24.895,0,0,0,17.3,74.739l-3.8,6.833a10.284,10.284,0,0,0-3.107-.526,10.515,10.515,0,1,0,6.74,2.548l3.809-6.847A24.728,24.728,0,0,0,46.326,73.79l8.18,9A24.818,24.818,0,0,0,47.8,99.75a25.1,25.1,0,0,0,.309,3.73l-9.624,2.284a10.33,10.33,0,1,0,1,4.376c0-.115-.031-.222-.033-.337l9.605-2.277A24.927,24.927,0,1,0,94.7,87.959L106.9,80.022a10.6,10.6,0,1,0-2.257-3.491L92.413,84.486a25.076,25.076,0,0,0-9.288-7.377L93.268,48.99a24.848,24.848,0,0,0,6.482.885ZM60.266,16.625A6.234,6.234,0,1,1,66.5,10.391,6.242,6.242,0,0,1,60.266,16.625ZM4.156,10.391a6.234,6.234,0,1,1,6.234,6.234A6.242,6.242,0,0,1,4.156,10.391Zm6.234,87.281a6.234,6.234,0,1,1,6.234-6.234A6.242,6.242,0,0,1,10.391,97.672Zm18.7,18.7a6.234,6.234,0,1,1,6.234-6.234A6.242,6.242,0,0,1,29.094,116.375ZM114.3,66.5a6.234,6.234,0,1,1-6.234,6.234A6.242,6.242,0,0,1,114.3,66.5ZM87.512,41.7a10.421,10.421,0,0,1,10.16-8.445h4.156a10.421,10.421,0,0,1,10.16,8.445,20.625,20.625,0,0,1-24.477,0Zm12.238-12.6a6.234,6.234,0,1,1,6.234-6.234A6.242,6.242,0,0,1,99.75,29.094Zm0-24.937a20.75,20.75,0,0,1,15.685,34.37,14.721,14.721,0,0,0-8.275-8.406,10.391,10.391,0,1,0-14.821,0,14.721,14.721,0,0,0-8.275,8.406A20.75,20.75,0,0,1,99.75,4.156ZM10.391,54.031A20.781,20.781,0,1,1,46.829,67.654a14.723,14.723,0,0,0-8.286-8.439,10.392,10.392,0,1,0-14.823,0,14.717,14.717,0,0,0-8.265,8.372A20.671,20.671,0,0,1,10.391,54.031ZM24.9,51.953a6.234,6.234,0,1,1,6.234,6.234A6.242,6.242,0,0,1,24.9,51.953Zm-6,18.809a10.418,10.418,0,0,1,10.153-8.418h4.156a10.417,10.417,0,0,1,10.164,8.473A20.621,20.621,0,0,1,18.9,70.762Zm41.563,45.719a10.418,10.418,0,0,1,10.153-8.418h4.156a10.417,10.417,0,0,1,10.164,8.473,20.621,20.621,0,0,1-24.474-.055Zm12.231-12.574a6.234,6.234,0,1,1,6.234-6.234A6.242,6.242,0,0,1,72.693,103.906ZM93.516,99.75a20.678,20.678,0,0,1-5.124,13.622,14.723,14.723,0,0,0-8.286-8.439,10.392,10.392,0,1,0-14.823,0,14.717,14.717,0,0,0-8.265,8.372,20.77,20.77,0,1,1,36.5-13.556ZM79.217,75.7a24.6,24.6,0,0,0-21.636,4.294l-8.18-9A24.757,24.757,0,0,0,54.846,46.24L77.7,36.554a25.073,25.073,0,0,0,11.66,11.025Zm0,0" transform="translate(0)" fill="#fff"/>
</svg>
