<svg xmlns="http://www.w3.org/2000/svg" width="202" height="46.711" viewBox="0 0 202 46.711">
  <g id="Layer" transform="translate(0 0)">
    <g id="_1853749448752" transform="translate(0 0)">
      <path id="Контур_1963" data-name="Контур 1963" d="M48.466,25.013a9.884,9.884,0,0,1-13.889,0,9.564,9.564,0,0,1-2.827-6.944,9.524,9.524,0,0,1,2.827-6.944,9.884,9.884,0,0,1,13.889,0,9.429,9.429,0,0,1,2.827,6.944A9.468,9.468,0,0,1,48.466,25.013Zm-12.135-1.73a7.413,7.413,0,0,0,10.38,0,7.149,7.149,0,0,0,2.1-5.214,7.205,7.205,0,0,0-2.1-5.239,7.413,7.413,0,0,0-10.38,0,7.109,7.109,0,0,0-2.1,5.239A7.054,7.054,0,0,0,36.331,23.283ZM60.21,27.864a6.646,6.646,0,0,1-4.946-1.974,6.91,6.91,0,0,1-1.925-5.068,11.259,11.259,0,0,1,1-5.312,8.842,8.842,0,0,1,4.142-3.363c.366-.195.9-.414,1.559-.707s1.121-.512,1.438-.658c.292-.171.634-.365,1.023-.634a2.841,2.841,0,0,0,.853-.853,3.664,3.664,0,0,0,.414-1.1l1.876,1.072a6.484,6.484,0,0,1-.195.8,3.4,3.4,0,0,1-.39.707c-.171.219-.341.414-.463.56a2.481,2.481,0,0,1-.634.536c-.292.195-.512.341-.634.414-.146.1-.414.219-.78.414q-.585.256-.8.365c-.122.049-.414.195-.9.365-.463.195-.755.317-.853.365a8.973,8.973,0,0,0-2.68,1.608,4.829,4.829,0,0,0-1.243,2.047,5.228,5.228,0,0,1,2.169-1.608,6.966,6.966,0,0,1,2.583-.512,5.958,5.958,0,0,1,6.067,6.189,5.94,5.94,0,0,1-1.876,4.532,6.7,6.7,0,0,1-4.8,1.8ZM57.043,24.4a4.771,4.771,0,0,0,6.287.024,3.825,3.825,0,0,0,1.218-2.9,3.909,3.909,0,0,0-1.17-2.948,4.155,4.155,0,0,0-3.095-1.145,5.041,5.041,0,0,0-3.119,1.072,3.509,3.509,0,0,0-1.389,2.875A4.006,4.006,0,0,0,57.043,24.4Zm21.2-10.38h2.51L75.269,28.351a7.673,7.673,0,0,1-2.437,3.484,5.069,5.069,0,0,1-3.558,1.072V30.715c1.657.146,2.875-.755,3.631-2.68l.219-.487L67.277,14.024h2.485L74.367,24.6l3.874-10.575Zm12.987,0h2.339v13.5H91.229V22.649a8.7,8.7,0,0,1-3.631.707,6.049,6.049,0,0,1-4.02-1.218,4.528,4.528,0,0,1-1.413-3.631V14.024H84.5v4.337a2.635,2.635,0,0,0,.828,2.169,3.845,3.845,0,0,0,2.412.634,8.471,8.471,0,0,0,3.484-.682V14.024Zm7.554,7.822a4.4,4.4,0,0,0,1.657,2.8,5.066,5.066,0,0,0,3.216,1,4.238,4.238,0,0,0,3.9-1.974l2,1.145a6.617,6.617,0,0,1-5.945,3.046,7.034,7.034,0,0,1-5.214-2,6.923,6.923,0,0,1-2.022-5.093A6.926,6.926,0,0,1,98.344,15.7a6.755,6.755,0,0,1,5.093-2.022,6.181,6.181,0,0,1,4.849,2.071,7.4,7.4,0,0,1,1.876,5.044,7.841,7.841,0,0,1-.073,1.048H98.783Zm4.654-5.97a4.661,4.661,0,0,0-3.119,1.072A4.574,4.574,0,0,0,98.783,19.8H107.8a4.6,4.6,0,0,0-1.511-2.924,4.42,4.42,0,0,0-2.851-1ZM122.2,14.024h2.339v13.5H122.2V21.87h-6.993v5.653h-2.339v-13.5h2.339v5.6H122.2v-5.6Zm15.692,0h1.9v13.5h-2.339V18.044L130,27.523h-1.9v-13.5h2.339V23.5l7.456-9.479Zm7.091,7.822a4.509,4.509,0,0,0,1.657,2.8,5.089,5.089,0,0,0,3.241,1,4.2,4.2,0,0,0,3.874-1.974l2,1.145a6.6,6.6,0,0,1-5.921,3.046,7.09,7.09,0,0,1-5.239-2,6.9,6.9,0,0,1-2-5.093,6.926,6.926,0,0,1,1.974-5.068,6.719,6.719,0,0,1,5.093-2.022,6.251,6.251,0,0,1,4.849,2.071,7.4,7.4,0,0,1,1.876,5.044,7.983,7.983,0,0,1-.1,1.048H144.982Zm4.678-5.97a4.488,4.488,0,0,0-4.678,3.923H154a4.6,4.6,0,0,0-1.511-2.924,4.355,4.355,0,0,0-2.827-1Z" transform="translate(45.614 11.781)" fill="#272424"/>
      <path id="Контур_1964" data-name="Контур 1964" d="M3.923,5.49H69.591V34.9a3.92,3.92,0,0,1-3.923,3.923H3.923A3.92,3.92,0,0,1,0,34.9V9.413A3.92,3.92,0,0,1,3.923,5.49Z" transform="translate(0 7.887)" fill="#00a859" fill-rule="evenodd"/>
      <path id="Контур_1965" data-name="Контур 1965" d="M37.3,9.82c1.291-1.754,1.974-4.776.926-9.82C25.262,2,28.064,9.016,29.283,11.209a44.957,44.957,0,0,1,6.725-8.114,48.265,48.265,0,0,0-4.483,7.919A4.5,4.5,0,0,1,37.3,9.82Zm4.094,4.094c-6.652-7.091-9.5-2.193-10.185-.536a17.331,17.331,0,0,1,5.8.731,14.943,14.943,0,0,0-5.483.755C32.645,16.789,35.716,20.322,41.393,13.913Z" transform="translate(40.455)" fill="#84c44c" fill-rule="evenodd"/>
      <path id="Контур_1966" data-name="Контур 1966" d="M35.115,8.49H36.82V10.2H35.115Zm-24.464,10.7,4.24-10.7h2.827L11.211,23.841c-.95,2.266-2.217,3.265-4.532,3.363A10.017,10.017,0,0,1,3.17,26.57V24.426a10.347,10.347,0,0,0,3.265.707c1.072-.024,1.974-.585,3-3L3.17,8.49H5.9Zm18.494,7.992H26.806V22.208a11.662,11.662,0,0,1-3.168.414c-3.314,0-5.263-1.706-5.288-5.068V13.485H20.69v4.142c0,2.047,1.023,2.948,2.948,2.948a11.662,11.662,0,0,0,3.168-.414V13.51h2.339Zm9.381,0c-4.386,0-6.53-2.875-6.53-6.9,0-3.484,2.266-6.774,6.214-6.774,4.922,0,5.848,3.582,5.848,7.481H34.164A4.269,4.269,0,0,0,38.6,25.279a4.673,4.673,0,0,0,3.8-1.706l1.486,1.072a6.085,6.085,0,0,1-5.361,2.534Zm-.317-11.842a4.037,4.037,0,0,0-3.947,3.8h7.627A3.6,3.6,0,0,0,38.209,15.337Zm19.128.049H52.732V27.179H50.393V15.386H45.885V13.51H57.337ZM39.257,8.514h1.706V10.22H39.257Z" transform="translate(4.554 12.197)" fill="#fefefe"/>
    </g>
  </g>
</svg>
