<svg xmlns="http://www.w3.org/2000/svg" width="28.098" height="28.224" viewBox="0 0 28.098 28.224">
  <path id="Контур_2121" data-name="Контур 2121" d="M24,44.23a2.946,2.946,0,0,0-2.137-.98,3.047,3.047,0,0,0-2.162.974l-2,1.992c-.164-.089-.329-.171-.487-.253-.228-.114-.443-.221-.626-.335a21.715,21.715,0,0,1-5.2-4.742,12.811,12.811,0,0,1-1.707-2.693c.518-.474,1-.967,1.467-1.442.177-.177.354-.36.531-.537a2.9,2.9,0,0,0,0-4.375L9.949,30.112c-.2-.2-.4-.4-.588-.6-.379-.392-.778-.8-1.189-1.176a2.993,2.993,0,0,0-2.118-.929,3.1,3.1,0,0,0-2.15.929l-.013.013-2.15,2.169A4.626,4.626,0,0,0,.37,33.457a11.083,11.083,0,0,0,.809,4.691,27.223,27.223,0,0,0,4.837,8.068,29.753,29.753,0,0,0,9.907,7.758,15.436,15.436,0,0,0,5.564,1.644c.133.006.272.013.4.013a4.764,4.764,0,0,0,3.648-1.568c.006-.013.019-.019.025-.032a14.372,14.372,0,0,1,1.106-1.144c.272-.259.55-.531.822-.816a3.154,3.154,0,0,0,.955-2.188,3.039,3.039,0,0,0-.974-2.169Zm2.263,6.658c-.006,0-.006.006,0,0-.247.266-.5.506-.771.771a16.624,16.624,0,0,0-1.22,1.264,3.048,3.048,0,0,1-2.377,1.005c-.095,0-.2,0-.291-.006a13.713,13.713,0,0,1-4.932-1.479,28.085,28.085,0,0,1-9.332-7.309,25.668,25.668,0,0,1-4.552-7.581A9.027,9.027,0,0,1,2.078,33.6a2.9,2.9,0,0,1,.873-1.878l2.156-2.156a1.437,1.437,0,0,1,.961-.449,1.352,1.352,0,0,1,.923.443l.019.019c.386.36.752.733,1.138,1.132.2.2.4.4.6.613l1.726,1.726a1.207,1.207,0,0,1,0,1.96c-.183.183-.36.367-.544.544-.531.544-1.037,1.05-1.587,1.543-.013.013-.025.019-.032.032a1.29,1.29,0,0,0-.329,1.435L8,38.616a13.857,13.857,0,0,0,2.042,3.332l.006.006a23.206,23.206,0,0,0,5.614,5.109,8.633,8.633,0,0,0,.778.424c.228.114.443.221.626.335.025.013.051.032.076.044a1.371,1.371,0,0,0,.626.158,1.352,1.352,0,0,0,.961-.436l2.162-2.162a1.43,1.43,0,0,1,.955-.474,1.288,1.288,0,0,1,.91.462l.013.013,3.484,3.484A1.25,1.25,0,0,1,26.261,50.888Z" transform="translate(-0.344 -27.406)" fill="#0160b2"/>
</svg>
