<svg id="Сгруппировать_3067" data-name="Сгруппировать 3067" xmlns="http://www.w3.org/2000/svg" xmlns:xlink="http://www.w3.org/1999/xlink" width="202" height="50.95" viewBox="0 0 202 50.95">
  <defs>
    <linearGradient id="linear-gradient" x1="0.562" y1="-0.103" x2="0.829" y2="1.267" gradientUnits="objectBoundingBox">
      <stop offset="0" stop-color="#ff3f17"/>
      <stop offset="1" stop-color="#985440"/>
    </linearGradient>
    <radialGradient id="radial-gradient" cx="1.065" cy="0.297" r="1.621" gradientTransform="matrix(-0.654, 0.614, -0.509, -0.789, 1.932, -0.085)" gradientUnits="objectBoundingBox">
      <stop offset="0" stop-color="#61caf8"/>
      <stop offset="0.58" stop-color="#1db3ef"/>
      <stop offset="1" stop-color="#013cb2"/>
    </radialGradient>
    <radialGradient id="radial-gradient-2" cx="1.512" cy="0.5" r="4.414" gradientTransform="matrix(-0.49, 0.424, -0.229, -0.906, 2.338, 0.221)" gradientUnits="objectBoundingBox">
      <stop offset="0" stop-color="#b1e5ff"/>
      <stop offset="0.58" stop-color="#6dd3ff"/>
      <stop offset="1" stop-color="#00b7ff"/>
    </radialGradient>
    <radialGradient id="radial-gradient-3" cx="0.235" cy="0.832" r="0.859" gradientTransform="matrix(0.735, -0.637, 0.607, 0.771, -0.429, 0.338)" gradientUnits="objectBoundingBox">
      <stop offset="0" stop-color="#ffc50d"/>
      <stop offset="0.271" stop-color="#ffac1d"/>
      <stop offset="0.69" stop-color="#ff6c00"/>
      <stop offset="1" stop-color="#ff9926"/>
    </radialGradient>
    <radialGradient id="radial-gradient-4" cx="0.133" cy="0.667" r="1.113" gradientTransform="matrix(0.672, -0.65, 0.575, 0.76, -0.36, 0.237)" gradientUnits="objectBoundingBox">
      <stop offset="0" stop-color="#ffd800"/>
      <stop offset="0.271" stop-color="#ffcb00"/>
      <stop offset="0.69" stop-color="#ff9100"/>
      <stop offset="1" stop-color="#ffc32d"/>
    </radialGradient>
    <radialGradient id="radial-gradient-5" cx="-0.109" cy="0.606" r="2.646" gradientTransform="matrix(0.434, -0.702, 0.428, 0.712, -0.357, 0.089)" gradientUnits="objectBoundingBox">
      <stop offset="0" stop-color="#fff8af"/>
      <stop offset="0.271" stop-color="#ffe330"/>
      <stop offset="0.69" stop-color="#ffd657"/>
      <stop offset="1" stop-color="#ffb300"/>
    </radialGradient>
  </defs>
  <g id="Сгруппировать_2954" data-name="Сгруппировать 2954">
    <path id="Контур_1953" data-name="Контур 1953" d="M6.165,31.781A25.7,25.7,0,0,1,.481,21.527c-.887-5.82,3-10.731,8.23-13.027C4.573,12.047-.724,23.915,6.165,31.781Z" transform="translate(0.451 10.825)" fill="#0160b2" fill-rule="evenodd"/>
    <path id="Контур_1954" data-name="Контур 1954" d="M3.371,19.211,3.28,19.12c.023.023.045.068.091.091Z" transform="translate(4.177 24.35)" fill="#15647d" fill-rule="evenodd"/>
    <path id="Контур_1955" data-name="Контур 1955" d="M11.2,0A25.327,25.327,0,0,1,26.023,4.752c4.706,5.184,3.683,10.14,1.887,13.277a8.11,8.11,0,0,1-.568.864C27.751,7.344,23.341.159,11.2,0Z" transform="translate(14.264 0)" fill-rule="evenodd" fill="url(#linear-gradient)"/>
    <path id="Контур_1956" data-name="Контур 1956" d="M1.432,17.052c2.5-4.683,11.027-5.82,16.62-4.411,3.979,1,10.3,2.592,13.164-.682C36.172,6.32,29.374,0,25.464,0,38.218,0,41.2,9.913,37.65,15.665c-2.956,4.774-13.232,4.183-18.052,2.8C10.526,15.892-.5,22.94.932,32.352A29.73,29.73,0,0,1,0,25.464a25.238,25.238,0,0,1,1.432-8.412h0Z" transform="translate(0 0)" fill-rule="evenodd" fill="url(#radial-gradient)"/>
    <path id="Контур_1957" data-name="Контур 1957" d="M24.661,0c3.91,0,10.708,6.32,5.752,11.959-2.887,3.274-9.185,1.682-13.164.682-5.593-1.41-14.119-.273-16.62,4.411A25.456,25.456,0,0,1,24.661,0Z" transform="translate(0.802 0)" fill-rule="evenodd" fill="url(#radial-gradient-2)"/>
    <path id="Контур_1958" data-name="Контур 1958" d="M46.4,12.025A25.477,25.477,0,0,0,38.129,2.09c4.706,5.184,3.683,10.14,1.887,13.277C36.333,21.8,24.4,23.075,16.053,20.71A10.821,10.821,0,0,0,3.139,26.349,12.229,12.229,0,0,0,5.39,40.9a24.881,24.881,0,0,0,6.48,4.661c-4.229-2.114-4.888-8.185-3.3-11.527A11.151,11.151,0,0,1,21.6,27.758c8.639,2.114,20.8.364,24.327-6.366a10.653,10.653,0,0,0,.477-9.367Z" transform="translate(2.159 2.662)" fill-rule="evenodd" fill="url(#radial-gradient-3)"/>
    <path id="Контур_1959" data-name="Контур 1959" d="M44.292,24.648a25.747,25.747,0,0,0,1.091-7.412A25.518,25.518,0,0,0,43,6.46a10.653,10.653,0,0,1-.477,9.367c-3.524,6.73-15.687,8.48-24.327,6.366A11.151,11.151,0,0,0,5.164,28.468c-1.591,3.365-.932,9.412,3.3,11.527A25.169,25.169,0,0,0,19.9,42.723c-8.73,0-9.776-7.639-6.5-10.958a9.353,9.353,0,0,1,9.481-2.387c7.321,2.092,17.779.955,21.008-4.683a9.823,9.823,0,0,0,.932-2.16c-.136.7-.318,1.41-.523,2.114Z" transform="translate(5.567 8.227)" fill-rule="evenodd" fill="url(#radial-gradient-4)"/>
    <path id="Контур_1960" data-name="Контур 1960" d="M15.8,33.719A25.483,25.483,0,0,0,40.718,13.53a9.822,9.822,0,0,1-.932,2.16c-3.228,5.638-13.687,6.775-21.008,4.683A9.353,9.353,0,0,0,9.3,22.761C6.024,26.08,7.069,33.719,15.8,33.719Z" transform="translate(9.664 17.231)" fill-rule="evenodd" fill="url(#radial-gradient-5)"/>
  </g>
  <path id="Контур_1961" data-name="Контур 1961" d="M37.736,5.99V19.813H35.895V7.741H29.552V19.813H27.71V5.99H37.736Zm7.98,0a4.351,4.351,0,0,1,4.456,4.456,4.351,4.351,0,0,1-4.456,4.433H42.533v4.934H40.692V5.99h5.025Zm0,7.184a2.523,2.523,0,0,0,1.887-.8,2.676,2.676,0,0,0,.75-1.933,2.657,2.657,0,0,0-.75-1.955,2.5,2.5,0,0,0-1.887-.773H42.533v5.456Zm18.029,4.8a7.218,7.218,0,0,1-10.163,0,6.966,6.966,0,0,1-2.069-5.07A7.1,7.1,0,0,1,58.676,5.74a6.9,6.9,0,0,1,5.07,2.092,6.9,6.9,0,0,1,2.092,5.07,6.9,6.9,0,0,1-2.092,5.07Zm-8.89-1.25a5.463,5.463,0,0,0,7.616,0A5.175,5.175,0,0,0,64,12.9a5.263,5.263,0,0,0-1.523-3.842,5.463,5.463,0,0,0-7.616,0A5.263,5.263,0,0,0,53.333,12.9,5.175,5.175,0,0,0,54.856,16.721Zm25.35-7.639A4.588,4.588,0,0,1,82,12.9a4.63,4.63,0,0,1-1.8,3.842,8.462,8.462,0,0,1-4.752,1.614v1.569h-1.8V18.358a8.462,8.462,0,0,1-4.752-1.614,4.63,4.63,0,0,1-1.8-3.842,4.588,4.588,0,0,1,1.8-3.82,8.134,8.134,0,0,1,4.752-1.614V5.9h1.8V7.468a8.134,8.134,0,0,1,4.752,1.614Zm-4.752,7.594a6.7,6.7,0,0,0,3.479-1.091A3.194,3.194,0,0,0,80.161,12.9a3.122,3.122,0,0,0-1.228-2.66,6.5,6.5,0,0,0-3.479-1.114ZM68.929,12.9a3.082,3.082,0,0,0,1.25,2.66,6.19,6.19,0,0,0,3.479,1.091V9.128a6.37,6.37,0,0,0-3.479,1.114A3.082,3.082,0,0,0,68.929,12.9ZM92.6,19.813V9.514L85.5,19.813H84.026V5.99h1.819V16.312L92.961,5.99h1.478V19.813ZM106.238,5.99V7.741h-4.07V19.813H100.35V7.741H96.28V5.99ZM111.99,9.7a4.777,4.777,0,0,1,3.547,1.5,5.151,5.151,0,0,1,1.455,3.683,5.151,5.151,0,0,1-1.455,3.683,4.777,4.777,0,0,1-3.547,1.5,4.185,4.185,0,0,1-3.729-1.933v5.638h-1.728V9.946h1.728v1.705A4.156,4.156,0,0,1,111.99,9.7Zm-.2,8.73a3.327,3.327,0,0,0,2.478-1.023,3.41,3.41,0,0,0,1-2.524,3.419,3.419,0,0,0-3.479-3.524,3.57,3.57,0,0,0-2.524,6.048A3.429,3.429,0,0,0,111.786,18.426Zm8.458-2.751a3.175,3.175,0,0,0,1.228,2.046,3.646,3.646,0,0,0,2.342.728,3.075,3.075,0,0,0,2.842-1.432l1.478.818a4.813,4.813,0,0,1-4.342,2.228,5.159,5.159,0,0,1-3.82-1.455,4.985,4.985,0,0,1-1.478-3.729,5.111,5.111,0,0,1,1.432-3.706A4.95,4.95,0,0,1,123.653,9.7a4.514,4.514,0,0,1,3.547,1.523,5.269,5.269,0,0,1,1.387,3.683,4.641,4.641,0,0,1-.068.773h-8.276Zm3.41-4.365a3.324,3.324,0,0,0-2.274.773,3.463,3.463,0,0,0-1.137,2.092h6.593a3.1,3.1,0,0,0-3.183-2.865Zm13.732-1.364h1.728v9.867h-1.728V15.7H132.27v4.115h-1.728V9.946h1.728v4.115h5.115V9.946Zm11.481,0h1.387v9.867h-1.705V12.879l-5.456,6.934h-1.387V9.946h1.705V16.88l5.456-6.934Zm10.822,0h1.728v9.867h-1.728V15.7h-5.115v4.115h-1.705V9.946h1.705v4.115h5.115V9.946Zm10.8,0v1.66h-4.752v8.207h-1.728V9.946h6.48Z" transform="translate(31.511 10.637)" fill="#fff"/>
</svg>
