<svg xmlns="http://www.w3.org/2000/svg" width="60" height="57.656" viewBox="0 0 60 57.656">
  <g id="team" transform="translate(0 -10.001)">
    <path id="Контур_2095" data-name="Контур 2095" d="M207.3,79.2a.879.879,0,0,0,.568.208c.025,0,.05,0,.075,0a.879.879,0,0,0,.6-.311l5.607-6.691a.879.879,0,0,0-1.347-1.129l-5.04,6.014-2.306-1.953a.879.879,0,1,0-1.136,1.341Z" transform="translate(-180.102 -53.816)" fill="#fff"/>
    <path id="Контур_2096" data-name="Контур 2096" d="M162.84,33.412a11.7,11.7,0,1,0-9.353-18.754.879.879,0,0,0,1.4,1.059A9.951,9.951,0,1,1,153.261,19a.879.879,0,0,0-1.692-.477,11.7,11.7,0,0,0,11.271,14.89Z" transform="translate(-133.418)" fill="#fff"/>
    <path id="Контур_2097" data-name="Контур 2097" d="M56.426,235.835c-.292-.166-.593-.337-.9-.523l-2.3-1.378a8.694,8.694,0,0,0,2.184-3.9,5.449,5.449,0,0,0,.145-1.218V223c0-2.646-1.991-5.034-5.074-6.083-2.7-.916-5.371-.491-6.811,1.046-1.477.26-3.547,1.431-3.477,5.965,0,.04,0,.073,0,.1v4.791a5.4,5.4,0,0,0,.145,1.214,8.675,8.675,0,0,0,2.184,3.9l-2.259,1.355c-.016.008-.033.019-.049.028-.3.183-.6.353-.892.517a10.281,10.281,0,0,0-2.354,1.636l-1.62-.971a8.7,8.7,0,0,0,2.186-3.9,5.5,5.5,0,0,0,.142-1.219v-5.818c0-2.645-1.99-5.032-5.07-6.081-2.695-.918-5.371-.493-6.812,1.044-1.478.259-3.549,1.43-3.477,5.964,0,.041,0,.074,0,.1v4.792a5.707,5.707,0,0,0,.142,1.219,8.689,8.689,0,0,0,2.187,3.9l-1.617.971a10.3,10.3,0,0,0-2.357-1.637c-.292-.166-.593-.336-.9-.521l-.023-.014-.007,0-2.268-1.359a8.688,8.688,0,0,0,2.185-3.9,5.419,5.419,0,0,0,.142-1.217V223c0-2.646-1.99-5.033-5.071-6.082-2.7-.918-5.373-.493-6.814,1.045-1.476.26-3.546,1.43-3.474,5.963,0,.041,0,.075,0,.1v4.791a5.417,5.417,0,0,0,.142,1.215,8.694,8.694,0,0,0,2.186,3.9l-2.3,1.378c-.308.185-.609.356-.9.521C1.736,236.877,0,237.864,0,240.738V245.9a1.5,1.5,0,0,0,.385,1.086,1.363,1.363,0,0,0,1.014.351h.126l.132,0H17.874v1.13a1.5,1.5,0,0,0,.387,1.089,1.363,1.363,0,0,0,1.014.352H19.4l.13,0h1.013a.879.879,0,1,0,0-1.758h-.912V243.3c0-1.778.776-2.289,2.687-3.373l.089-.05.371-.213,1.466.949,1.511.979.039.022c.105.061.2.125.288.186a1.745,1.745,0,0,0,.961.366,1.148,1.148,0,0,0,.559-.148l.121.473L26.011,246.2l0,.008a.907.907,0,0,0,.059.912l.6,1.02H24.6a.879.879,0,1,0,0,1.758H40.466l.13,0h.127a1.37,1.37,0,0,0,1.017-.352,1.5,1.5,0,0,0,.386-1.089v-1.13H58.474l.127,0a1.363,1.363,0,0,0,1.014-.352A1.493,1.493,0,0,0,60,245.9v-5.163c0-2.873-1.735-3.86-3.574-4.9Zm-38.767.259-2.234,1.445c-.092.055-.174.108-.247.156l-.48-.509-.025-.027-.8-.848q.13-.043.263-.093a8.3,8.3,0,0,0,1.956-1.065ZM8.443,219.668a.879.879,0,0,0,.619-.339c.892-1.158,2.99-1.464,5.1-.744,1.79.61,3.88,2.132,3.88,4.418v2.349h-.37c-.866,0-1.426-.483-2.267-1.271a5.778,5.778,0,0,0-4.171-1.99H9.662c-1.912,0-2.231,1.554-2.422,2.482-.219,1.067-.323,1.277-1.023,1.277H6.2v-1.821c0-.032,0-.075,0-.128-.042-2.675.712-4.1,2.243-4.234ZM6.3,229.642a3.658,3.658,0,0,1-.1-.822v-1.213h.015c2.194,0,2.552-1.744,2.745-2.681.222-1.078.313-1.078.7-1.078h1.575a4.1,4.1,0,0,1,2.969,1.515,4.928,4.928,0,0,0,3.468,1.745h.37v1.711a3.662,3.662,0,0,1-.1.824,7.56,7.56,0,0,1-4.427,4.927,3.941,3.941,0,0,1-1.4.29,3.943,3.943,0,0,1-1.4-.29A7.559,7.559,0,0,1,6.3,229.642Zm6.766,8.376-.285,1.117H11.461l-.284-1.112.946-1Zm-4.909-2.864a8.29,8.29,0,0,0,1.955,1.064q.134.05.264.094L9.069,237.7c-.073-.049-.156-.1-.248-.156l-2.233-1.444Zm.023,9.389.609,1.034H1.758v-4.839c0-1.78.775-2.292,2.684-3.376L4.9,237.1l2.98,1.927.035.021c.105.061.2.125.288.187a1.748,1.748,0,0,0,.966.375,1.137,1.137,0,0,0,.558-.15l.12.471-1.713,3.711A.91.91,0,0,0,8.179,244.543Zm5.232,1.034H10.829L9.9,244.006l1.437-3.113H12.9l1.437,3.113Zm4.463-2.276v2.276H15.452l.609-1.034a.91.91,0,0,0,.043-.9l-1.713-3.711.121-.474a1.14,1.14,0,0,0,.564.153,1.753,1.753,0,0,0,.97-.377c.089-.061.181-.124.285-.185l.033-.02,2.98-1.927.46.264a12.918,12.918,0,0,1,1.643,1.039C19.61,239.444,17.875,240.431,17.875,243.3ZM53.41,236.1l-2.23,1.444c-.094.055-.177.109-.251.158l-.48-.51-.032-.033-.795-.843c.087-.028.173-.06.263-.093a8.343,8.343,0,0,0,1.956-1.065ZM44.2,219.668a.878.878,0,0,0,.62-.339c.891-1.157,2.987-1.464,5.1-.745,1.791.611,3.882,2.133,3.882,4.419v2.348h-.373c-.866,0-1.425-.482-2.265-1.269a5.778,5.778,0,0,0-4.173-1.991H45.412c-1.913,0-2.231,1.554-2.421,2.483-.219,1.066-.322,1.275-1.02,1.275h-.019v-1.82c0-.032,0-.075,0-.127-.041-2.675.714-4.1,2.245-4.235Zm-2.143,9.975a3.665,3.665,0,0,1-.1-.823v-1.213h.019c2.191,0,2.549-1.744,2.741-2.68.221-1.078.313-1.078.7-1.078h1.575a4.1,4.1,0,0,1,2.971,1.515,4.924,4.924,0,0,0,3.468,1.745H53.8v1.711a3.7,3.7,0,0,1-.1.825,7.559,7.559,0,0,1-4.429,4.928,3.511,3.511,0,0,1-2.789,0,7.549,7.549,0,0,1-4.426-4.929Zm6.763,8.377-.284,1.116H47.212l-.284-1.112.946-1Zm-4.908-2.864a8.3,8.3,0,0,0,1.955,1.063c.089.033.177.064.264.094l-1.307,1.383c-.074-.048-.156-.1-.248-.156l-2.231-1.445Zm-8.372,3.505-2.23,1.445c-.094.054-.177.108-.251.156l-1.308-1.383c.087-.029.173-.06.263-.093a8.294,8.294,0,0,0,1.957-1.068Zm-9.214-16.429a.879.879,0,0,0,.619-.339c.891-1.156,2.988-1.462,5.1-.743,1.789.609,3.879,2.132,3.879,4.417v2.352h-.37c-.866,0-1.425-.482-2.265-1.27a5.778,5.778,0,0,0-4.173-1.991H27.537c-1.913,0-2.231,1.554-2.422,2.483-.219,1.067-.322,1.276-1.02,1.276h-.018v-1.824c0-.032,0-.075,0-.127-.042-2.675.713-4.1,2.246-4.234Zm-2.145,9.987a3.96,3.96,0,0,1-.1-.834v-1.21H24.1c2.192,0,2.549-1.744,2.742-2.68.221-1.079.313-1.079.7-1.079h1.575a4.1,4.1,0,0,1,2.971,1.516,4.924,4.924,0,0,0,3.467,1.745h.37v1.708a3.725,3.725,0,0,1-.1.826,7.576,7.576,0,0,1-4.425,4.928,3.505,3.505,0,0,1-2.795,0,7.569,7.569,0,0,1-4.425-4.919Zm6.764,8.365-.284,1.116H29.336l-.282-1.112.946-1Zm-4-.323c-.073-.048-.155-.1-.248-.155l-2.23-1.445,1.567-.942a8.379,8.379,0,0,0,1.959,1.069c.088.032.175.062.26.09Zm4.344,7.883H28.7l-.925-1.574,1.436-3.113h1.563l1.434,3.115Zm9.081,0H33.327l.609-1.034a.918.918,0,0,0,.046-.9l0-.008-1.71-3.711.121-.471a1.143,1.143,0,0,0,.561.152,1.757,1.757,0,0,0,.966-.373c.09-.062.183-.125.288-.186l.039-.022,2.977-1.928c.124.073.248.143.369.212l.095.054c1.909,1.084,2.684,1.595,2.684,3.37Zm3.573-3.586.6,1.02H42.126V243.3c0-2.87-1.736-3.855-3.573-4.9a0,0,0,0,1,0,0,12.758,12.758,0,0,1,1.641-1.037c.151-.087.306-.173.463-.265l2.978,1.927a.342.342,0,0,0,.034.022c.105.061.2.124.288.185a1.753,1.753,0,0,0,.968.369,1.146,1.146,0,0,0,.555-.146l.121.473-1.712,3.711s0,0,0,0a.9.9,0,0,0,.055.915Zm5.221,1.02H46.58L45.655,244l1.436-3.111h1.562L50.088,244Zm9.081,0H51.2l.608-1.034a.9.9,0,0,0,.07-.85c-.007-.018-.015-.036-.023-.054l-1.713-3.711.121-.472a1.144,1.144,0,0,0,.563.152,1.758,1.758,0,0,0,.969-.376c.089-.061.182-.124.287-.185l.035-.022,2.977-1.927c.157.091.312.178.463.265,1.91,1.084,2.685,1.595,2.685,3.375Z" transform="translate(0 -182.247)" fill="#fff"/>
  </g>
</svg>
