<svg xmlns="http://www.w3.org/2000/svg" width="58.604" height="42.35" viewBox="0 0 58.604 42.35">
  <g id="Сгруппировать_2981" data-name="Сгруппировать 2981" transform="translate(15285 -5478)">
    <g id="Сгруппировать_2972" data-name="Сгруппировать 2972" transform="translate(-15256.639 5478)">
      <g id="Сгруппировать_2971" data-name="Сгруппировать 2971">
        <path id="Контур_2006" data-name="Контур 2006" d="M249.009,71h-.086a1.145,1.145,0,0,0-1.145,1.142v0a1.145,1.145,0,0,0,1.142,1.145h.086a1.145,1.145,0,0,0,1.145-1.142v0A1.145,1.145,0,0,0,249.009,71Z" transform="translate(-247.778 -71.001)" fill="#fff"/>
      </g>
    </g>
    <g id="Сгруппировать_2974" data-name="Сгруппировать 2974" transform="translate(-15285 5478.041)">
      <g id="Сгруппировать_2973" data-name="Сгруппировать 2973">
        <path id="Контур_2007" data-name="Контур 2007" d="M57.39,78.425A8.257,8.257,0,0,0,51.6,72.552c-2.9-.791-11-1.082-17.284-1.187a1.145,1.145,0,1,0-.038,2.289c8.694.145,14.632.539,16.721,1.107a5.963,5.963,0,0,1,4.172,4.247C56.3,83.275,56.315,92.4,56.315,92.491s-.014,9.216-1.139,13.484A5.963,5.963,0,0,1,51,110.221c-4.195,1.142-21.526,1.156-21.7,1.156s-17.506-.014-21.7-1.156a5.963,5.963,0,0,1-4.172-4.247C2.3,101.707,2.289,92.582,2.289,92.491S2.3,83.275,3.428,79.007A5.963,5.963,0,0,1,7.6,74.761c2.134-.581,8.248-.977,17.215-1.115a1.145,1.145,0,1,0-.035-2.289c-6.475.1-14.816.388-17.78,1.195a8.257,8.257,0,0,0-5.786,5.873C.014,82.978,0,92.1,0,92.491S.014,102,1.214,106.557A8.257,8.257,0,0,0,7,112.43c4.488,1.222,21.577,1.236,22.3,1.236s17.815-.014,22.3-1.236a8.257,8.257,0,0,0,5.786-5.873C58.59,102,58.6,92.877,58.6,92.491S58.59,82.978,57.39,78.425Z" transform="translate(0 -71.357)" fill="#fff"/>
      </g>
    </g>
    <g id="Сгруппировать_2980" data-name="Сгруппировать 2980" transform="translate(-15262.327 5489.963)">
      <g id="Сгруппировать_2979" data-name="Сгруппировать 2979">
        <path id="Контур_2010" data-name="Контур 2010" d="M214,183.916,199.8,175.675a1.145,1.145,0,0,0-1.719.99v16.482a1.145,1.145,0,0,0,1.719.99L214,185.9a1.145,1.145,0,0,0,0-1.98Zm-13.623,7.243V178.653l10.769,6.253Z" transform="translate(-198.084 -175.52)" fill="#fff"/>
      </g>
    </g>
  </g>
</svg>
