<svg xmlns="http://www.w3.org/2000/svg" width="35.404" height="28.685" viewBox="0 0 35.404 28.685">
  <path id="Объединение_3" data-name="Объединение 3" d="M17.74,28.685h-.011c-.36-.007-8.833-.142-11.535-.417l-.081-.012c-.085-.016-.21-.031-.353-.049A5.7,5.7,0,0,1,1.816,26.32,8.963,8.963,0,0,1,.261,21.98v-.02C.25,21.834,0,18.814,0,15.782V12.948C0,9.916.25,6.9.26,6.77l0-.038A9.461,9.461,0,0,1,1.812,2.416,5.459,5.459,0,0,1,5.6.443C5.665.435,5.72.429,5.77.421L5.833.414C10.556.05,17.624,0,17.695,0h.013c.071,0,7.139.05,11.82.414l.062.007c.053.008.112.016.177.023a5.6,5.6,0,0,1,3.815,1.914c1.232,1.379,1.531,4.09,1.561,4.4V6.77c.011.127.26,3.146.26,6.178v2.834c0,3.032-.25,6.05-.26,6.178l0,.038a9.481,9.481,0,0,1-1.548,4.317,5.332,5.332,0,0,1-3.761,1.923l-.2.024-.061.008c-4.682.364-11.749.413-11.821.414ZM6.012,2.626l-.169.021a3.483,3.483,0,0,0-2.5,1.266A7.212,7.212,0,0,0,2.324,6.988c-.021.271-.251,3.158-.251,5.96v2.834c0,2.845.235,5.769.252,5.969a6.665,6.665,0,0,0,1,3.044l.018.021A3.745,3.745,0,0,0,6,26c.153.019.3.037.431.061,2.62.26,10.97.4,11.322.4.313,0,7.115-.056,11.641-.406.068-.009.142-.017.222-.027a3.311,3.311,0,0,0,2.448-1.216,7.349,7.349,0,0,0,1.018-3.074c.023-.264.251-3.154.251-5.96V12.948c0-2.851-.236-5.781-.251-5.971a6.812,6.812,0,0,0-1-3.088l-.008-.009A3.608,3.608,0,0,0,29.53,2.648c-.065-.008-.126-.015-.182-.023-4.552-.352-11.4-.4-11.647-.406S10.6,2.274,6.012,2.626ZM13.9,19.815a1.55,1.55,0,0,1-.7-1.319V9.418a1.546,1.546,0,0,1,.7-1.322,1.346,1.346,0,0,1,1.422-.027l7.823,4.578a1.589,1.589,0,0,1-.009,2.7l-7.822,4.5a1.349,1.349,0,0,1-1.418-.035Zm1.376-2.461,5.846-3.362-5.846-3.422Z" fill="#f61836"/>
</svg>
