<svg data-name="Сгруппировать 3072" xmlns="http://www.w3.org/2000/svg" width="81.071" height="81.071" viewBox="0 0 81.071 81.071"><path d="M0 81.071h81.071V0H0z" fill="#c80000" fill-rule="evenodd"/><path data-name="Объединение 74" d="M41.748 42.028a9.3 9.3 0 0 1 18.064-2.889l.012.037a.22.22 0 0 1 .009.067.266.266 0 0 1-.265.264h-4.319a.27.27 0 0 1-.221-.115l-.027-.049a4.469 4.469 0 0 0-4-2.471 4.877 4.877 0 0 0-4.731 5.135c0 2.662 1.817 5.23 4.757 5.23a4.5 4.5 0 0 0 3.959-2.409.265.265 0 0 1 .222-.118h4.31a.262.262 0 0 1 .25.349c0 .007 0 .014-.007.022a9.055 9.055 0 0 1-8.691 6.1 9.174 9.174 0 0 1-9.322-9.153zm-19.178 0a9.1 9.1 0 0 1 9.27-9.1 9.1 9.1 0 0 1 8.789 6.211c0 .012.008.024.012.037a.264.264 0 0 1-.256.332H36.07a.273.273 0 0 1-.222-.115l-.026-.049a4.467 4.467 0 0 0-4-2.471 4.877 4.877 0 0 0-4.734 5.134c0 2.662 1.817 5.23 4.756 5.23a4.5 4.5 0 0 0 3.959-2.409.267.267 0 0 1 .222-.118h4.31a.265.265 0 0 1 .251.349l-.008.022a9.056 9.056 0 0 1-8.691 6.1 9.174 9.174 0 0 1-9.317-9.153zm50 8.817a.266.266 0 0 1-.247-.16v-.006l-.753-2.211a.267.267 0 0 0-.247-.164h-5.762a.27.27 0 0 0-.247.164l-.813 2.218a.266.266 0 0 1-.244.161h-4.273a.266.266 0 0 1-.268-.264.241.241 0 0 1 .019-.1v-.012l6.883-17.037.008-.019a.268.268 0 0 1 .244-.155h3.2a.264.264 0 0 1 .237.149l.014.034 6.8 17.025.014.036a.252.252 0 0 1 .013.08.265.265 0 0 1-.265.264zM68.316 39.09l-1.638 5.438-.007.022a.107.107 0 0 0 0 .031.156.156 0 0 0 .158.156h3.281a.155.155 0 0 0 .157-.156.223.223 0 0 0 0-.029l-.011-.031-1.629-5.425a.164.164 0 0 0-.159-.122.153.153 0 0 0-.152.116zM18.224 50.848a.267.267 0 0 1-.247-.16v-.006l-.748-2.213a.267.267 0 0 0-.247-.164h-5.767a.27.27 0 0 0-.247.164l-.813 2.218a.264.264 0 0 1-.243.161H5.638a.266.266 0 0 1-.268-.264.241.241 0 0 1 .019-.1v-.012l6.881-17.038.01-.019a.268.268 0 0 1 .243-.155h3.2a.264.264 0 0 1 .237.149l.014.034 6.8 17.025.014.036a.222.222 0 0 1 .014.08.264.264 0 0 1-.264.264zM13.97 39.09l-1.638 5.438-.007.022a.107.107 0 0 0 0 .031.156.156 0 0 0 .158.156h3.283a.156.156 0 0 0 .158-.156.223.223 0 0 0 0-.029l-.011-.031-1.632-5.425a.163.163 0 0 0-.158-.122.154.154 0 0 0-.153.116z" fill="#fff"/></svg>