<svg xmlns="http://www.w3.org/2000/svg" width="213.055" height="81.07" viewBox="0 0 213.055 81.07"><defs><linearGradient id="a" x1=".723" y1=".284" x2=".299" y2="1" gradientUnits="objectBoundingBox"><stop offset="0" stop-color="#b53a86"/><stop offset="1" stop-color="#743083"/></linearGradient></defs><path data-name="Контур 2115" d="M195.723 51.441c-1.424 4.241-2.985 8.451-4.482 12.672 3.006-.01 6.011 0 9.017 0-1.529-4.22-2.985-8.462-4.535-12.672zm13.07-1.99v-3.036h1.288a2.012 2.012 0 0 1 .712.084.72.72 0 0 1 .356.283.945.945 0 0 1 .126.482.8.8 0 0 1-.2.566 1 1 0 0 1-.6.283 1.162 1.162 0 0 1 .325.251 3.309 3.309 0 0 1 .346.492l.377.6h-.733l-.44-.67a5.948 5.948 0 0 0-.325-.44.5.5 0 0 0-.188-.126 1.068 1.068 0 0 0-.3-.031h-.126v1.267h-.618zm1.225-4.556a3.036 3.036 0 0 1 2.147 5.184 3.036 3.036 0 1 1-2.147-5.184zm1.854 1.183a2.568 2.568 0 0 0-1.854-.775 2.628 2.628 0 0 0-2.618 2.629 2.61 2.61 0 0 0 2.618 2.618 2.614 2.614 0 0 0 1.854-4.472zm-2.461 1.613h.45a2.829 2.829 0 0 0 .555-.031.417.417 0 0 0 .168-.126.422.422 0 0 0 .063-.23.382.382 0 0 0-.084-.251.327.327 0 0 0-.23-.115 3.994 3.994 0 0 0-.45-.01h-.471zM75.676 81.068v-2.817h-1.005v-.566h2.691v.566h-.991v2.817zm2.126 0v-3.383h1.026l.607 2.3.6-2.3h1.026v3.383h-.63v-2.67l-.67 2.67h-.66l-.67-2.67v2.67h-.628zm115.3-35.8c1.759-.01 3.529-.031 5.3.021 3.781 10.284 7.739 20.505 11.562 30.779-1.717 0-3.425-.01-5.142 0-.963-2.534-1.958-5.069-2.911-7.6-4.105-.031-8.21 0-12.316-.021-.953 2.545-1.948 5.069-2.911 7.624-1.728 0-3.466 0-5.194-.01 3.854-10.274 7.75-20.526 11.614-30.789zm-47.964-.031c1.414.031 2.838.031 4.252.01 3.508 7.216 6.87 14.5 10.41 21.71 3.425-7.237 6.9-14.463 10.326-21.7h4.345c1.246 10.263 2.545 20.526 3.739 30.8-1.623.01-3.236.01-4.849 0-.838-7.226-1.728-14.442-2.587-21.668q-4.493 9.127-8.9 18.285-2.058.016-4.116 0c-2.974-6.064-5.844-12.19-8.954-18.191-.859 7.195-1.749 14.379-2.576 21.563-1.623.021-3.246.021-4.87.021 1.257-10.274 2.482-20.558 3.781-30.831zm-16.494.021h4.827q.016 15.395 0 30.81h-4.828v-30.81zm-30.506 6.1c4.105-6.022 12.661-8.148 19.207-5.037a14.841 14.841 0 0 1 5.351 4.158c-1.236 1.016-2.5 1.99-3.76 2.964a11.161 11.161 0 0 0-7.655-3.833 10.533 10.533 0 0 0-9.97 5.844 11.549 11.549 0 0 0 .22 10.986 10.511 10.511 0 0 0 7.792 5.31 10.783 10.783 0 0 0 9.739-3.938c1.236 1.026 2.5 2 3.76 3-4.985 6.6-15.426 7.572-21.751 2.367-6.524-5.016-7.8-15.248-2.932-21.814z"/><path data-name="Контур 2116" d="M.325 35.418A40.334 40.334 0 0 1 19.416 5.969a20.369 20.369 0 0 0-6.158 14.986c0 8.263 2.9 16.306 7.289 23.218C16.1 50.6 11.541 56.971 7.121 63.432a40.015 40.015 0 0 1-6.8-28.014zM31.009 1.257a39.131 39.131 0 0 1 19.584-.021q-9.881 14.169-19.8 28.318c-2.3 3.131-4.325 6.482-6.807 9.478-3.435-5.121-6.074-10.933-6.6-17.144a21.285 21.285 0 0 1 2.847-13.039 18.866 18.866 0 0 1 10.776-7.592zM9.425 66.532c4.5-6.336 8.9-12.745 13.415-19.081C31.3 58.395 43.681 66.542 57.389 68.93a35.76 35.76 0 0 0 11.949.094A37.3 37.3 0 0 1 59.2 76.565a41.013 41.013 0 0 1-26.223 3.822A40.264 40.264 0 0 1 9.425 66.532zM52.2 1.7a40.5 40.5 0 0 1 28.847 39.572c-.073 4.88-1.183 9.97-4.315 13.834q-11.263-24.49-22.6-48.949A41.906 41.906 0 0 1 52.2 1.7zM26.422 42.267C34.58 30.674 42.634 19 50.855 7.446 57.819 24.684 64.7 41.942 71.664 59.17c-6.189 2.807-13.321 2.136-19.7.377a53.067 53.067 0 0 1-25.542-17.28z" transform="translate(.002)" fill="url(#a)"/></svg>