<svg xmlns="http://www.w3.org/2000/svg" width="264.607" height="81" viewBox="0 0 264.607 81"><g data-name="Сгруппировать 3074" transform="translate(-.4 .062)"><circle data-name="Эллипс 217" cx="40.5" cy="40.5" r="40.5" transform="translate(.4 -.062)" fill="#0261fd"/><g data-name="Сгруппировать 3073" fill="#fff"><path data-name="Контур 2111" d="M45.786 60.569H42.91v10.45h-4.22V46.635h4.22v10.249h2.328l7.168-10.249h5.192l-8.374 11.673 9.111 12.711h-5.091z"/><path data-name="Контур 2112" d="M42.93 34.627h-4.22V13.659H27.974v20.967h-4.22V10.243H42.93z"/><path data-name="Контур 2113" d="M50.391 45.281l-4.22 6.368v-9.49H35.268v10.819h-4.237V28.592h4.237v10.149h10.9V28.592h4.22z"/></g><path data-name="Контур 2114" d="M107.081 26.641h-2.551V14.51h-6.488v12.131h-2.551V12.533h11.59zm11.171-3.285h-5.708l-1.194 3.285h-2.663l5.567-14.108h2.3l5.578 14.108h-2.675zm-4.99-1.977h4.272l-2.136-5.852zm22.134-8.846v14.108h-2.551V14.51h-4.514l-.263 5.455a15.021 15.021 0 0 1-.653 3.968 4.018 4.018 0 0 1-1.453 2.059 4.457 4.457 0 0 1-2.551.649h-.648v-1.977l.4-.029a2.033 2.033 0 0 0 1.361-.59 3.4 3.4 0 0 0 .729-1.553 18.055 18.055 0 0 0 .349-3.062l.283-6.9zm11.344 10.823h-5.709l-1.194 3.285h-2.663l5.567-14.108h2.3l5.578 14.108h-2.675zm-4.99-1.977h4.272l-2.136-5.852zm19.806-6.87h-4.6V26.64h-2.537V14.51h-4.555v-1.977h11.691zm8.8 8.846h-5.707l-1.195 3.286h-2.662l5.567-14.108h2.3l5.578 14.108h-2.675zm-4.99-1.977h4.272l-2.136-5.852zm-58.244 26.151h-2.548V41.27h-6.593v6.259H95.42V33.421h2.561v5.872h6.593v-5.872h2.551zm11.293-3.28h-5.71l-1.194 3.28h-2.662l5.567-14.108h2.3l5.575 14.108h-2.672zm-4.991-1.981h4.272l-2.136-5.853zm22.134-8.847v14.108h-2.551V35.398h-4.514l-.263 5.451a15.021 15.021 0 0 1-.656 3.972 4.018 4.018 0 0 1-1.45 2.059 4.457 4.457 0 0 1-2.55.649h-.648v-1.98l.4-.029a2.033 2.033 0 0 0 1.361-.59 3.4 3.4 0 0 0 .729-1.553 18.055 18.055 0 0 0 .358-3.058l.283-6.9zm14.674 7.422a8.337 8.337 0 0 1-.749 3.638 5.5 5.5 0 0 1-2.141 2.4 6.523 6.523 0 0 1-6.4 0 5.585 5.585 0 0 1-2.168-2.385 8.081 8.081 0 0 1-.774-3.575v-.795a8.267 8.267 0 0 1 .764-3.643 5.573 5.573 0 0 1 2.16-2.417 6.069 6.069 0 0 1 3.194-.838 6.124 6.124 0 0 1 3.194.828 5.506 5.506 0 0 1 2.151 2.384 8.251 8.251 0 0 1 .769 3.619zm-2.558-.736a5.965 5.965 0 0 0-.926-3.595 3.076 3.076 0 0 0-2.627-1.25 3.066 3.066 0 0 0-2.6 1.245 5.854 5.854 0 0 0-.956 3.522v.814a5.921 5.921 0 0 0 .946 3.595 3.092 3.092 0 0 0 2.627 1.269 3.058 3.058 0 0 0 2.617-1.24 6.045 6.045 0 0 0 .919-3.624zm14.37-4.709h-6.8v12.131h-2.556V33.421h9.353zm13.041 5.445a8.337 8.337 0 0 1-.749 3.638 5.5 5.5 0 0 1-2.141 2.4 6.523 6.523 0 0 1-6.4 0 5.585 5.585 0 0 1-2.166-2.388 8.081 8.081 0 0 1-.774-3.575v-.792a8.267 8.267 0 0 1 .764-3.643 5.573 5.573 0 0 1 2.155-2.417 6.069 6.069 0 0 1 3.2-.838 6.124 6.124 0 0 1 3.194.828 5.506 5.506 0 0 1 2.151 2.384 8.251 8.251 0 0 1 .766 3.619zm-2.561-.736a5.965 5.965 0 0 0-.926-3.595 3.076 3.076 0 0 0-2.624-1.25 3.066 3.066 0 0 0-2.6 1.245 5.854 5.854 0 0 0-.956 3.522v.814a5.921 5.921 0 0 0 .946 3.595 3.092 3.092 0 0 0 2.627 1.269 3.058 3.058 0 0 0 2.617-1.24 6.045 6.045 0 0 0 .916-3.624zm4.95 7.422V33.421h5.051a6.373 6.373 0 0 1 3.806.959 3.319 3.319 0 0 1 1.302 2.859 2.954 2.954 0 0 1-.547 1.744 3.5 3.5 0 0 1-1.6 1.2 3.265 3.265 0 0 1 1.849 1.166 3.3 3.3 0 0 1 .653 2.059 3.682 3.682 0 0 1-1.331 3.052 5.969 5.969 0 0 1-3.812 1.069zm2.561-6.366v4.386h2.839a2.843 2.843 0 0 0 1.883-.569 1.953 1.953 0 0 0 .678-1.582q0-2.19-2.348-2.238zm0-1.8h2.51a3 3 0 0 0 1.868-.518 1.744 1.744 0 0 0 .673-1.468 1.763 1.763 0 0 0-.623-1.512 3.251 3.251 0 0 0-1.938-.465h-2.49zm12.979-.545h3.017a6.932 6.932 0 0 1 2.824.533 4.052 4.052 0 0 1 1.832 1.512 4.108 4.108 0 0 1 .628 2.267 3.979 3.979 0 0 1-1.4 3.178 5.754 5.754 0 0 1-3.821 1.221h-5.641V33.421h2.561zm12.309 8.711h-2.549V33.421h2.551zm-12.309-6.734v4.754h3.006a2.862 2.862 0 0 0 2.019-.669 2.3 2.3 0 0 0 .724-1.777 2.107 2.107 0 0 0-.709-1.676 2.967 2.967 0 0 0-1.964-.636zm20.342-2.277l3.1-5.1h2.956l-4.454 7 4.555 7.112h-2.986l-3.168-5.174-3.185 5.173h-2.976l4.57-7.112-4.464-7h2.956zM99.783 62.371h-1.741v6.046h-2.551V54.309h2.551v5.93h1.407l4.332-5.93h3.138l-5.061 6.754 5.507 7.354h-3.078zm20.282-.639a8.337 8.337 0 0 1-.749 3.638 5.5 5.5 0 0 1-2.141 2.4 6.088 6.088 0 0 1-3.2.838 6.1 6.1 0 0 1-3.194-.838 5.585 5.585 0 0 1-2.166-2.388 8.081 8.081 0 0 1-.774-3.575v-.795a8.267 8.267 0 0 1 .764-3.643 5.573 5.573 0 0 1 2.152-2.42 6.069 6.069 0 0 1 3.194-.838 6.124 6.124 0 0 1 3.194.828 5.506 5.506 0 0 1 2.151 2.384 8.251 8.251 0 0 1 .769 3.619zm-2.561-.736a5.965 5.965 0 0 0-.926-3.595 3.076 3.076 0 0 0-2.627-1.25 3.066 3.066 0 0 0-2.6 1.245 5.854 5.854 0 0 0-.957 3.522v.814a5.921 5.921 0 0 0 .946 3.595 3.092 3.092 0 0 0 2.634 1.268 3.058 3.058 0 0 0 2.617-1.24 6.045 6.045 0 0 0 .916-3.624zm16.648 7.422H131.6v-6.26h-6.59v6.259h-2.56V54.309h2.561v5.872h6.59v-5.872h2.551zm14.107-4.593a5.012 5.012 0 0 1-1.742 3.524 6.108 6.108 0 0 1-4.043 1.262 5.944 5.944 0 0 1-3.1-.8 5.325 5.325 0 0 1-2.07-2.272 7.9 7.9 0 0 1-.759-3.42v-1.318a7.957 7.957 0 0 1 .739-3.517 5.407 5.407 0 0 1 2.121-2.345 6.117 6.117 0 0 1 3.194-.824 5.859 5.859 0 0 1 3.928 1.264 5.194 5.194 0 0 1 1.731 3.58h-2.551a3.411 3.411 0 0 0-.926-2.195 3.15 3.15 0 0 0-2.181-.673 3.04 3.04 0 0 0-2.566 1.169 5.653 5.653 0 0 0-.916 3.428v1.251a5.988 5.988 0 0 0 .855 3.491 2.88 2.88 0 0 0 2.505 1.2 3.412 3.412 0 0 0 2.267-.649 3.319 3.319 0 0 0 .962-2.161zm7.426-2.141l2.956-7.374h2.843l-5.132 11.7-.466.882a3.512 3.512 0 0 1-3.28 1.725l-1.053-.059.02-1.957a6.369 6.369 0 0 0 .86.039 1.58 1.58 0 0 0 1.539-.883l.526-1.181-5.039-10.267h2.794zm18.631-7.375v14.108h-2.551V56.286h-4.515l-.263 5.455a15.02 15.02 0 0 1-.653 3.968 4.018 4.018 0 0 1-1.453 2.059 4.457 4.457 0 0 1-2.551.649h-.648V66.44l.4-.029a2.033 2.033 0 0 0 1.361-.59 3.4 3.4 0 0 0 .731-1.552 18.056 18.056 0 0 0 .349-3.062l.283-6.9zm5.432 5.4h3.016a6.932 6.932 0 0 1 2.824.533 4.052 4.052 0 0 1 1.833 1.507 4.108 4.108 0 0 1 .628 2.267 3.979 3.979 0 0 1-1.4 3.178 5.754 5.754 0 0 1-3.821 1.221h-5.641V54.309h2.561zm0 1.977v4.757h3.006a2.862 2.862 0 0 0 2.019-.669 2.3 2.3 0 0 0 .724-1.777 2.106 2.106 0 0 0-.709-1.676 2.967 2.967 0 0 0-1.964-.636zm20.008-5.4h-4.6v12.131h-2.536V56.286h-4.555v-1.977h11.692zm8.8 8.846h-5.709l-1.194 3.285h-2.662l5.567-14.108h2.3l5.578 14.108h-2.672zm-4.99-1.977h4.272l-2.136-5.852zm22.073 5.261h-2.551v-6.258h-6.59v6.259h-2.561V54.309h2.561v5.872h6.59v-5.872h2.551zm13.216-12.131h-4.6v12.132h-2.541V56.286h-4.555v-1.977h11.692zm13.247 5.445a8.337 8.337 0 0 1-.749 3.638 5.494 5.494 0 0 1-2.141 2.4 6.523 6.523 0 0 1-6.4 0 5.585 5.585 0 0 1-2.166-2.388 8.08 8.08 0 0 1-.774-3.575v-.795a8.267 8.267 0 0 1 .764-3.643 5.573 5.573 0 0 1 2.156-2.417 6.537 6.537 0 0 1 6.387-.01 5.506 5.506 0 0 1 2.151 2.384 8.251 8.251 0 0 1 .769 3.619zm-2.561-.736a5.965 5.965 0 0 0-.926-3.595 3.357 3.357 0 0 0-5.223 0 5.854 5.854 0 0 0-.957 3.522v.814a5.921 5.921 0 0 0 .946 3.595 3.092 3.092 0 0 0 2.627 1.269 3.058 3.058 0 0 0 2.617-1.24 6.045 6.045 0 0 0 .916-3.624zm4.946 7.422V54.309h5.051a6.373 6.373 0 0 1 3.806.959 3.319 3.319 0 0 1 1.306 2.858 2.954 2.954 0 0 1-.547 1.744 3.5 3.5 0 0 1-1.6 1.2 3.265 3.265 0 0 1 1.847 1.168 3.3 3.3 0 0 1 .653 2.059 3.682 3.682 0 0 1-1.329 3.052 5.969 5.969 0 0 1-3.811 1.066zm2.561-6.366v4.389h2.844a2.842 2.842 0 0 0 1.883-.569 1.953 1.953 0 0 0 .678-1.582q0-2.19-2.348-2.238zm0-1.8h2.51a3 3 0 0 0 1.868-.518 1.744 1.744 0 0 0 .673-1.468 1.764 1.764 0 0 0-.625-1.515 3.251 3.251 0 0 0-1.938-.465h-2.49z" fill="#0261fd"/></g></svg>