<svg xmlns="http://www.w3.org/2000/svg" width="72.119" height="72.119" viewBox="0 0 72.119 72.119"><path data-name="Контур 2378" d="M71.878 10.097l-3.606-4.808a1.245 1.245 0 0 0-1.923 0l-3.606 4.808a1.2 1.2 0 0 0-.24.721v56.493a4.808 4.808 0 1 0 9.616 0V10.818a1.2 1.2 0 0 0-.241-.721zm-2.164 57.215a2.404 2.404 0 0 1-4.808 0v-2.4h4.808zm0-4.808h-4.811v-2.4h4.808zm0-4.808h-4.811V14.424h4.808zm0-45.675h-4.811v-.8l2.4-3.2 2.4 3.2z" fill="#fff"/><path data-name="Контур 2379" d="M58.9 0H6.01a1.2 1.2 0 0 0-1.2 1.2v20.556A6.021 6.021 0 0 0 0 27.646v38.463a6.017 6.017 0 0 0 6.01 6.01h43.271a1.208 1.208 0 0 0 .85-.352l9.616-9.616a1.2 1.2 0 0 0 .24-.352c.017-.037.026-.073.04-.112a1.206 1.206 0 0 0 .063-.313c0-.025.014-.048.014-.073V1.2A1.2 1.2 0 0 0 58.9 0zM36.06 66.109a3.606 3.606 0 0 1-3.606 3.606H6.01a3.606 3.606 0 0 1-3.61-3.606V27.646a3.606 3.606 0 0 1 3.61-3.606h26.444a3.606 3.606 0 0 1 3.606 3.606zM20.434 14.424v7.212H12.02v-7.212zm-8.414-2.4V7.212h8.414v4.808zm19.232 2.4v7.212h-8.414v-7.212zm-8.414-2.4V7.212h8.414v4.808zm10.818 9.736v-7.336h8.414v16.828h-3.606v-3.606a6.021 6.021 0 0 0-4.808-5.89zm0-9.736V7.212h8.414v4.808zm16.828 56V62.5H56zM57.7 60.1h-8.419a1.2 1.2 0 0 0-1.2 1.2v8.414H37.23a5.947 5.947 0 0 0 1.233-3.606V33.656h15.626a1.2 1.2 0 0 0 1.2-1.2V6.01a1.2 1.2 0 0 0-1.2-1.2H10.818a1.2 1.2 0 0 0-1.2 1.2v15.626h-2.4V2.4H57.7zm-4.813-45.676v16.828h-8.414V14.424zm-8.414-2.4V7.212h8.414v4.808z" fill="#fff"/><path data-name="Контур 2380" d="M32.454 27.646H6.008a1.2 1.2 0 0 0-1.2 1.2v7.212a1.2 1.2 0 0 0 1.2 1.2h26.446a1.2 1.2 0 0 0 1.2-1.2v-7.212a1.2 1.2 0 0 0-1.2-1.2zm-1.2 7.212H7.208v-4.812h24.04z" fill="#fff"/><path data-name="Контур 2381" d="M33.656 49.281h-7.214a1.2 1.2 0 0 0-1.2 1.2v14.424a1.2 1.2 0 0 0 1.2 1.2h7.212a1.2 1.2 0 0 0 1.2-1.2V50.481a1.2 1.2 0 0 0-1.198-1.2zm-1.2 14.424h-4.814V51.681h4.808z" fill="#fff"/><path data-name="Контур 2382" d="M33.656 39.666h-7.214a1.2 1.2 0 0 0-1.2 1.2v4.808a1.2 1.2 0 0 0 1.2 1.2h7.212a1.2 1.2 0 0 0 1.2-1.2v-4.808a1.2 1.2 0 0 0-1.198-1.2zm-1.2 4.808h-4.814v-2.4h4.808z" fill="#fff"/><path data-name="Контур 2383" d="M22.838 49.281h-7.214a1.2 1.2 0 0 0-1.2 1.2v4.808a1.2 1.2 0 0 0 1.2 1.2h7.212a1.2 1.2 0 0 0 1.2-1.2v-4.808a1.2 1.2 0 0 0-1.198-1.2zm-1.2 4.808h-4.814v-2.4h4.808z" fill="#fff"/><path data-name="Контур 2384" d="M22.838 39.666h-7.214a1.2 1.2 0 0 0-1.2 1.2v4.808a1.2 1.2 0 0 0 1.2 1.2h7.212a1.2 1.2 0 0 0 1.2-1.2v-4.808a1.2 1.2 0 0 0-1.198-1.2zm-1.2 4.808h-4.814v-2.4h4.808z" fill="#fff"/><path data-name="Контур 2385" d="M12.02 49.281H4.806a1.2 1.2 0 0 0-1.2 1.2v4.808a1.2 1.2 0 0 0 1.2 1.2h7.212a1.2 1.2 0 0 0 1.2-1.2v-4.808a1.2 1.2 0 0 0-1.198-1.2zm-1.2 4.808H6.006v-2.4h4.808z" fill="#fff"/><path data-name="Контур 2386" d="M12.02 39.666H4.806a1.2 1.2 0 0 0-1.2 1.2v4.808a1.2 1.2 0 0 0 1.2 1.2h7.212a1.2 1.2 0 0 0 1.2-1.2v-4.808a1.2 1.2 0 0 0-1.198-1.2zm-1.2 4.808H6.006v-2.4h4.808z" fill="#fff"/><path data-name="Контур 2387" d="M22.838 58.897h-7.214a1.2 1.2 0 0 0-1.2 1.2v4.808a1.2 1.2 0 0 0 1.2 1.2h7.212a1.2 1.2 0 0 0 1.2-1.2v-4.808a1.2 1.2 0 0 0-1.198-1.2zm-1.2 4.808h-4.814v-2.4h4.808z" fill="#fff"/><path data-name="Контур 2388" d="M12.02 58.897H4.806a1.2 1.2 0 0 0-1.2 1.2v4.808a1.2 1.2 0 0 0 1.2 1.2h7.212a1.2 1.2 0 0 0 1.2-1.2v-4.808a1.2 1.2 0 0 0-1.198-1.2zm-1.2 4.808H6.006v-2.4h4.808z" fill="#fff"/></svg>