<svg xmlns="http://www.w3.org/2000/svg" width="64" height="76.806" viewBox="0 0 64 76.806"><g fill="#fff"><path data-name="Контур 2389" d="M53.76 71.681v5.12h2.56v-4.672a11.3 11.3 0 0 0 .729-12.624l-2.2 1.309a8.733 8.733 0 0 1-.795 10.047 1.281 1.281 0 0 0-.3.819zm0 0"/><path data-name="Контур 2390" d="M47.357 30.722h-2.56a1.28 1.28 0 1 1-2.56 0h-2.56a3.84 3.84 0 1 0 7.68 0zm0 0"/><path data-name="Контур 2391" d="M33.024 12.45a12.4 12.4 0 0 1 9.83-4.768h1.33a13.382 13.382 0 0 1 1.651.106 1.206 1.206 0 0 0 .169.034 12.161 12.161 0 0 1 8.848 5.878 10.936 10.936 0 0 1 1.468 5.5v3.441l-.366.552a4.486 4.486 0 0 0-4.114-2.712h-.056a20.187 20.187 0 0 1-1.893-5.367 1.28 1.28 0 0 0-2.239-.574 20.851 20.851 0 0 1-5.248 4.119 21.765 21.765 0 0 1-4.042 1.856 1.209 1.209 0 0 0-.168.044c-.456.151-.925.293-1.407.421l.657 2.475a27.49 27.49 0 0 0 1.242-.368 1.893 1.893 0 0 1 1.2 3.072c-.017.021-.117.141-.128.16a1.931 1.931 0 0 1-1.363.562h-1.28v2.56h1.28a4.506 4.506 0 0 0 3.167-1.306 2.905 2.905 0 0 0 .309-.357 4.477 4.477 0 0 0 .949-2.176h1.4a4.473 4.473 0 0 0 4.415 3.839h3.2a4.493 4.493 0 0 0 1.92-.451v.451A10.238 10.238 0 0 1 35.55 35.87l-1.989 1.611a12.973 12.973 0 0 0 3.554 3.02v5.579h-6.241a9 9 0 0 0-5.485 1.9 1.258 1.258 0 0 0-1.069-.618h-2.56V43.1a17.92 17.92 0 1 0-7.68 0v4.265a1.28 1.28 0 0 0-1.28 1.28v4.386l-2.508 17.56a5.428 5.428 0 1 0 10.779 1.261l.04.029 7.7-10.439h.267a11.307 11.307 0 0 0 1.646 10.688v4.67h2.56v-5.12a1.281 1.281 0 0 0-.3-.819 8.733 8.733 0 0 1-.795-10.047 1.28 1.28 0 0 0-1.1-1.934h-2.93a1.278 1.278 0 0 0-1.024.521l-6.016 8.152V59.7a3.751 3.751 0 0 0 .64-2.095h2.56a1.28 1.28 0 0 0 1.28-1.28v-4.886a6.444 6.444 0 0 1 5.274-2.8h.511l-1.859 4.644A1.28 1.28 0 0 0 30.407 55l3.779.945-.842 2.528a1.28 1.28 0 0 0 .309 1.311l8.96 8.96c.019.017.045.026.065.042a1.333 1.333 0 0 0 .128.117l.013.011a.987.987 0 0 0 .143.066 1.3 1.3 0 0 0 .18.083 1.307 1.307 0 0 0 .319.049c.016 0 .032.008.05.008s.033-.006.05-.008a1.307 1.307 0 0 0 .318-.049c.027-.009.049-.022.074-.031s.072-.034.106-.052a1.026 1.026 0 0 0 .144-.066l.013-.011a1.333 1.333 0 0 0 .128-.117c.021-.016.046-.024.065-.042l8.96-8.96a1.28 1.28 0 0 0 .309-1.311l-.842-2.528L56.613 55a1.279 1.279 0 0 0 .879-1.717l-1.808-4.578a6.387 6.387 0 0 1 5.76 6.336V76.8h2.56V55.042a8.97 8.97 0 0 0-8.96-8.96h-5.12v-5.594A12.658 12.658 0 0 0 56.034 32h.286a5.1 5.1 0 0 0 2.56-9.539V19.2a13.423 13.423 0 0 0-1.314-5.776 7.674 7.674 0 1 0-12.328-8.265 15.655 15.655 0 0 0-1.052-.037h-1.331A14.967 14.967 0 0 0 30.984 10.9zM2.561 25.6a15.36 15.36 0 1 1 15.36 15.36A15.36 15.36 0 0 1 2.561 25.6zm15.36 17.92c.432 0 .855-.034 1.28-.066v3.906h-2.56v-3.904c.425.031.843.066 1.28.066zm-2.237 30.721a2.877 2.877 0 0 1-2.853-3.287L14.492 59.3a3.694 3.694 0 0 0 4.069 2.076v9.984a2.884 2.884 0 0 1-2.88 2.885zm3.189-15.8a1.253 1.253 0 0 1-.949.437 1.28 1.28 0 0 1-1.28-1.28h2.56a1.208 1.208 0 0 1-.334.847zm4.171-3.4h-7.68v-5.12h7.68zm24.32-13.41v4.451a2.561 2.561 0 0 0 2.016 2.5l-1.943 5.181h-7.83l-1.943-5.183a2.561 2.561 0 0 0 2.016-2.5v-4.449a12.376 12.376 0 0 0 7.68 0zm-6.793 14.69h5.906l-2.953 7.873zm-3.6-1.9a1.28 1.28 0 0 0-.812-.626l-3.7-.922 1.694-4.234h.806l5.292 14.115-4.224-4.224 1.024-3.089a1.277 1.277 0 0 0-.083-1.02zM50.89 53.8a1.279 1.279 0 0 0-.9 1.647l1.024 3.089-4.23 4.222 5.3-14.117h.807l1.693 4.235zm-5.42-32.009a4.448 4.448 0 0 0-.864 1.251H42.43a4.5 4.5 0 0 0-.747-1.117 24.631 24.631 0 0 0 2.017-1.048 25.879 25.879 0 0 0 4.253-3.031 23.237 23.237 0 0 0 1.012 2.637h-.325a4.506 4.506 0 0 0-3.171 1.309zm8.075 4.066a2.122 2.122 0 0 1-.346.46 1.931 1.931 0 0 1-1.359.564h-3.2a1.92 1.92 0 0 1 0-3.84h3.2a1.934 1.934 0 0 1 1.7 2.816zm2.775 3.584v-2.175l1.578-2.376a2.386 2.386 0 0 1 .231.181 2.56 2.56 0 0 1-1.809 4.371zM52.484 2.562a5.12 5.12 0 0 1 3.761 8.592 14.764 14.764 0 0 0-8.413-5.571 5.1 5.1 0 0 1 4.652-3.021zm0 0"/><path data-name="Контур 2392" d="M42.24 71.681h2.56v2.56h-2.56zm0 0"/><path data-name="Контур 2393" d="M30.721 25.602a12.8 12.8 0 1 0-12.8 12.8 12.8 12.8 0 0 0 12.8-12.8zm-16.64 0a3.84 3.84 0 1 1 3.84 3.84 3.84 3.84 0 0 1-3.84-3.84zm-1.95 2.684a12.452 12.452 0 0 1-4.012-2.688 12.452 12.452 0 0 1 4.012-2.688 6.2 6.2 0 0 0 0 5.368zM23.71 22.91a12.452 12.452 0 0 1 4.012 2.688 12.452 12.452 0 0 1-4.012 2.688 6.2 6.2 0 0 0 0-5.369zm-5.789-7.552a10.247 10.247 0 0 1 9.624 6.784 17.2 17.2 0 0 0-19.248 0 10.247 10.247 0 0 1 9.624-6.78zM8.298 29.057a17.2 17.2 0 0 0 19.248 0 10.222 10.222 0 0 1-19.248 0zm0 0"/><path data-name="Контур 2394" d="M16.641 24.322h2.56v2.56h-2.56zm0 0"/></g></svg>