<svg xmlns="http://www.w3.org/2000/svg" width="68" height="68" viewBox="0 0 68 68"><path data-name="Контур 2395" d="M63.363 58.5A4.643 4.643 0 0 0 68 53.867V6.641A6.648 6.648 0 0 0 61.359 0H6.641A6.648 6.648 0 0 0 0 6.641v47.226A4.643 4.643 0 0 0 4.637 58.5h1.472v6.84H1.328a1.328 1.328 0 0 0 0 2.656h65.344a1.328 1.328 0 0 0 0-2.656h-4.781V58.5zM2.656 6.641a3.989 3.989 0 0 1 3.985-3.985h54.718a3.989 3.989 0 0 1 3.984 3.984v2.923H2.79c-.045 0-.09 0-.133.007zm11.953 58.7H8.766v-11.95h5.844zm14.875 0h-5.843V38.706h5.844zm14.875 0h-5.843V49.938h5.844zm16.2-31.277h-8.5a1.328 1.328 0 0 0-1.328 1.328V42.1a1.328 1.328 0 0 0 2.656 0v-5.377h5.844v28.621h-5.84V51.033a1.328 1.328 0 0 0-2.656 0v14.311h-3.719V48.609a1.328 1.328 0 0 0-1.328-1.328h-8.5a1.328 1.328 0 0 0-1.328 1.328v16.735h-3.719V37.378a1.328 1.328 0 0 0-1.328-1.328h-8.5a1.328 1.328 0 0 0-1.328 1.328v27.966h-3.719V52.063a1.328 1.328 0 0 0-1.328-1.328h-8.5a1.328 1.328 0 0 0-1.328 1.328v3.785H4.637a1.983 1.983 0 0 1-1.981-1.981V12.212c.044 0 .088.007.133.007h62.555v41.648a1.983 1.983 0 0 1-1.981 1.981h-1.472V35.395a1.328 1.328 0 0 0-1.328-1.329z" fill="#fff"/><path data-name="Контур 2396" d="M59.5 4.781H29.493a1.328 1.328 0 0 0 0 2.656H59.5a1.328 1.328 0 1 0 0-2.656z" fill="#fff"/><path data-name="Контур 2397" d="M14.751 5.17a1.327 1.327 0 1 0 .389.939 1.338 1.338 0 0 0-.389-.939z" fill="#fff"/><path data-name="Контур 2398" d="M9.439 5.17a1.327 1.327 0 1 0 .389.939 1.338 1.338 0 0 0-.389-.939z" fill="#fff"/><path data-name="Контур 2399" d="M20.064 5.17a1.327 1.327 0 1 0 .389.939 1.336 1.336 0 0 0-.389-.939z" fill="#fff"/><path data-name="Контур 2400" d="M53.001 45.896a1.327 1.327 0 1 0 .389.939 1.333 1.333 0 0 0-.389-.939z" fill="#fff"/><path data-name="Контур 2401" d="M56.312 18.054a4.778 4.778 0 0 0-3.869 7.586l-8.822 8.822a4.77 4.77 0 0 0-4.409-.107L30 25.143a4.781 4.781 0 1 0-8.251.205l-7.843 7.843a4.785 4.785 0 1 0 1.878 1.878l7.937-7.937a4.77 4.77 0 0 0 4.4-.112l9.122 9.121a4.781 4.781 0 1 0 8.256.2l9.058-9.058a4.781 4.781 0 1 0 1.754-9.228zM11.599 39.502a2.125 2.125 0 1 1 2.125-2.125 2.127 2.127 0 0 1-2.125 2.125zM25.815 24.96a2.125 2.125 0 1 1 2.125-2.125 2.127 2.127 0 0 1-2.125 2.125zm15.5 15.813a2.125 2.125 0 1 1 2.125-2.125 2.127 2.127 0 0 1-2.126 2.125zm15-15.813a2.125 2.125 0 1 1 2.125-2.125 2.127 2.127 0 0 1-2.128 2.125z" fill="#fff"/><path data-name="Контур 2402" d="M19.7 17.126a1.327 1.327 0 1 0 .389.939 1.341 1.341 0 0 0-.389-.939z" fill="#fff"/><path data-name="Контур 2403" d="M13.809 16.737H7.437a1.328 1.328 0 1 0 0 2.656h6.372a1.328 1.328 0 1 0 0-2.656z" fill="#fff"/><path data-name="Контур 2404" d="M13.809 23.112H7.437a1.328 1.328 0 0 0 0 2.656h6.372a1.328 1.328 0 0 0 0-2.656z" fill="#fff"/></svg>