<svg xmlns="http://www.w3.org/2000/svg" width="74.708" height="74.708" viewBox="0 0 74.708 74.708"><path data-name="Контур 2405" d="M74.281 13.7L61 .427A1.459 1.459 0 0 0 59.971 0H16.634a4.382 4.382 0 0 0-4.377 4.377v2.782A19.306 19.306 0 0 0 0 25.111a1.459 1.459 0 0 0 1.459 1.459h17.815a1.459 1.459 0 0 0 1.459-1.459V7.3a1.459 1.459 0 0 0-1.459-1.459 19.266 19.266 0 0 0-4.1.44v-1.9a1.461 1.461 0 0 1 1.459-1.459h41.879v8.9a4.382 4.382 0 0 0 4.377 4.378h8.9v54.131a1.461 1.461 0 0 1-1.459 1.459h-53.7a1.461 1.461 0 0 1-1.459-1.459v-12.5a1.459 1.459 0 0 0-2.918 0v12.5a4.382 4.382 0 0 0 4.377 4.377h53.7a4.382 4.382 0 0 0 4.377-4.377v-55.6a1.459 1.459 0 0 0-.426-1.031zM17.815 8.82v14.831H2.983A16.383 16.383 0 0 1 17.815 8.82zm45.074 4.459a1.461 1.461 0 0 1-1.459-1.459V4.982l8.3 8.3z" fill="#fff"/><path data-name="Контур 2406" d="M14.748 51.498a1.458 1.458 0 1 0 .428 1.032 1.469 1.469 0 0 0-.428-1.032z" fill="#fff"/><path data-name="Контур 2407" d="M24.501 11.063a1.459 1.459 0 0 0-1.459 1.459v16.356H6.686a1.459 1.459 0 0 0-1.459 1.459 19.274 19.274 0 1 0 19.274-19.274zm1.459 2.981a16.282 16.282 0 0 1 9.023 3.746l-9.023 9.024zm-1.459 32.647A16.378 16.378 0 0 1 8.208 31.796h16.293a1.455 1.455 0 0 0 1.031-.427l11.515-11.514a16.347 16.347 0 0 1-12.546 26.838z" fill="#fff"/><path data-name="Контур 2408" d="M63.921 46.051a4.377 4.377 0 0 0-4.031 6.083l-8.407 8.407a4.37 4.37 0 0 0-3.78-.02l-5.582-5.582a4.378 4.378 0 1 0-8.051.24l-5.354 5.354a4.378 4.378 0 1 0 2.066 2.061l5.324-5.324a4.363 4.363 0 0 0 4.1-.119l5.425 5.425a4.378 4.378 0 1 0 7.9.042l8.328-8.328a4.377 4.377 0 1 0 2.059-8.239zM26.834 65.946a1.459 1.459 0 1 1 1.009-2.51l.017.019.022.02a1.457 1.457 0 0 1-1.048 2.472zm11.21-11.138a1.459 1.459 0 1 1 1.459-1.459 1.461 1.461 0 0 1-1.458 1.457zM49.572 65.94a1.459 1.459 0 1 1 1.459-1.459 1.461 1.461 0 0 1-1.459 1.457zm14.349-14.05a1.459 1.459 0 1 1 1.459-1.459 1.461 1.461 0 0 1-1.459 1.456z" fill="#fff"/><path data-name="Контур 2409" d="M56.628 34.29h-7.7a1.459 1.459 0 1 0 0 2.918h7.7a1.459 1.459 0 0 0 0-2.918z" fill="#fff"/><path data-name="Контур 2410" d="M64.303 34.718a1.458 1.458 0 1 0 .428 1.032 1.47 1.47 0 0 0-.428-1.032z" fill="#fff"/><path data-name="Контур 2411" d="M66.751 20.282H48.927a1.459 1.459 0 1 0 0 2.918h17.824a1.459 1.459 0 0 0 0-2.918z" fill="#fff"/><path data-name="Контур 2412" d="M66.751 27.286H48.927a1.459 1.459 0 1 0 0 2.918h17.824a1.459 1.459 0 0 0 0-2.918z" fill="#fff"/></svg>