<svg xmlns="http://www.w3.org/2000/svg" width="74" height="74" viewBox="0 0 74 74"><g fill="#fff"><path d="M71.109 29.2h-4.268a30.537 30.537 0 0 0-3.22-7.778l3.017-3.022a2.894 2.894 0 0 0 0-4.088l-6.95-6.949a2.894 2.894 0 0 0-4.088 0l-3.017 3.017A30.538 30.538 0 0 0 44.8 7.159V2.891A2.894 2.894 0 0 0 41.914 0h-9.828A2.894 2.894 0 0 0 29.2 2.891v4.278a30.533 30.533 0 0 0-7.765 3.224L18.4 7.362a2.894 2.894 0 0 0-4.088 0l-6.95 6.95a2.894 2.894 0 0 0 0 4.088l3.038 3.04a30.529 30.529 0 0 0-3.2 7.76H2.891A2.894 2.894 0 0 0 0 32.086v9.828A2.894 2.894 0 0 0 2.891 44.8h4.314a30.535 30.535 0 0 0 3.211 7.742L7.362 55.6a2.894 2.894 0 0 0 0 4.088l6.949 6.95a2.894 2.894 0 0 0 4.088 0l3.054-3.054a30.535 30.535 0 0 0 7.742 3.21v4.315A2.894 2.894 0 0 0 32.086 74h9.828a2.894 2.894 0 0 0 2.886-2.891V66.8a30.529 30.529 0 0 0 7.76-3.2l3.04 3.038a2.894 2.894 0 0 0 4.088 0l6.95-6.95a2.894 2.894 0 0 0 0-4.088l-3.031-3.03a30.533 30.533 0 0 0 3.224-7.77h4.278A2.894 2.894 0 0 0 74 41.914v-9.828a2.894 2.894 0 0 0-2.891-2.886zm0 12.719h-5.416a1.445 1.445 0 0 0-1.411 1.133 27.689 27.689 0 0 1-3.72 8.96 1.445 1.445 0 0 0 .2 1.8l3.836 3.836-6.95 6.95-3.848-3.849a1.445 1.445 0 0 0-1.8-.2 27.689 27.689 0 0 1-8.952 3.7 1.445 1.445 0 0 0-1.135 1.411v5.445h-9.827v-5.448a1.445 1.445 0 0 0-1.133-1.411 27.691 27.691 0 0 1-8.939-3.707 1.445 1.445 0 0 0-1.8.2l-3.859 3.859-6.949-6.954 3.859-3.859a1.445 1.445 0 0 0 .2-1.8 27.7 27.7 0 0 1-3.707-8.939 1.445 1.445 0 0 0-1.411-1.133H2.891v-9.827h5.444a1.445 1.445 0 0 0 1.411-1.135A27.688 27.688 0 0 1 13.448 22a1.445 1.445 0 0 0-.2-1.8l-3.842-3.844 6.949-6.949 3.836 3.836a1.445 1.445 0 0 0 1.8.2 27.686 27.686 0 0 1 8.96-3.72 1.445 1.445 0 0 0 1.133-1.411V2.891h9.828V8.3a1.445 1.445 0 0 0 1.137 1.41 27.689 27.689 0 0 1 8.974 3.715 1.445 1.445 0 0 0 1.8-.2l3.822-3.822 6.949 6.949-3.822 3.822a1.445 1.445 0 0 0-.2 1.8 27.692 27.692 0 0 1 3.715 8.974 1.445 1.445 0 0 0 1.413 1.138h5.408z"/><path d="M43.684 16.979a1.445 1.445 0 0 0-.915 2.742 18.2 18.2 0 0 1 8.71 28.31 5.917 5.917 0 0 0-4.523-4.69l-4.9-1.071a7.209 7.209 0 0 0 2.176-5.164v-4.714a5.014 5.014 0 0 0 .891-2.858v-3.831a1.445 1.445 0 0 0-1.445-1.445h-7.719a6.2 6.2 0 0 0-6.19 6.19v2.684a1.31 1.31 0 0 1 0 .378v3.595a7.209 7.209 0 0 0 2.17 5.159l-4.9 1.075a5.917 5.917 0 0 0-4.519 4.691 18.2 18.2 0 0 1 9.535-28.563 1.446 1.446 0 1 0-.783-2.783 21.247 21.247 0 0 0-11.013 7.467A20.905 20.905 0 0 0 15.898 37a21.125 21.125 0 0 0 21.077 21.1H37a21.1 21.1 0 0 0 6.684-41.122zm5 32.1v1.876a18.136 18.136 0 0 1-9.544 4.129l3.743-9.675 3.455.755a3 3 0 0 1 2.347 2.916zM41.34 37.105a4.341 4.341 0 1 1-8.682 0v-2.528h7.421a5.031 5.031 0 0 0 1.262-.16v2.688zm-6.614 6.864a7.2 7.2 0 0 0 4.521.009 2.965 2.965 0 0 0 .825.685l-3.09 7.987-3.084-7.988a2.966 2.966 0 0 0 .828-.693zm-2.068-13.521a3.3 3.3 0 0 1 3.3-3.3h6.274v2.385a2.155 2.155 0 0 1-2.152 2.152h-7.421v-1.239zm-5 15.714l3.425-.751 3.74 9.669a18.134 18.134 0 0 1-9.509-4.125v-1.878a3 3 0 0 1 2.345-2.915z"/><path d="M37.445 18.789a1.446 1.446 0 1 0-1.022-.423 1.456 1.456 0 0 0 1.022.423z"/></g></svg>