<svg xmlns="http://www.w3.org/2000/svg" width="72.023" height="72" viewBox="0 0 72.023 72"><path data-name="Контур 2161" d="M59.213 21.224a1.405 1.405 0 1 0 .412.994 1.416 1.416 0 0 0-.412-.994z" fill="#fff"/><path data-name="Контур 2162" d="M58.219 18.07a1.406 1.406 0 0 0 1.406-1.406V4.218A4.223 4.223 0 0 0 55.406 0H4.219A4.223 4.223 0 0 0 0 4.218v63.563A4.224 4.224 0 0 0 4.219 72h51.187a4.224 4.224 0 0 0 4.219-4.219v-6.316a1.407 1.407 0 1 0-2.813 0v6.316a1.408 1.408 0 0 1-1.406 1.406H4.219a1.408 1.408 0 0 1-1.406-1.406V4.218a1.408 1.408 0 0 1 1.406-1.406h51.187a1.408 1.408 0 0 1 1.407 1.406v12.446a1.406 1.406 0 0 0 1.406 1.406z" fill="#fff"/><path data-name="Контур 2163" d="M70.787 56.56l-7.254-7.254a15.453 15.453 0 0 0-13.5-22.991h-.254v-7.731a1.406 1.406 0 0 0-1.406-1.406h-8.219V9.584a1.406 1.406 0 0 0-1.406-1.406h-9.623a1.406 1.406 0 0 0-1.406 1.406v8.438H19.5a1.406 1.406 0 0 0-1.406 1.406v7.594H11.25a1.406 1.406 0 0 0-1.406 1.406v7.594a1.406 1.406 0 0 0 1.406 1.406H35.2a15.455 15.455 0 0 0 22.366 17.844l7.207 7.207a4.308 4.308 0 0 0 3.051 1.277 4.214 4.214 0 0 0 2.963-7.2zM18.094 34.612h-5.437V29.83h5.438v4.781zm9.625 0h-6.812V20.83h6.812zm2.812 0V10.984h6.812v14.61a1.407 1.407 0 0 0 2.813 0v-5.61h6.81v6.634a15.512 15.512 0 0 0-10.63 7.991zm19.5 19.81a12.647 12.647 0 1 1 12.652-12.648 12.662 12.662 0 0 1-12.647 12.648zm18.725 6.152a1.453 1.453 0 0 1-2-.084l-6.839-6.84a15.608 15.608 0 0 0 1.989-1.989l6.887 6.887a1.406 1.406 0 0 1-.038 2.026z" fill="#fff"/><path data-name="Контур 2164" d="M53.697 34.584a1.406 1.406 0 0 0-1.916.533L44.22 48.511a1.406 1.406 0 1 0 2.449 1.383L54.23 36.5a1.406 1.406 0 0 0-.533-1.916z" fill="#fff"/><path data-name="Контур 2165" d="M54.95 42.975a4.219 4.219 0 1 0 4.219 4.219 4.224 4.224 0 0 0-4.219-4.219zm0 5.625a1.406 1.406 0 1 1 1.406-1.406A1.408 1.408 0 0 1 54.95 48.6z" fill="#fff"/><path data-name="Контур 2166" d="M45.122 32.136a4.219 4.219 0 1 0 4.219 4.219 4.224 4.224 0 0 0-4.219-4.219zm0 5.625a1.406 1.406 0 1 1 1.406-1.406 1.408 1.408 0 0 1-1.406 1.406z" fill="#fff"/><path data-name="Контур 2167" d="M47.935 61.594H9a1.407 1.407 0 0 0 0 2.813h38.935a1.407 1.407 0 0 0 0-2.813z" fill="#fff"/><path data-name="Контур 2168" d="M29.813 53.719h-8.719a1.407 1.407 0 1 0 0 2.813h8.719a1.407 1.407 0 1 0 0-2.813z" fill="#fff"/><path data-name="Контур 2169" d="M35.964 54.131a1.405 1.405 0 1 0 .412.994 1.417 1.417 0 0 0-.412-.994z" fill="#fff"/><path data-name="Контур 2170" d="M29.813 45.844h-8.719a1.407 1.407 0 1 0 0 2.813h8.719a1.407 1.407 0 1 0 0-2.813z" fill="#fff"/><path data-name="Контур 2171" d="M12.094 49.429a1.426 1.426 0 1 1 1.687-1.4 1.407 1.407 0 0 0 2.813 0 4.257 4.257 0 0 0-3.1-4 1.405 1.405 0 0 0-2.81 0 4.257 4.257 0 0 0-3.1 4 4.369 4.369 0 0 0 4.5 4.214 1.426 1.426 0 1 1-1.687 1.4 1.407 1.407 0 0 0-2.813 0 4.257 4.257 0 0 0 3.094 4v.081a1.407 1.407 0 1 0 2.813 0v-.081a4.257 4.257 0 0 0 3.094-4 4.369 4.369 0 0 0-4.491-4.214z" fill="#fff"/></svg>