<svg xmlns="http://www.w3.org/2000/svg" width="71" height="71.012" viewBox="0 0 71 71.012"><g fill="#fff"><path d="M70.594 29.867a1.388 1.388 0 0 0-1.254-.379l-11.953 2.405a1.387 1.387 0 0 0-.707 2.34l1.617 1.617-6.347 6.35-4.913-4.916a1.387 1.387 0 0 0-1.961 0l-6.029 6.029 2.261-8.126a6.511 6.511 0 0 0-3.983-7.837l1.808-5.164c.5.044 1 .066 1.488.066a17.243 17.243 0 0 0 10.994-3.974l.332-.278a3.863 3.863 0 0 0 .633-5.347 3.847 3.847 0 0 0-5.5-.61l-.375.312a9.55 9.55 0 0 1-1.8 1.179 5.751 5.751 0 0 1-6.583-1.158 6.338 6.338 0 1 0-6.989-2.33 7.225 7.225 0 0 0-3.729 2.1 1.385 1.385 0 0 0-.164.168 18.814 18.814 0 0 1-9.426 6.229 3.835 3.835 0 0 0-2.284 1.808l-2.842-2.842a3.194 3.194 0 0 0-4.511 0l-3.72 3.727-3.72 3.72a3.19 3.19 0 0 0 0 4.511l10.247 10.249a3.19 3.19 0 0 0 4.511 0l3.852-3.852-1.826 4.789a1.387 1.387 0 1 0 2.592.988l4.544-11.926h10.187a3.729 3.729 0 0 1 3.592 4.729l-3.15 11.323a1.186 1.186 0 0 1-1.139.865 1.183 1.183 0 0 1-1.168-1.368l1.678-10.542a1.387 1.387 0 0 0-1.37-1.6h-3.289a1.387 1.387 0 0 0-1.241.757c-.081.16-8.128 16.07-10.839 21.446a1.424 1.424 0 0 1-1.467.763l-.066-.009a1.356 1.356 0 0 1-1.085-1.827l.857-2.242a1.387 1.387 0 1 0-2.592-.988l-.855 2.241a4.13 4.13 0 0 0 3.3 5.565l.066.009a4.206 4.206 0 0 0 4.316-2.262c2.368-4.7 8.81-17.433 10.453-20.682h.81l-1.422 8.937a3.954 3.954 0 0 0 2.7 4.389L17.694 64.667a1.387 1.387 0 0 0 0 1.961l3.978 3.978a1.387 1.387 0 0 0 1.961 0l7.647-7.647A1.387 1.387 0 1 0 29.319 61l-6.662 6.664-2.016-2.016 25.416-25.422 4.913 4.913a1.387 1.387 0 0 0 1.961 0l8.308-8.308a1.387 1.387 0 0 0 0-1.961l-.768-.768 7.371-1.483-1.485 7.37-1.14-1.141a1.387 1.387 0 0 0-1.961 0l-11.305 11.3-4.913-4.908a1.387 1.387 0 0 0-1.961 0l-7.912 7.912a1.387 1.387 0 1 0 1.961 1.961l6.931-6.931L50.97 53.1a1.387 1.387 0 0 0 1.961 0l11.305-11.3 1.991 1.991a1.387 1.387 0 0 0 2.34-.707l2.405-11.953a1.387 1.387 0 0 0-.378-1.264zM36.448 2.774a3.558 3.558 0 1 1-3.558 3.558 3.562 3.562 0 0 1 3.558-3.558zM22.725 27.356l-1.688-1.688q1.2-.392 2.36-.9zm-4.68-4.811a1.075 1.075 0 0 1 .735-1.329 21.633 21.633 0 0 0 6.322-3l-.783 3.011a23.918 23.918 0 0 1-4.945 2.048 1.462 1.462 0 0 1-.1.024 1.064 1.064 0 0 1-.727-.125l-.406-.406a1.055 1.055 0 0 1-.096-.223zm-7.709-3.068a.417.417 0 0 1 .588 0l5.055 5.055a3.812 3.812 0 0 0 .829.829l4.365 4.365a.416.416 0 0 1 0 .588l-2.739 2.739-3.046-3.046.58-.58a1.387 1.387 0 0 0 0-1.961l-3.122-3.122a1.387 1.387 0 0 0-1.961 0l-.58.58-2.709-2.708zm1.9 9.762a.52.52 0 0 1-.736 0l-.424-.424a.52.52 0 0 1 0-.736l.792-.792 1.16 1.16zm1.5 8.516a.416.416 0 0 1-.588 0L2.896 27.505a.416.416 0 0 1 0-.588l2.739-2.739 2.838 2.838a3.3 3.3 0 0 0 .639 3.761l.424.424a3.3 3.3 0 0 0 3.761.639l3.176 3.176zm19.81-10.814h-7.847l2.849-10.952a4.446 4.446 0 0 1 4.3-3.326 4.4 4.4 0 0 1 3.256 1.419 8.551 8.551 0 0 0 10.046 1.933 12.314 12.314 0 0 0 2.321-1.522l.375-.312a1.074 1.074 0 0 1 1.537.171 1.114 1.114 0 0 1-.21 1.518l-.33.274a14.386 14.386 0 0 1-11.438 3.161 1.386 1.386 0 0 0-1.522.912l-2.354 6.724z"/><path d="M34.249 56.694a1.388 1.388 0 1 0 .98.406 1.4 1.4 0 0 0-.98-.406zM17.037 47.727a1.385 1.385 0 1 0-.982-.406 1.4 1.4 0 0 0 .982.406z"/></g></svg>