<svg xmlns="http://www.w3.org/2000/svg" width="68.964" height="64.366" viewBox="0 0 68.964 64.366"><path data-name="Контур 2413" d="M67.814 57.47H1.149A1.149 1.149 0 0 0 0 58.619v4.6a1.149 1.149 0 0 0 1.149 1.149h66.665a1.148 1.148 0 0 0 1.149-1.149v-4.6a1.148 1.148 0 0 0-1.149-1.149zm-1.149 4.6H2.3v-2.3h64.365v2.3z" fill="#fff"/><path data-name="Контур 2414" d="M67.78 19.261L64.332 5.468a1.151 1.151 0 0 0-1.117-.87H5.747a1.15 1.15 0 0 0-1.115.87L1.184 19.261a1.15 1.15 0 0 0 1.115 1.429h64.366a1.15 1.15 0 0 0 1.115-1.429zm-64.009-.87L6.645 6.898h55.67l2.873 11.494z" fill="#fff"/><path data-name="Контур 2415" d="M37.93 19.54v2.3a3.45 3.45 0 0 1-6.9 0v-2.3h-2.3v2.3a5.747 5.747 0 1 0 11.494 0v-2.3z" fill="#fff"/><path data-name="Контур 2416" d="M28.735 19.54v2.3a3.45 3.45 0 0 1-6.9 0v-2.3h-2.3v2.3a5.747 5.747 0 1 0 11.494 0v-2.3z" fill="#fff"/><path data-name="Контур 2417" d="M19.545 19.54v2.3a3.45 3.45 0 0 1-6.9 0v-2.3h-2.3v2.3a5.747 5.747 0 1 0 11.494 0v-2.3z" fill="#fff"/><path data-name="Контур 2418" d="M10.344 19.54v2.3a3.45 3.45 0 0 1-6.9 0v-2.3h-2.3v2.3a5.747 5.747 0 1 0 11.494 0v-2.3z" fill="#fff"/><path data-name="Контур 2419" d="M65.515 19.54v2.3a3.45 3.45 0 1 1-6.9 0v-2.3h-2.3v2.3a5.747 5.747 0 1 0 11.494 0v-2.3z" fill="#fff"/><path data-name="Контур 2420" d="M56.32 19.54v2.3a3.45 3.45 0 0 1-6.9 0v-2.3h-2.3v2.3a5.747 5.747 0 1 0 11.494 0v-2.3z" fill="#fff"/><path data-name="Контур 2421" d="M47.13 19.54v2.3a3.45 3.45 0 1 1-6.9 0v-2.3h-2.3v2.3a5.747 5.747 0 1 0 11.494 0v-2.3z" fill="#fff"/><path data-name="Прямоугольник 778" fill="#fff" d="M28.735 5.747h2.299V19.54h-2.299z"/><path data-name="Прямоугольник 779" fill="#fff" d="M37.93 5.747h2.299V19.54H37.93z"/><path data-name="Прямоугольник 780" fill="#fff" d="M19.543 19.446l1.149-13.79 2.29.19-1.148 13.79z"/><path data-name="Прямоугольник 781" fill="#fff" d="M10.36 19.351l2.307-13.788 2.267.38-2.307 13.787z"/><path data-name="Прямоугольник 782" fill="#fff" d="M45.975 5.844l2.29-.19 1.148 13.79-2.29.19z"/><path data-name="Прямоугольник 783" fill="#fff" d="M54.038 5.935l2.268-.378 2.299 13.794-2.268.378z"/><path data-name="Контур 2422" d="M63.217 0H5.747a1.15 1.15 0 0 0-1.149 1.149v4.6h2.3v-3.45h55.166v3.448h2.3v-4.6A1.149 1.149 0 0 0 63.217 0z" fill="#fff"/><path data-name="Прямоугольник 784" fill="#fff" d="M4.598 26.436h2.299V57.47H4.598z"/><path data-name="Прямоугольник 785" fill="#fff" d="M62.067 26.436h2.299v32.183h-2.299z"/><path data-name="Контур 2423" d="M42.528 32.183H10.344a1.149 1.149 0 0 0-1.149 1.149v18.39a1.149 1.149 0 0 0 1.149 1.149h32.184a1.148 1.148 0 0 0 1.149-1.149v-18.39a1.148 1.148 0 0 0-1.149-1.149zm-1.149 18.39H11.494v-16.09h29.884z" fill="#fff"/><path data-name="Контур 2424" d="M58.619 32.183H47.125a1.148 1.148 0 0 0-1.149 1.149v25.287a1.148 1.148 0 0 0 1.149 1.149h11.494a1.148 1.148 0 0 0 1.149-1.149V33.332a1.148 1.148 0 0 0-1.149-1.149zM57.47 57.47h-9.2V34.483h9.2z" fill="#fff"/><path data-name="Прямоугольник 786" fill="#fff" d="M16.432 41.715l4.598-4.598 1.625 1.626-4.597 4.598z"/><path data-name="Прямоугольник 787" fill="#fff" d="M18.73 46.308l10.344-10.344 1.626 1.625-10.344 10.345z"/><path data-name="Прямоугольник 788" fill="#fff" d="M26.771 46.313l4.598-4.598 1.625 1.626-4.597 4.598z"/></svg>