<svg xmlns="http://www.w3.org/2000/svg" width="79.333" height="78.404" viewBox="0 0 79.333 78.404"><path data-name="Контур 2425" d="M52.985 50.414a2.981 2.981 0 1 1 3.409-2.95 1.55 1.55 0 1 0 3.1 0 6.165 6.165 0 0 0-4.958-5.875v-.806a1.55 1.55 0 0 0-3.1 0v.806a6.165 6.165 0 0 0-4.958 5.875 6.3 6.3 0 0 0 6.508 6.049 2.981 2.981 0 1 1-3.409 2.951 1.55 1.55 0 0 0-3.1 0 6.165 6.165 0 0 0 4.958 5.875v.669a1.55 1.55 0 1 0 3.1 0v-.669a6.165 6.165 0 0 0 4.958-5.875 6.3 6.3 0 0 0-6.508-6.05z" fill="#fff"/><path data-name="Контур 2426" d="M69.956 41.196a20.189 20.189 0 0 0-8.247-7.3 1.55 1.55 0 1 0-1.343 2.793 17.059 17.059 0 0 1 7.683 23.365 1.55 1.55 0 1 0 2.736 1.456 20.166 20.166 0 0 0-.829-20.315z" fill="#fff"/><path data-name="Контур 2427" d="M55.421 31.918h-.1a1.55 1.55 0 0 0 0 3.1h.1a1.55 1.55 0 0 0 .007-3.1z" fill="#fff"/><path data-name="Контур 2428" d="M45.617 67.434a17.059 17.059 0 0 1-7.683-23.365 1.55 1.55 0 0 0-2.736-1.456 20.152 20.152 0 0 0 9.076 27.614 1.55 1.55 0 1 0 1.343-2.793z" fill="#fff"/><path data-name="Контур 2429" d="M50.668 69.107h-.09a1.55 1.55 0 0 0-.014 3.1h.1a1.55 1.55 0 0 0 0-3.1z" fill="#fff"/><path data-name="Контур 2430" d="M60.028 26.677a7.112 7.112 0 0 0-.688-1.266h4.034a7.128 7.128 0 0 0 0-14.255H50.965A7.123 7.123 0 0 0 45.09 0H7.128a7.128 7.128 0 0 0 0 14.255h12.408a7.108 7.108 0 0 0 0 8.057h-4.041a7.123 7.123 0 0 0-4.429 12.706 7.115 7.115 0 0 0 0 11.156 7.115 7.115 0 0 0 0 11.156 7.123 7.123 0 0 0 4.429 12.706h18.26a26.335 26.335 0 1 0 26.273-43.359zm3.345-12.422a4.029 4.029 0 1 1 0 8.057H25.411a4.029 4.029 0 1 1 0-8.057zm-56.246-3.1a4.029 4.029 0 1 1 0-8.057H45.09a4.029 4.029 0 0 1 0 8.057zm8.367 14.255h37.963a4.026 4.026 0 0 1 1.758.4 26.362 26.362 0 0 0-2.223-.095 26.259 26.259 0 0 0-18.64 7.747H15.495a4.029 4.029 0 0 1 0-8.057zm0 11.156H31.7a26.266 26.266 0 0 0-3.983 8.057H15.495a4.029 4.029 0 0 1 0-8.057zm0 11.156H27.01a26.362 26.362 0 0 0-.1 8.057H15.495a4.029 4.029 0 0 1 0-8.057zm0 19.213a4.029 4.029 0 1 1 0-8.057h12.053a26.237 26.237 0 0 0 3.718 8.057zm37.5 8.367a23.242 23.242 0 1 1 23.24-23.239A23.268 23.268 0 0 1 52.992 75.3z" fill="#fff"/></svg>