<svg xmlns="http://www.w3.org/2000/svg" width="74.724" height="72.233" viewBox="0 0 74.724 72.233"><path data-name="Контур 2431" d="M69.741 0H4.983A4.989 4.989 0 0 0 0 4.983v41.1a1.246 1.246 0 0 0 1.245 1.245h72.233a1.246 1.246 0 0 0 1.245-1.245v-41.1A4.989 4.989 0 0 0 69.741 0zm2.492 44.834H2.491V4.983a2.5 2.5 0 0 1 2.492-2.492h64.758a2.5 2.5 0 0 1 2.492 2.492z" fill="#fff"/><path data-name="Контур 2432" d="M73.478 44.834H1.245A1.246 1.246 0 0 0 0 46.079v6.222a4.989 4.989 0 0 0 4.983 4.983h64.758a4.989 4.989 0 0 0 4.983-4.983v-6.226a1.246 1.246 0 0 0-1.246-1.241zm-1.245 7.467a2.5 2.5 0 0 1-2.492 2.492H4.983a2.5 2.5 0 0 1-2.492-2.492v-4.98h69.742v4.98z" fill="#fff"/><path data-name="Контур 2433" d="M41.098 49.816h-7.472a1.246 1.246 0 1 0 0 2.491h7.472a1.246 1.246 0 0 0 0-2.491z" fill="#fff"/><path data-name="Контур 2434" d="M68.497 4.982H6.227a1.246 1.246 0 0 0-1.245 1.245V46.08a1.246 1.246 0 0 0 1.245 1.245h62.27a1.246 1.246 0 0 0 1.245-1.245V6.227a1.246 1.246 0 0 0-1.245-1.245zm-1.249 39.853H7.473V7.473h59.775v37.362z" fill="#fff"/><path data-name="Контур 2435" d="M53.552 64.761H21.169a3.736 3.736 0 1 0 0 7.472h32.38a3.736 3.736 0 1 0 0-7.472zm0 4.982H21.169a1.246 1.246 0 1 1 0-2.491h32.38a1.246 1.246 0 1 1 0 2.491z" fill="#fff"/><path data-name="Контур 2436" d="M51.061 64.761c-4.132 0-6.227-2.933-6.227-8.718a1.246 1.246 0 0 0-1.245-1.246H31.135a1.246 1.246 0 0 0-1.245 1.245c0 5.785-2.095 8.718-6.227 8.718a1.246 1.246 0 1 0 0 2.491h27.4a1.246 1.246 0 0 0 0-2.491zm-21.332 0c1.533-1.7 2.436-4.228 2.618-7.472h10.032c.181 3.244 1.083 5.774 2.618 7.472z" fill="#fff"/><path data-name="Контур 2437" d="M59.51 36.695l-3.006-3.006 1.673-1.673a1.245 1.245 0 0 0-.522-2.074l-12.454-3.736a1.246 1.246 0 0 0-1.551 1.551l3.736 12.454a1.245 1.245 0 0 0 2.074.523l1.761-1.762 3.006 3.008a1.245 1.245 0 0 0 1.761 0l3.522-3.523a1.244 1.244 0 0 0 0-1.762zm-4.4 2.643l-2.737-2.739a1.628 1.628 0 0 0-2.3 0l-.9.9-2.472-8.241 8.241 2.472-.964.964a1.412 1.412 0 0 0 0 1.994l2.889 2.889z" fill="#fff"/><path data-name="Контур 2438" d="M52.306 9.963H17.435a1.246 1.246 0 0 0-1.245 1.245v6.227a1.246 1.246 0 0 0 1.245 1.245h34.871a1.246 1.246 0 0 0 1.245-1.245v-6.227a1.246 1.246 0 0 0-1.245-1.245zm-1.245 6.227h-32.38v-3.736h32.38z" fill="#fff"/><path data-name="Контур 2439" d="M32.381 23.663h-9.963a1.246 1.246 0 0 0-1.245 1.245v4.982a1.246 1.246 0 0 0 1.245 1.245h9.963a1.246 1.246 0 0 0 1.245-1.245v-4.982a1.246 1.246 0 0 0-1.245-1.245zm-1.245 4.982h-7.472v-2.491h7.472z" fill="#fff"/><path data-name="Контур 2440" d="M52.306 9.963H17.435a1.246 1.246 0 0 0-1.245 1.245V34.87a1.246 1.246 0 0 0 1.245 1.245h29.648a1.246 1.246 0 0 0 1.193-1.6l-1.577-5.257 5.249 1.575a1.246 1.246 0 0 0 1.6-1.193V11.208a1.246 1.246 0 0 0-1.242-1.245zm-1.245 18l-5.862-1.758a1.246 1.246 0 0 0-1.551 1.552l1.761 5.868H18.681V12.454h32.38z" fill="#fff"/></svg>