<svg xmlns="http://www.w3.org/2000/svg" width="55.333" height="47.782" viewBox="0 0 55.333 47.782"><g fill="#0160b2"><path data-name="Контур 2059" d="M53.442 0H1.891A1.893 1.893 0 0 0 0 1.891v6.657a.811.811 0 0 0 1.621 0V1.891a.27.27 0 0 1 .27-.27h51.55a.27.27 0 0 1 .27.27v39.526a.27.27 0 0 1-.27.27H43.055v-1.686h8.152a.81.81 0 0 0 .811-.811v-8.487a.811.811 0 0 0-1.621 0v7.677h-7.342v-3.6l.078.007a2.48 2.48 0 0 0 2.09-.448 2.489 2.489 0 0 0 .447-2.091 1.23 1.23 0 0 1 .56-1.382c1.43-1.189 1.456-2.462 0-3.672a1.23 1.23 0 0 1-.56-1.382c.159-1.813-.688-2.7-2.537-2.539a1.223 1.223 0 0 1-1.377-.561c-1.187-1.433-2.461-1.46-3.67 0a1.223 1.223 0 0 1-1.377.561c-1.814-.159-2.7.692-2.537 2.539a1.23 1.23 0 0 1-.56 1.382c-1.43 1.189-1.456 2.462 0 3.672a1.23 1.23 0 0 1 .56 1.382c-.17 1.942.757 2.693 2.614 2.532v3.6H4.937V4.929H50.4V26.38a.811.811 0 0 0 1.621 0V4.118a.81.81 0 0 0-.811-.811H4.126a.81.81 0 0 0-.811.811v35.073a.81.81 0 0 0 .811.811h32.66v1.687H1.891a.27.27 0 0 1-.27-.27V12.655a.811.811 0 0 0-1.621 0v28.762a1.893 1.893 0 0 0 1.891 1.891h34.9v3.669a.811.811 0 0 0 1.152.735l1.982-.922 1.982.922a.827.827 0 0 0 1.152-.735v-3.668h10.383a1.893 1.893 0 0 0 1.891-1.891V1.891A1.893 1.893 0 0 0 53.442 0zM36.567 33.175c-.811.071-.851.028-.78-.783a2.8 2.8 0 0 0-1.139-2.77c-.658-.547-.658-.632 0-1.179a2.8 2.8 0 0 0 1.139-2.77c-.071-.811-.032-.854.78-.783a2.788 2.788 0 0 0 2.767-1.141c.545-.658.628-.658 1.173 0a2.789 2.789 0 0 0 2.767 1.141c.812-.071.851-.028.78.783a2.8 2.8 0 0 0 1.139 2.77c.658.547.658.632 0 1.179a2.8 2.8 0 0 0-1.139 2.77c.071.811.032.855-.78.783a3.387 3.387 0 0 0-1.6.116 3.233 3.233 0 0 0-1.172 1.026 3 3 0 0 1-.587.6 3 3 0 0 1-.586-.6 3.234 3.234 0 0 0-1.172-1.026 3.549 3.549 0 0 0-1.59-.116zm3.7 11.987a.81.81 0 0 0-.684 0l-1.171.545v-9.98a1.811 1.811 0 0 0 3.026 0v9.98z"/><path data-name="Контур 2060" d="M10.512 11.713h27.942a.811.811 0 0 0 0-1.621H10.512a.811.811 0 0 0 0 1.621z"/><path data-name="Контур 2061" d="M45.635 15.833a.81.81 0 0 0-.811-.811H10.511a.811.811 0 0 0 0 1.621h34.31a.81.81 0 0 0 .814-.81z"/><path data-name="Контур 2062" d="M30.815 20.763a.81.81 0 0 0-.811-.811H10.511a.811.811 0 0 0 0 1.621h19.494a.811.811 0 0 0 .81-.81z"/><path data-name="Контур 2063" d="M20.172 32.061h-1.326c-.85 0-1.318-.226-1.492-1.128-.159-.823-1.346-.718-1.563 0-.1.318-.583 1.229-1.007 1.154-.225-.039-.323-.387-.407-.567a6.912 6.912 0 0 1-.381-1.093c-.427-1.571-.512-3.211-.779-4.811-.155-.928-1.569-.666-1.592.215a24.8 24.8 0 0 1-1.531 8.206c-.371.976 1.2 1.4 1.563.431a22.919 22.919 0 0 0 .928-3.107 8.222 8.222 0 0 0 .464 1.127 1.929 1.929 0 0 0 2.472 1.073 2.766 2.766 0 0 0 .991-.724c.767.884 1.908.844 2.972.843q2.407 0 4.814-.01a.811.811 0 0 0 0-1.621l-4.127.009z"/><path data-name="Контур 2064" d="M39.921 32.199a3.166 3.166 0 1 0-3.166-3.166 3.17 3.17 0 0 0 3.166 3.166zm0-4.711a1.545 1.545 0 1 1-1.545 1.545 1.547 1.547 0 0 1 1.545-1.545z"/></g></svg>