<svg xmlns="http://www.w3.org/2000/svg" width="29.095" height="29.095" viewBox="0 0 29.095 29.095"><g opacity=".5"><path data-name="Контур 2056" d="M28.262 3.977a1.1 1.1 0 0 0-1.55 0l-13.155 13.12-4.746-5.155a1.1 1.1 0 1 0-1.613 1.485l5.519 5.994a1.1 1.1 0 0 0 .783.353h.023a1.1 1.1 0 0 0 .774-.32L28.26 5.528a1.1 1.1 0 0 0 .002-1.551z"/><path data-name="Контур 2057" d="M28 13.451a1.1 1.1 0 0 0-1.1 1.1A12.354 12.354 0 1 1 14.547 2.193a1.1 1.1 0 1 0 0-2.193 14.547 14.547 0 1 0 14.548 14.547A1.1 1.1 0 0 0 28 13.451z"/></g></svg>