<svg xmlns="http://www.w3.org/2000/svg" width="78.379" height="78.379" viewBox="0 0 78.379 78.379"><path data-name="Контур 2056" d="M76.142 10.715a2.953 2.953 0 0 0-4.177 0L36.527 46.059l-12.79-13.891a2.954 2.954 0 0 0-4.346 4L34.259 52.32a2.95 2.95 0 0 0 2.11.952h.063a2.957 2.957 0 0 0 2.085-.862l37.615-37.517a2.954 2.954 0 0 0 .01-4.178z" fill="#84c44c"/><path data-name="Контур 2057" d="M75.425 36.235a2.954 2.954 0 0 0-2.954 2.954A33.281 33.281 0 1 1 39.189 5.908a2.954 2.954 0 1 0 0-5.908 39.189 39.189 0 1 0 39.19 39.189 2.954 2.954 0 0 0-2.954-2.954z" fill="#84c44c"/></svg>