<svg xmlns="http://www.w3.org/2000/svg" width="25.582" height="25.582" viewBox="0 0 25.582 25.582"><path data-name="Контур 1967" d="M24.85 3.498a.964.964 0 0 0-1.363 0L11.92 15.032 7.747 10.5a.964.964 0 0 0-1.419 1.306l4.853 5.27a.963.963 0 0 0 .689.311h.021a.965.965 0 0 0 .681-.281L24.849 4.861a.964.964 0 0 0 .001-1.363z" fill="#fff"/><path data-name="Контур 1968" d="M24.618 11.827a.964.964 0 0 0-.964.964A10.863 10.863 0 1 1 12.791 1.928a.964.964 0 1 0 0-1.928 12.791 12.791 0 1 0 12.791 12.791.964.964 0 0 0-.964-.964z" fill="#fff"/></svg>