<svg xmlns="http://www.w3.org/2000/svg" width="55.5" height="56.163" viewBox="0 0 55.5 56.163"><g data-name="Сгруппировать 3041" fill="#0160b2"><path data-name="Контур 2070" d="M3.192 54.518H.823a.823.823 0 0 0 0 1.645h2.369a.823.823 0 0 0 0-1.645z"/><path data-name="Контур 2071" d="M7.044 54.518h-.923a.823.823 0 0 0 0 1.645h.923a.823.823 0 0 0 0-1.645z"/><path data-name="Контур 2072" d="M11.352 51.464H.823a.823.823 0 1 0 0 1.645h10.529a.823.823 0 0 0 0-1.645z"/><path data-name="Контур 2073" d="M5.605 1.645h2.369a.823.823 0 1 0 0-1.645H5.605a.823.823 0 1 0 0 1.645z"/><path data-name="Контур 2074" d="M10.903 1.645h.923a.823.823 0 1 0 0-1.645h-.923a.823.823 0 1 0 0 1.645z"/><path data-name="Контур 2075" d="M5.605 4.698h10.529a.823.823 0 0 0 0-1.645H5.605a.823.823 0 0 0 0 1.645z"/><path data-name="Контур 2076" d="M28.426 20.374h7.2a.823.823 0 0 0 .582-.241l4.287-4.287a12.557 12.557 0 0 1 2.849 7.375 1.477 1.477 0 0 0 1.475 1.414h1.657a.823.823 0 0 0 0-1.645h-1.5a14.235 14.235 0 0 0-3.3-8.33l1.191-1.191a.823.823 0 0 0-1.164-1.163l-1.154 1.154a14.246 14.246 0 0 0-9.025-3.918V2.751a21.1 21.1 0 0 1 20.24 20.24h-1.639a.823.823 0 1 0 0 1.645h1.818a1.478 1.478 0 0 0 1.478-1.522A22.747 22.747 0 0 0 31.407 1.1a1.478 1.478 0 0 0-1.522 1.477v7.124a1.477 1.477 0 0 0 1.414 1.475 12.6 12.6 0 0 1 8.075 3.464l-4.088 4.088h-6.859a.823.823 0 0 0 0 1.646z"/><path data-name="Контур 2077" d="M28.426 26.695h2.369a.823.823 0 1 0 0-1.645h-2.369a.823.823 0 1 0 0 1.645z"/><path data-name="Контур 2078" d="M33.724 25.05a.823.823 0 1 0 0 1.645h.923a.823.823 0 1 0 0-1.645z"/><path data-name="Контур 2079" d="M28.426 23.642h9.573a.823.823 0 1 0 0-1.645h-9.573a.823.823 0 0 0 0 1.645z"/><path data-name="Контур 2080" d="M46.895 44.542a.823.823 0 0 0 .582.241h7.2a.823.823 0 0 0 0-1.645h-6.859l-2.932-2.935a22.575 22.575 0 0 0 2.47-9.628 1.478 1.478 0 0 0-1.48-1.52h-7.122a1.478 1.478 0 0 0-1.478 1.416 12.585 12.585 0 0 1-6.554 10.522l-3.116-3.116a.823.823 0 0 0-.582-.241h-6.941a.823.823 0 1 0 0 1.645h6.6l2.441 2.441a12.739 12.739 0 0 1-4.478.806h-.194a12.645 12.645 0 0 1-7.976-3.008.823.823 0 1 0-1.065 1.254 14.307 14.307 0 0 0 8.4 3.375v6.79a20.943 20.943 0 0 1-12.1-4.455l2.565-2.552a.823.823 0 0 0-1.164-1.163l-2.649 2.649a21.056 21.056 0 0 1-6.887-14.715h6.79a14.191 14.191 0 0 0 2.448 7.189.823.823 0 0 0 1.36-.926 12.63 12.63 0 0 1 9.7-19.711 1.482 1.482 0 0 0 1.395-1.475v-1.669a.823.823 0 1 0-1.645 0v1.509a14.314 14.314 0 0 0-13.253 13.435H3.576a21.281 21.281 0 0 1 11.869-18.108l2.447 2.447a.823.823 0 1 0 1.164-1.163l-2-2a20.66 20.66 0 0 1 6.566-1.408v1.63a.823.823 0 1 0 1.645 0v-1.8a1.478 1.478 0 0 0-1.536-1.477 22.619 22.619 0 0 0-7.955 1.775l-2.39-2.39a.823.823 0 0 0-.582-.241h-7.2a.823.823 0 1 0 0 1.645h6.859l1.732 1.732A22.8 22.8 0 0 0 1.919 30.114a22.578 22.578 0 0 0 6.692 15.835c.221.22.446.435.675.645l-1.6 1.6H.823a.823.823 0 0 0 0 1.645h7.2a.823.823 0 0 0 .582-.241l1.934-1.934a22.522 22.522 0 0 0 13.923 4.939h.181a22.59 22.59 0 0 0 15.768-6.376 22.911 22.911 0 0 0 3.638-4.53zm-21.431 6.4V44.15a14.2 14.2 0 0 0 4.912-1.176l2.3 2.3a.823.823 0 1 0 1.164-1.163l-1.931-1.931a14.411 14.411 0 0 0 2.537-1.915c.122-.115.241-.233.358-.351 1.543 1.538 3.142 3.135 4.77 4.765a21.081 21.081 0 0 1-14.114 6.257zm15.228-7.469a2672.636 2672.636 0 0 0-4.793-4.788 14.186 14.186 0 0 0 3.015-7.982h6.791a20.752 20.752 0 0 1-2.067 8.258l-1.249-1.249a.823.823 0 1 0-1.163 1.161l1.6 1.6a21.35 21.35 0 0 1-2.135 3z"/><path data-name="Контур 2081" d="M54.677 49.458h-2.369a.823.823 0 0 0 0 1.645h2.369a.823.823 0 0 0 0-1.645z"/><path data-name="Контур 2082" d="M49.379 49.458h-.923a.823.823 0 0 0 0 1.645h.923a.823.823 0 1 0 0-1.645z"/><path data-name="Контур 2083" d="M54.674 46.405h-9.57a.823.823 0 0 0 0 1.645h9.57a.823.823 0 0 0 0-1.645z"/><path data-name="Контур 2084" d="M20.083 32.547h2.369a.823.823 0 1 0 0-1.645h-2.369a.823.823 0 1 0 0 1.645z"/><path data-name="Контур 2085" d="M24.558 31.725a.823.823 0 0 0 .823.823h.923a.823.823 0 1 0 0-1.645h-.923a.823.823 0 0 0-.823.822z"/><path data-name="Контур 2086" d="M20.083 35.6h10.051a.823.823 0 0 0 0-1.645H20.083a.823.823 0 1 0 0 1.645z"/></g></svg>