<svg xmlns="http://www.w3.org/2000/svg" width="54" height="54" viewBox="0 0 54 54"><g data-name="Сгруппировать 3315" fill="#0160b2" stroke="#fff" transform="translate(.5 .5)"><path data-name="Контур 2200" d="M28.881 37.68a4.145 4.145 0 0 0 4.141 4.141h4.865a4.145 4.145 0 0 0 4.141-4.141v-4.865a4.145 4.145 0 0 0-4.141-4.141h-4.865a4.145 4.145 0 0 0-4.141 4.141zm4.141-4.865h4.865v4.865h-4.868z"/><circle data-name="Эллипс 233" cx="2" cy="2" r="2" transform="translate(38 20)"/><circle data-name="Эллипс 234" cx="2" cy="2" r="2" transform="translate(29 20)"/><path data-name="Контур 2201" d="M50.93 36.438A2.07 2.07 0 0 0 53 34.367V12.422a8.291 8.291 0 0 0-8.281-8.281h-2.692V2.07a2.07 2.07 0 0 0-4.141 0v2.07h-9.42V2.07a2.07 2.07 0 0 0-4.141 0v2.07H15.01V2.07a2.07 2.07 0 0 0-4.141 0v2.07H8.281A8.291 8.291 0 0 0 0 12.422v32.3A8.291 8.291 0 0 0 8.281 53h36.438A8.291 8.291 0 0 0 53 44.719a2.07 2.07 0 0 0-4.141 0 4.145 4.145 0 0 1-4.141 4.141H8.281a4.145 4.145 0 0 1-4.141-4.141v-32.3a4.145 4.145 0 0 1 4.141-4.138h2.588v2.07a2.07 2.07 0 0 0 4.141 0v-2.07h9.316v2.07a2.07 2.07 0 0 0 4.141 0v-2.07h9.42v2.07a2.07 2.07 0 0 0 4.141 0v-2.07h2.691a4.145 4.145 0 0 1 4.141 4.141v21.945a2.07 2.07 0 0 0 2.07 2.071z"/><circle data-name="Эллипс 235" cx="2" cy="2" r="2" transform="translate(11 38)"/><circle data-name="Эллипс 236" cx="2" cy="2" r="2" transform="translate(11 20)"/><circle data-name="Эллипс 237" cx="2" cy="2" r="2" transform="translate(11 29)"/><circle data-name="Эллипс 238" cx="2" cy="2" r="2" transform="translate(20 29)"/><circle data-name="Эллипс 239" cx="2" cy="2" r="2" transform="translate(20 20)"/><circle data-name="Эллипс 240" cx="2" cy="2" r="2" transform="translate(20 38)"/></g></svg>