<svg xmlns="http://www.w3.org/2000/svg" width="53" height="53" viewBox="0 0 53 53"><path data-name="Контур 2198" d="M26.5 53A26.5 26.5 0 1 1 53 26.5 26.529 26.529 0 0 1 26.5 53zm0-49.687A23.188 23.188 0 1 0 49.688 26.5 23.213 23.213 0 0 0 26.5 3.313zm0 0" fill="#0160b2"/><path data-name="Контур 2199" d="M38.094 40.857a1.644 1.644 0 0 1-1.171-.486L25.329 28.777a1.656 1.656 0 0 1-.486-1.17V12.145a1.657 1.657 0 1 1 3.313 0v14.772l11.108 11.108a1.657 1.657 0 0 1-1.171 2.829zm0 0" fill="#0160b2"/></svg>