<svg xmlns="http://www.w3.org/2000/svg" width="48.788" height="61.645" viewBox="0 0 48.788 61.645"><path data-name="Контур 2288" d="M42.189 40.273l-3.618-1.062L30.7 34.07v-1.178a10.476 10.476 0 0 0 4.135-7.358 2.4 2.4 0 0 0 2.019-2.371v-3.24-4.137a1.78 1.78 0 0 0 .744-1.453v-3.759l5.432-.925a1.926 1.926 0 0 0 .26-3.733L24.976.091a1.916 1.916 0 0 0-1.168 0L5.496 5.916a1.932 1.932 0 0 0-.6 3.362v4.911h-.045a1.872 1.872 0 0 0-1.87 1.87V18.5l-1.207 7.086a2.01 2.01 0 0 0 1.981 2.347h4.088a2.01 2.01 0 0 0 1.981-2.347L8.613 18.5v-2.442a1.872 1.872 0 0 0-1.87-1.87h-.045V9.81l4.49.765v3.755a1.782 1.782 0 0 0 .741 1.45v7.383a2.4 2.4 0 0 0 2.019 2.371 10.477 10.477 0 0 0 4.131 7.355v1.184l-7.866 5.139-3.615 1.061a9.182 9.182 0 0 0-6.6 8.815v2.692a.903.903 0 1 0 1.806 0v-2.692a7.421 7.421 0 0 1 5.3-7.082l3.368-.989 13.456 8a.914.914 0 0 0 .922 0l13.457-8 3.368.989a7.422 7.422 0 0 1 5.3 7.082v8.721a2.031 2.031 0 0 1-2.029 2.029h-3.98v-3.892a.903.903 0 0 0-1.806 0v3.892H9.613v-3.892a.903.903 0 0 0-1.806 0v3.892H3.835a2.031 2.031 0 0 1-2.029-2.029V56A.903.903 0 0 0 0 56v1.809a3.839 3.839 0 0 0 3.835 3.835h41.119a3.839 3.839 0 0 0 3.835-3.835v-8.721a9.182 9.182 0 0 0-6.6-8.815zM7.843 26.123H3.756a.2.2 0 0 1-.2-.238l1.092-6.41h2.306l1.092 6.409a.2.2 0 0 1-.203.239zm-1.03-10.065v1.611H4.787v-1.611a.064.064 0 0 1 .064-.064h1.9a.064.064 0 0 1 .062.064zm14.352 28.871l.359.552L12.305 40l5.851-3.822a18.967 18.967 0 0 0 3.009 8.751zm-.006-3.9a23.219 23.219 0 0 0 6.471 0 17.245 17.245 0 0 1-1.52 2.913l-1.716 2.637-1.716-2.637a17.246 17.246 0 0 1-1.52-2.913zm6.465 3.9a18.966 18.966 0 0 0 3.008-8.747L36.483 40l-9.219 5.478zm5.282-28.81h2.14v2.9h-1.062a1.079 1.079 0 0 1-1.078-1.078v-1.822zM6.044 7.637l18.312-5.825a.119.119 0 0 1 .073 0l18.312 5.825a.1.1 0 0 1 .083.122c-.007.094-.06.1-.1.11L36.67 8.9l-2.273-.281a.903.903 0 1 0-.222 1.792l1.615.2v3.7H12.998v-3.7l9.344-1.156a16.726 16.726 0 0 1 4.1 0l3.536.437a.903.903 0 1 0 .223-1.792l-3.536-.437a18.524 18.524 0 0 0-4.544 0L12.113 8.9 6.06 7.869c-.039-.007-.093-.016-.1-.11a.1.1 0 0 1 .083-.122zm7.7 11.383v-2.9h2.139v1.824a1.079 1.079 0 0 1-1.078 1.078H13.74zm1.987 6.049a1.4 1.4 0 0 0-1.391-1.311.6.6 0 0 1-.6-.6v-2.332h1.064a2.887 2.887 0 0 0 2.884-2.884v-1.823H31.1v1.824a2.887 2.887 0 0 0 2.884 2.884h1.064v2.336a.6.6 0 0 1-.6.6 1.4 1.4 0 0 0-1.391 1.311 8.684 8.684 0 0 1-17.333 0zm8.667 9.937a10.422 10.422 0 0 0 4.5-1.02v.572a17.209 17.209 0 0 1-.609 4.536 21.322 21.322 0 0 1-7.782 0 17.208 17.208 0 0 1-.609-4.536v-.057-.517a10.424 10.424 0 0 0 4.496 1.022z" fill="#9ad8ff"/></svg>