<svg xmlns="http://www.w3.org/2000/svg" width="64.337" height="51.885" viewBox="0 0 64.337 51.885"><path data-name="Контур 2303" d="M60.7 0H3.632A3.636 3.636 0 0 0 0 3.632v44.62a3.636 3.636 0 0 0 3.632 3.632H60.7a3.636 3.636 0 0 0 3.632-3.632V3.632A3.636 3.636 0 0 0 60.7 0zm1.557 48.252a1.558 1.558 0 0 1-1.557 1.557H3.632a1.558 1.558 0 0 1-1.557-1.557v-4.67h60.186zm0-6.745H2.075V8.3h60.186zm0-35.281H2.075V3.632a1.558 1.558 0 0 1 1.557-1.557H60.7a1.558 1.558 0 0 1 1.557 1.557z" fill="#9ad8ff"/><path data-name="Контур 2304" d="M4.151 5.188h1.038a1.038 1.038 0 1 0 0-2.075H4.151a1.038 1.038 0 1 0 0 2.075z" fill="#9ad8ff"/><path data-name="Контур 2305" d="M8.302 5.188H9.34a1.038 1.038 0 1 0 0-2.075H8.302a1.038 1.038 0 1 0 0 2.075z" fill="#9ad8ff"/><path data-name="Контур 2306" d="M12.453 5.188h1.038a1.038 1.038 0 1 0 0-2.075h-1.038a1.038 1.038 0 0 0 0 2.075z" fill="#9ad8ff"/><path data-name="Контур 2307" d="M32.169 14.528a11.415 11.415 0 1 0 11.415 11.415 11.415 11.415 0 0 0-11.415-11.415zm0 20.754a9.339 9.339 0 1 1 9.339-9.339 9.339 9.339 0 0 1-9.339 9.339z" fill="#9ad8ff"/><path data-name="Контур 2308" d="M36.895 25.078l-6.226-4.151a1.039 1.039 0 0 0-1.614.864v8.3a1.038 1.038 0 0 0 1.614.864l6.226-4.151a1.039 1.039 0 0 0 0-1.728zm-5.764 3.075V23.73l3.318 2.212z" fill="#9ad8ff"/><path data-name="Контур 2309" d="M56.035 45.659H14.528a1.038 1.038 0 1 0-2.075 0H8.302a1.038 1.038 0 1 0 0 2.075h4.151a1.038 1.038 0 0 0 2.075 0h41.507a1.038 1.038 0 1 0 0-2.075z" fill="#9ad8ff"/></svg>