<svg xmlns="http://www.w3.org/2000/svg" width="58.281" height="61.645" viewBox="0 0 58.281 61.645"><g fill="#9ad8ff"><path data-name="Контур 2276" d="M2.691 49.316h11.43a2.7 2.7 0 0 0 2.691-2.691V43.04a2.7 2.7 0 0 0-2.691-2.691H2.691A2.694 2.694 0 0 0 0 43.04v3.585a2.694 2.694 0 0 0 2.691 2.691zm-.45-6.275a.45.45 0 0 1 .45-.45h11.43a.45.45 0 0 1 .449.45v3.584a.45.45 0 0 1-.449.45H2.691a.45.45 0 0 1-.45-.45zm0 0"/><path data-name="Контур 2277" d="M2.691 39.228h11.43a2.7 2.7 0 0 0 2.691-2.691v-3.584a2.7 2.7 0 0 0-2.691-2.692H2.691A2.694 2.694 0 0 0 0 32.953v3.584a2.694 2.694 0 0 0 2.691 2.691zm-.45-6.275a.45.45 0 0 1 .45-.45h11.43a.45.45 0 0 1 .449.45v3.584a.45.45 0 0 1-.449.45H2.691a.45.45 0 0 1-.45-.45zm0 0"/><path data-name="Контур 2278" d="M22.861 49.316h11.43a2.7 2.7 0 0 0 2.691-2.691V43.04a2.7 2.7 0 0 0-2.691-2.691h-11.43a2.7 2.7 0 0 0-2.691 2.691v3.585a2.7 2.7 0 0 0 2.691 2.691zm-.45-6.275a.45.45 0 0 1 .45-.45h11.43a.45.45 0 0 1 .45.45v3.584a.45.45 0 0 1-.45.45h-11.43a.45.45 0 0 1-.45-.45zm0 0"/><path data-name="Контур 2279" d="M22.861 39.228h11.43a2.7 2.7 0 0 0 2.691-2.691v-3.584a2.7 2.7 0 0 0-2.691-2.692h-11.43a2.7 2.7 0 0 0-2.691 2.692v3.584a2.7 2.7 0 0 0 2.691 2.691zm-.45-6.275a.45.45 0 0 1 .45-.45h11.43a.45.45 0 0 1 .45.45v3.584a.45.45 0 0 1-.45.45h-11.43a.45.45 0 0 1-.45-.45zm0 0"/><path data-name="Контур 2280" d="M22.861 29.14h11.43a2.694 2.694 0 0 0 2.691-2.691v-3.584a2.694 2.694 0 0 0-2.691-2.691h-11.43a2.694 2.694 0 0 0-2.691 2.691v3.584a2.694 2.694 0 0 0 2.691 2.691zm-.45-6.275a.45.45 0 0 1 .45-.449h11.43a.45.45 0 0 1 .45.449v3.585a.45.45 0 0 1-.45.449h-11.43a.45.45 0 0 1-.45-.449zm0 0"/><path data-name="Контур 2281" d="M22.861 19.054h11.43a2.7 2.7 0 0 0 2.691-2.691v-3.584a2.694 2.694 0 0 0-2.691-2.691h-11.43a2.694 2.694 0 0 0-2.691 2.691v3.584a2.7 2.7 0 0 0 2.691 2.691zm-.45-6.275a.45.45 0 0 1 .45-.45h11.43a.45.45 0 0 1 .45.45v3.584a.45.45 0 0 1-.45.45h-11.43a.45.45 0 0 1-.45-.45zm0 0"/><path data-name="Контур 2282" d="M43.039 49.316h11.43a2.7 2.7 0 0 0 2.691-2.691V43.04a2.7 2.7 0 0 0-2.691-2.691h-11.43a2.7 2.7 0 0 0-2.691 2.691v3.585a2.7 2.7 0 0 0 2.691 2.691zm-.449-6.275a.45.45 0 0 1 .449-.45h11.43a.45.45 0 0 1 .45.45v3.584a.45.45 0 0 1-.45.45h-11.43a.45.45 0 0 1-.449-.45zm0 0"/><path data-name="Контур 2283" d="M43.039 39.228h11.43a2.7 2.7 0 0 0 2.691-2.691v-3.584a2.7 2.7 0 0 0-2.691-2.692h-11.43a2.7 2.7 0 0 0-2.691 2.692v3.584a2.7 2.7 0 0 0 2.691 2.691zm-.449-6.275a.45.45 0 0 1 .449-.45h11.43a.45.45 0 0 1 .45.45v3.584a.45.45 0 0 1-.45.45h-11.43a.45.45 0 0 1-.449-.45zm0 0"/><path data-name="Контур 2284" d="M43.039 29.14h11.43a2.694 2.694 0 0 0 2.691-2.691v-3.584a2.694 2.694 0 0 0-2.691-2.691h-11.43a2.694 2.694 0 0 0-2.691 2.691v3.584a2.694 2.694 0 0 0 2.691 2.691zm-.449-6.275a.449.449 0 0 1 .449-.449h11.43a.45.45 0 0 1 .45.449v3.585a.45.45 0 0 1-.45.449h-11.43a.449.449 0 0 1-.449-.449zm0 0"/><path data-name="Контур 2285" d="M43.039 19.054h11.43a2.7 2.7 0 0 0 2.691-2.691v-3.584a2.694 2.694 0 0 0-2.691-2.691h-11.43a2.694 2.694 0 0 0-2.691 2.691v3.584a2.7 2.7 0 0 0 2.691 2.691zm-.449-6.275a.45.45 0 0 1 .449-.45h11.43a.45.45 0 0 1 .45.45v3.584a.45.45 0 0 1-.45.45h-11.43a.45.45 0 0 1-.449-.45zm0 0"/><path data-name="Контур 2286" d="M22.861 8.966h11.43a2.7 2.7 0 0 0 2.691-2.691V2.691A2.7 2.7 0 0 0 34.296 0H22.861a2.7 2.7 0 0 0-2.691 2.691v3.584a2.7 2.7 0 0 0 2.691 2.691zm-.45-6.275a.45.45 0 0 1 .45-.45h11.43a.45.45 0 0 1 .45.45v3.584a.45.45 0 0 1-.45.45h-11.43a.45.45 0 0 1-.45-.45zm0 0"/><path data-name="Контур 2287" d="M55.115 52.677H3.165a3.171 3.171 0 0 0-3.166 3.167v2.633a3.17 3.17 0 0 0 3.166 3.166h51.95a3.17 3.17 0 0 0 3.166-3.166v-2.633a3.171 3.171 0 0 0-3.166-3.167zm.925 5.8a.926.926 0 0 1-.925.925H3.165a.926.926 0 0 1-.925-.925v-2.633a.926.926 0 0 1 .925-.925h51.95a.926.926 0 0 1 .925.925zm0 0"/></g></svg>