<svg xmlns="http://www.w3.org/2000/svg" width="55.068" height="56.01" viewBox="0 0 55.068 56.01"><path data-name="Контур 2310" d="M54.193 46.656a.877.877 0 0 0 .877-.877V9.3a.887.887 0 0 0-.257-.62L46.393.257A.888.888 0 0 0 45.772 0H11.16a2.751 2.751 0 0 0-2.748 2.748v.994H.87a.884.884 0 0 0-.62 1.5L7.113 12.1.25 18.966a.884.884 0 0 0 .62 1.5h7.542v32.8a2.751 2.751 0 0 0 2.748 2.748h41.16a2.751 2.751 0 0 0 2.748-2.748v-3.745a.877.877 0 0 0-1.754 0v3.742a1 1 0 0 1-.994.994H11.16a1 1 0 0 1-.994-.994v-32.8h5.671a.877.877 0 1 0 0-1.754H2.987l5.987-5.987a.877.877 0 0 0 0-1.24L2.987 5.5h38.166v13.209H19.579a.877.877 0 0 0 0 1.754H42.03a.877.877 0 0 0 .877-.877V4.619a.877.877 0 0 0-.877-.877H10.166v-.994a1 1 0 0 1 .994-.994h33.733v5.671a2.751 2.751 0 0 0 2.748 2.748h5.671v35.606a.877.877 0 0 0 .881.877zm-6.55-38.237a1 1 0 0 1-.994-.994V2.994l5.425 5.425z" fill="#9ad8ff"/><path data-name="Контур 2311" d="M21.45 8.419h-3.742a.877.877 0 0 0-.877.877v5.613a.877.877 0 0 0 1.754 0v-1.932h2.864a.877.877 0 0 0 .877-.877V9.296a.877.877 0 0 0-.876-.877zm-.877 2.806h-1.987v-1.052h1.988z" fill="#9ad8ff"/><path data-name="Контур 2312" d="M27.999 8.419h-3.742a.877.877 0 0 0-.877.877v5.613a.877.877 0 0 0 1.754 0v-1.932h2.864a.877.877 0 0 0 .877-.877V9.296a.877.877 0 0 0-.876-.877zm-.877 2.806h-1.987v-1.052h1.988z" fill="#9ad8ff"/><path data-name="Контур 2313" d="M34.547 8.419h-3.742a.877.877 0 0 0 0 1.754h.994v4.736a.877.877 0 0 0 1.754 0v-4.736h.994a.877.877 0 1 0 0-1.754z" fill="#9ad8ff"/><path data-name="Контур 2314" d="M47.644 23.386H25.193a.877.877 0 1 0 0 1.754h21.574v1.988H16.715V25.14h4.736a.877.877 0 0 0 0-1.754h-5.613a.877.877 0 0 0-.877.877v3.744a.877.877 0 0 0 .877.877h.994v15.961a.877.877 0 0 0 .877.877h13.155v3.168l-2.207.736a.877.877 0 0 0 .555 1.664l2.529-.843 2.529.843a.877.877 0 0 0 .555-1.664l-2.207-.736v-3.168h13.155a.877.877 0 0 0 .877-.877V28.882h.994a.877.877 0 0 0 .877-.877v-3.742a.877.877 0 0 0-.877-.877zm-2.746 20.58h-26.31V28.882h26.31z" fill="#9ad8ff"/><path data-name="Контур 2315" d="M28.934 29.935a6.49 6.49 0 1 0 6.49 6.49 6.5 6.5 0 0 0-6.49-6.49zm.877 1.835a4.75 4.75 0 0 1 3.777 3.777h-3.777zm-.877 9.39a4.736 4.736 0 0 1-.877-9.39v4.654a.877.877 0 0 0 .877.877h4.654a4.744 4.744 0 0 1-4.654 3.86z" fill="#9ad8ff"/><path data-name="Контур 2316" d="M40.159 31.806h-2.806a.877.877 0 0 0 0 1.754h2.806a.877.877 0 0 0 0-1.754z" fill="#9ad8ff"/><path data-name="Контур 2317" d="M40.159 35.547h-2.806a.877.877 0 1 0 0 1.754h2.806a.877.877 0 0 0 0-1.754z" fill="#9ad8ff"/><path data-name="Контур 2318" d="M40.159 39.289h-2.806a.877.877 0 1 0 0 1.754h2.806a.877.877 0 0 0 0-1.754z" fill="#9ad8ff"/></svg>