<svg xmlns="http://www.w3.org/2000/svg" width="61.663" height="61.645" viewBox="0 0 61.663 61.645"><path data-name="Контур 2289" d="M50.696 18.172a1.2 1.2 0 1 0 .353.851 1.212 1.212 0 0 0-.353-.851z" fill="#9ad8ff"/><path data-name="Контур 2290" d="M49.845 15.471a1.2 1.2 0 0 0 1.2-1.2V3.612A3.616 3.616 0 0 0 47.437 0H3.612A3.616 3.616 0 0 0 0 3.612v54.42a3.616 3.616 0 0 0 3.612 3.612h43.825a3.616 3.616 0 0 0 3.612-3.612v-5.408a1.204 1.204 0 0 0-2.408 0v5.408a1.205 1.205 0 0 1-1.2 1.2H3.612a1.205 1.205 0 0 1-1.2-1.2V3.612a1.205 1.205 0 0 1 1.2-1.2h43.825a1.205 1.205 0 0 1 1.2 1.2v10.655a1.2 1.2 0 0 0 1.208 1.204z" fill="#9ad8ff"/><path data-name="Контур 2291" d="M60.606 48.424l-6.211-6.211a13.231 13.231 0 0 0-11.556-19.684h-.218v-6.621a1.2 1.2 0 0 0-1.2-1.2h-7.04v-6.5a1.2 1.2 0 0 0-1.2-1.2h-8.24a1.2 1.2 0 0 0-1.2 1.2v7.224h-7.046a1.2 1.2 0 0 0-1.2 1.2v6.5H9.632a1.2 1.2 0 0 0-1.2 1.2v6.5a1.2 1.2 0 0 0 1.2 1.2h20.505a13.232 13.232 0 0 0 19.149 15.28l6.17 6.17a3.688 3.688 0 0 0 2.613 1.093 3.608 3.608 0 0 0 2.536-6.161zM15.491 29.633h-4.655v-4.094h4.655v4.094zm8.241 0h-5.833v-11.8h5.833zm2.408 0V9.408h5.833v12.5a1.204 1.204 0 1 0 2.408 0v-4.8h5.833v5.68a13.281 13.281 0 0 0-9.1 6.841zm16.7 16.961a10.828 10.828 0 1 1 10.828-10.828 10.841 10.841 0 0 1-10.829 10.828zm16.032 5.267a1.244 1.244 0 0 1-1.711-.072l-5.856-5.856a13.363 13.363 0 0 0 1.7-1.7l5.9 5.9a1.2 1.2 0 0 1-.033 1.734z" fill="#9ad8ff"/><path data-name="Контур 2292" d="M45.973 29.612a1.2 1.2 0 0 0-1.64.457l-6.474 11.467a1.205 1.205 0 1 0 2.1 1.184l6.474-11.467a1.2 1.2 0 0 0-.46-1.641z" fill="#9ad8ff"/><path data-name="Контур 2293" d="M47.046 36.794a3.612 3.612 0 1 0 3.612 3.612 3.616 3.616 0 0 0-3.612-3.612zm0 4.816a1.2 1.2 0 1 1 1.2-1.2 1.205 1.205 0 0 1-1.2 1.198z" fill="#9ad8ff"/><path data-name="Контур 2294" d="M38.632 27.514a3.612 3.612 0 1 0 3.612 3.612 3.616 3.616 0 0 0-3.612-3.612zm0 4.816a1.2 1.2 0 1 1 1.2-1.2 1.205 1.205 0 0 1-1.2 1.2z" fill="#9ad8ff"/><path data-name="Контур 2295" d="M41.04 52.734H7.706a1.204 1.204 0 0 0 0 2.408H41.04a1.204 1.204 0 0 0 0-2.408z" fill="#9ad8ff"/><path data-name="Контур 2296" d="M25.524 45.992h-7.465a1.204 1.204 0 1 0 0 2.408h7.465a1.204 1.204 0 1 0 0-2.408z" fill="#9ad8ff"/><path data-name="Контур 2297" d="M30.79 46.345a1.2 1.2 0 1 0 .353.851 1.213 1.213 0 0 0-.353-.851z" fill="#9ad8ff"/><path data-name="Контур 2298" d="M25.524 39.25h-7.465a1.204 1.204 0 1 0 0 2.408h7.465a1.204 1.204 0 1 0 0-2.408z" fill="#9ad8ff"/><path data-name="Контур 2299" d="M10.355 42.319a1.221 1.221 0 1 1 1.445-1.2 1.204 1.204 0 1 0 2.408 0 3.645 3.645 0 0 0-2.65-3.427 1.203 1.203 0 0 0-2.406 0 3.645 3.645 0 0 0-2.65 3.427 3.741 3.741 0 0 0 3.853 3.608 1.221 1.221 0 1 1-1.445 1.2 1.204 1.204 0 1 0-2.408 0 3.645 3.645 0 0 0 2.649 3.426v.07a1.204 1.204 0 0 0 2.408 0v-.07a3.645 3.645 0 0 0 2.649-3.426 3.741 3.741 0 0 0-3.853-3.608z" fill="#9ad8ff"/></svg>