<svg xmlns="http://www.w3.org/2000/svg" width="65.21" height="59.795" viewBox="0 0 65.21 59.795"><path data-name="Контур 2319" d="M61.814 53.005h-1.678a10.11 10.11 0 0 1 0-8.22h1.68a3.4 3.4 0 0 0 0-6.791h-6.757a5.557 5.557 0 0 0 1.383-3.671V23.684a5.588 5.588 0 0 0-5.582-5.582h-2.747a3.454 3.454 0 0 0-3.088-5h-.945a7.9 7.9 0 0 1 0-6.192h.946a3.455 3.455 0 0 0 0-6.91H12.8a10 10 0 0 0-7.07 17.077 10.179 10.179 0 0 0 1.2 1.025h-.74a3.4 3.4 0 0 0 0 6.791h1.68a10.109 10.109 0 0 1 0 8.22H6.19a3.393 3.393 0 0 0-2.79 5.325A5.591 5.591 0 0 0 0 43.575v10.639a5.586 5.586 0 0 0 5.578 5.582h56.236a3.4 3.4 0 0 0 0-6.791zm0-13.1a1.485 1.485 0 0 1 0 2.97H44.575a.955.955 0 0 0 0 1.91h13.51a12.39 12.39 0 0 0-.688 3.155 10.742 10.742 0 0 0 .69 5.065H7.067a.28.28 0 0 1-.276-.277v-7.667a.28.28 0 0 1 .276-.276h9.463v3.137a1.352 1.352 0 0 0 .68 1.447 1.37 1.37 0 0 0 1.593-.385l.015-.014 2.67-2.547 2.67 2.547.015.014a1.628 1.628 0 0 0 1.1.5 1.137 1.137 0 0 0 .5-.117 1.349 1.349 0 0 0 .675-1.448v-3.134h13.424a.955.955 0 0 0 0-1.91H26.449v-2.97h35.365zM10.607 28.047a12.406 12.406 0 0 0-.692-3.155h39.46a.28.28 0 0 1 .276.276v7.669a.28.28 0 0 1-.276.276H26.453v-3.155h6.687a.955.955 0 0 0 0-1.91H10.607zm5.921 5.065H9.913a12.49 12.49 0 0 0 .693-3.155h5.921zm8.016-3.155l-.007 16.732-2.389-2.279a.955.955 0 0 0-1.319 0l-2.389 2.278V29.956h6.106zM4.7 10.004a8.1 8.1 0 0 1 8.1-8.094h32.225a1.545 1.545 0 0 1 0 3.089H27.416a.955.955 0 0 0 0 1.91h14.628a9.718 9.718 0 0 0 0 6.192H12.8a3.1 3.1 0 1 1 0-6.192h9.911a.955.955 0 0 0 0-1.91H12.8a5.006 5.006 0 0 0 0 10.013h32.225a1.545 1.545 0 0 1 0 3.089H12.8a8.112 8.112 0 0 1-8.1-8.1zm1.49 12.979a1.485 1.485 0 0 1 0-2.97h44.67a3.675 3.675 0 0 1 3.671 3.671v10.638a3.675 3.675 0 0 1-3.671 3.671H26.451v-2.97h22.924a2.189 2.189 0 0 0 2.187-2.187V25.17a2.189 2.189 0 0 0-2.187-2.187H6.19zm0 12.041h10.338v2.97H6.19a1.485 1.485 0 0 1 0-2.97zm55.624 22.861H5.578a3.673 3.673 0 0 1-3.668-3.671V43.575a3.673 3.673 0 0 1 3.667-3.671h10.952v2.97H7.067a2.189 2.189 0 0 0-2.187 2.187v7.667a2.189 2.189 0 0 0 2.187 2.187h54.747a1.485 1.485 0 0 1 0 2.97z" fill="#9ad8ff"/></svg>