<svg xmlns="http://www.w3.org/2000/svg" width="61.644" height="61" viewBox="0 0 61.644 61"><g data-name="Сгруппировать 3513" fill="#9ad8ff"><path data-name="Контур 2300" d="M2.055 53.425v-4.11H4.11V47.26H2.055v-4.11h4.11V41.1h-4.11v-4.11H4.11v-2.059H2.055v-4.11h4.11v-2.054h-4.11v-4.11H4.11V22.6H2.055v-4.11h4.11v-2.052h-4.11v-4.11H4.11v-2.054H2.055v-4.11h4.11V4.11h-4.11V0H0v54.452a1.027 1.027 0 0 0 1.027 1.027h60.617v-2.054z"/><path data-name="Прямоугольник 749" d="M10.977 58h1v3h-1z"/><path data-name="Прямоугольник 750" d="M13.977 58h3v3h-3z"/><path data-name="Прямоугольник 751" d="M24.977 58h2v3h-2z"/><path data-name="Прямоугольник 752" d="M28.977 58h2v3h-2z"/><path data-name="Прямоугольник 753" d="M38.977 58h2v3h-2z"/><path data-name="Прямоугольник 754" d="M42.977 58h2v3h-2z"/><path data-name="Прямоугольник 755" d="M53.977 58h1v3h-1z"/><path data-name="Прямоугольник 756" d="M57.977 58h2v3h-2z"/><path data-name="Контур 2301" d="M11.112 50.711a4.123 4.123 0 0 0 6.358-3.45 4.054 4.054 0 0 0-.505-1.934l8.225-6.17a4.083 4.083 0 0 0 6.076-1.13l6.759 1.939c0 .034-.007.068-.007.1a4.11 4.11 0 1 0 8.219 0v-.007a4.11 4.11 0 0 0-.834-2.444l9.144-11.427a4.069 4.069 0 0 0 1.964.522 4.14 4.14 0 1 0-3.471-1.93l-9.247 11.558a3.949 3.949 0 0 0-.514-.2 4.11 4.11 0 0 0-4.673 1.849l-6.761-1.932c0-.034.007-.068.007-.1a4.128 4.128 0 0 0-2.959-3.966 4.086 4.086 0 0 0-4.932 5.514l-8.394 6.3a4.11 4.11 0 1 0-4.453 6.908zm45.395-30.167a2.055 2.055 0 1 1-2.055 2.055 2.055 2.055 0 0 1 2.055-2.051zM40.151 39.511a2.036 2.036 0 1 1-.082.548 1.807 1.807 0 0 1 .082-.548zM25.77 35.364a2.055 2.055 0 0 1 4.027.589v.014a1.807 1.807 0 0 1-.082.548 2.055 2.055 0 0 1-3.946-1.15zm-12.411 9.841a2.055 2.055 0 1 1-2.055 2.055 2.055 2.055 0 0 1 2.052-2.054z"/><path data-name="Контур 2302" d="M13.357 35.959a4.091 4.091 0 0 0 3.048-6.84l10.08-15.979a3.933 3.933 0 0 0 3.739-.64l8.142 6.4a4.1 4.1 0 0 0 3.758 5.761h.009a4.1 4.1 0 0 0 3.948-5.209l7.4-4.34a4.11 4.11 0 0 0 3.026 1.34h.015a4.116 4.116 0 1 0-4.125-4.11 4.222 4.222 0 0 0 .122.962l-7.468 4.37a4.117 4.117 0 0 0-2.928-1.226h-.011a4.065 4.065 0 0 0-2.466.853l-8.145-6.408a4.11 4.11 0 1 0-6.754 1.151L14.692 27.981a4.061 4.061 0 0 0-1.336-.241 4.11 4.11 0 1 0 0 8.219zm43.15-25.685a2.059 2.059 0 0 1 .007 4.117h-.007a2.055 2.055 0 0 1-1.783-1.027 2.206 2.206 0 0 1-.272-1.035 2.055 2.055 0 0 1 2.055-2.055zM42.123 18.5a2.055 2.055 0 1 1-2.055 2.055 2.055 2.055 0 0 1 2.056-2.055zM27.74 7.192a2.055 2.055 0 1 1-2.055 2.055 2.055 2.055 0 0 1 2.055-2.055zM13.357 29.795a2.055 2.055 0 1 1-2.055 2.057 2.055 2.055 0 0 1 2.055-2.057z"/></g></svg>