<svg xmlns="http://www.w3.org/2000/svg" width="58.159" height="59.795" viewBox="0 0 58.159 59.795"><g fill="#9ad8ff"><path d="M19.241 14.949h1.7a1.168 1.168 0 1 0 0-2.336h-1.7a.268.268 0 0 1-.268-.268v-1.133h1.517a1.168 1.168 0 1 0 0-2.336h-1.516V7.739a.268.268 0 0 1 .268-.268h1.7a1.168 1.168 0 1 0 0-2.336h-1.7a2.607 2.607 0 0 0-2.6 2.6v4.6a2.607 2.607 0 0 0 2.599 2.614zM27.124 12.613h-2a1.168 1.168 0 1 0 0 2.336h2a3.037 3.037 0 0 0 0-6.073h-.136a.7.7 0 0 1 0-1.4h1.344a1.168 1.168 0 1 0 0-2.336h-1.344a3.037 3.037 0 0 0 0 6.073h.136a.7.7 0 0 1 0 1.4zM14.277 5.139h-3.854a1.168 1.168 0 1 0 0 2.336h.759v6.307a1.168 1.168 0 1 0 2.336 0V7.475h.759a1.168 1.168 0 0 0 0-2.336zM32.905 7.475h.759v6.307a1.168 1.168 0 0 0 2.336 0V7.475h.759a1.168 1.168 0 0 0 0-2.336h-3.854a1.168 1.168 0 1 0 0 2.336zM13.249 19.62h-4.67a1.168 1.168 0 0 0-1.168 1.168v4.671a1.168 1.168 0 0 0 1.168 1.168h4.67a1.168 1.168 0 0 0 1.168-1.168v-4.671a1.168 1.168 0 0 0-1.168-1.168zm-1.168 4.671H9.749v-2.336h2.336zM36.977 25.46a1.168 1.168 0 1 0 .342-.826 1.176 1.176 0 0 0-.342.826zM33.474 24.292H17.886a1.168 1.168 0 0 0 0 2.336h15.591a1.168 1.168 0 0 0 0-2.336zM13.249 31.766h-4.67a1.168 1.168 0 0 0-1.168 1.168v4.671a1.168 1.168 0 0 0 1.168 1.168h4.67a1.168 1.168 0 0 0 1.168-1.168v-4.671a1.168 1.168 0 0 0-1.168-1.168zm-1.168 4.672H9.749v-2.336h2.336zM13.249 43.912h-4.67a1.168 1.168 0 0 0-1.168 1.168v4.671a1.168 1.168 0 0 0 1.168 1.168h4.67a1.168 1.168 0 0 0 1.168-1.168V45.08a1.168 1.168 0 0 0-1.168-1.168zm-1.168 4.671H9.749v-2.336h2.336zM27.912 48.584H17.886a1.168 1.168 0 1 0 0 2.336h10.029a1.168 1.168 0 1 0 0-2.336z"/><path d="M55.941 9.3a4.438 4.438 0 0 0-6.062 1.625l-1.124 1.941-1.573 2.724V3.971A3.975 3.975 0 0 0 43.211 0H3.971A3.975 3.975 0 0 0 0 3.971v51.853A3.975 3.975 0 0 0 3.971 59.8h39.24a3.975 3.975 0 0 0 3.971-3.971V33.518a1.162 1.162 0 0 0-.012-.156L56.441 17.3l1.124-1.947A4.443 4.443 0 0 0 55.941 9.3zm-2.763 1.813a2.1 2.1 0 0 1 2.365 3.082l-.54.936-3.641-2.1.54-.936a2.088 2.088 0 0 1 1.276-.987zm-14.215 31.8l-3.641-2.1 14.873-25.767 3.641 2.1zm-4.311.208l2.643 1.521-3.178 2.451zm10.194 12.71a1.637 1.637 0 0 1-1.635 1.635H3.971a1.637 1.637 0 0 1-1.635-1.635V3.971a1.637 1.637 0 0 1 1.635-1.635h39.24a1.637 1.637 0 0 1 1.635 1.635V19.634l-9.7 16.8H17.883a1.168 1.168 0 0 0 0 2.336h15.912l-1.08 1.878a1.17 1.17 0 0 0-.146.429L31.426 49.6a1.168 1.168 0 0 0 1.871 1.08l6.807-5.25a1.171 1.171 0 0 0 .3-.341l4.445-7.7z"/></g></svg>