<svg xmlns="http://www.w3.org/2000/svg" width="60" height="60" viewBox="0 0 60 60"><path data-name="Контур 2229" d="M36.914 10.664H22.852a1.758 1.758 0 0 0 0 3.516h14.062a1.758 1.758 0 0 0 0-3.516z" fill="#84c44c"/><path data-name="Контур 2230" d="M36.914 17.695H22.852a1.758 1.758 0 0 0 0 3.516h14.062a1.758 1.758 0 0 0 0-3.516z" fill="#84c44c"/><path data-name="Контур 2231" d="M36.914 24.727H8.789a1.758 1.758 0 0 0 0 3.516h28.125a1.758 1.758 0 0 0 0-3.516z" fill="#84c44c"/><path data-name="Контур 2232" d="M30.541 31.758H8.789a1.758 1.758 0 0 0 0 3.516h21.752a1.758 1.758 0 0 0 0-3.516z" fill="#84c44c"/><path data-name="Контур 2233" d="M45.82 31.758V5.273A5.369 5.369 0 0 0 40.43 0H15.82a1.774 1.774 0 0 0-1.248.52L.51 14.7A1.774 1.774 0 0 0 0 15.938v38.789A5.279 5.279 0 0 0 5.273 60H45.82a14.121 14.121 0 1 0 0-28.242zM14.063 6.027v8.153H5.977zm-8.79 50.457a1.76 1.76 0 0 1-1.758-1.758V17.7h12.3a1.758 1.758 0 0 0 1.758-1.758V3.516H40.43a1.867 1.867 0 0 1 1.87 1.757V32.2a14.223 14.223 0 0 0-8.761 6.594H8.789a1.758 1.758 0 1 0 0 3.516h23.3a13.933 13.933 0 0 0-.449 3.516H8.789a1.758 1.758 0 1 0 0 3.516h23.3a14.24 14.24 0 0 0 4.439 7.148zm40.547 0A10.807 10.807 0 0 1 35.156 45.82a10.665 10.665 0 0 1 21.328 0A10.807 10.807 0 0 1 45.82 56.484z" fill="#84c44c"/><path data-name="Контур 2234" d="M52.464 42.831a1.758 1.758 0 0 0-2.486-.021l-5.926 5.829-2.4-2.323a1.758 1.758 0 1 0-2.445 2.526l3.633 3.516a1.758 1.758 0 0 0 2.455-.01l7.148-7.031a1.758 1.758 0 0 0 .021-2.486z" fill="#84c44c"/></svg>