<svg xmlns="http://www.w3.org/2000/svg" width="85" height="85" viewBox="0 0 85 85"><g data-name="Сгруппировать 4084" transform="translate(-152 -5095)"><circle data-name="Эллипс 232" cx="42.5" cy="42.5" r="42.5" transform="translate(152 5095)" fill="#fff"/><g fill="#84c44c"><path data-name="Контур 2193" d="M189.236 5133.996a1.541 1.541 0 1 1-1.541-1.541 1.541 1.541 0 0 1 1.541 1.541zm0 0"/><path data-name="Контур 2194" d="M211.626 5122.553h-4.235v-2.585a8.963 8.963 0 0 0-8.968-8.968h-21.455a8.962 8.962 0 0 0-8.968 8.968v28.882a1.541 1.541 0 0 0 2.527 1.184l9.473-7.895h1.2v4.236a8.962 8.962 0 0 0 8.968 8.968h18.425l9.474 7.895a1.541 1.541 0 0 0 2.527-1.184v-30.533a8.962 8.962 0 0 0-8.968-8.967zm-32.183 16.5a1.541 1.541 0 0 0-.986.357l-7.375 6.15v-25.592a5.882 5.882 0 0 1 5.886-5.886h21.455a5.883 5.883 0 0 1 5.886 5.886v13.2a5.893 5.893 0 0 1-5.886 5.886zm38.069 19.711l-7.375-6.146a1.541 1.541 0 0 0-.986-.357h-18.98a5.887 5.887 0 0 1-5.886-5.886v-4.236h14.138a8.92 8.92 0 0 0 5.179-1.65h7.2a1.541 1.541 0 0 0 0-3.082h-4.477a8.9 8.9 0 0 0 1.036-3.52h3.439a1.541 1.541 0 0 0 0-3.082h-3.41v-5.17h4.236a5.885 5.885 0 0 1 5.886 5.886zm0 0"/><path data-name="Контур 2195" d="M185.11 5123.267a2.585 2.585 0 1 1 2.585 2.587 1.541 1.541 0 0 0-1.541 1.541v1.65a1.541 1.541 0 1 0 3.082 0v-.323a5.668 5.668 0 1 0-7.208-5.456 1.541 1.541 0 0 0 3.082 0zm0 0"/><path data-name="Контур 2196" d="M210.801 5144.008h-19.8a1.541 1.541 0 1 0 0 3.082h19.8a1.541 1.541 0 0 0 0-3.082zm0 0"/></g></g></svg>