<svg xmlns="http://www.w3.org/2000/svg" width="85" height="85" viewBox="0 0 85 85"><g data-name="Сгруппировать 3355" transform="translate(-152 -9679)"><circle data-name="Эллипс 232" cx="42.5" cy="42.5" r="42.5" transform="translate(152 9679)" fill="#fff"/><g fill="#727272"><path data-name="Контур 2202" d="M188.333 9709.895h-8.218a1.541 1.541 0 1 0 0 3.082h8.218a1.541 1.541 0 1 0 0-3.082z"/><path data-name="Контур 2203" d="M188.333 9718.112h-8.218a1.541 1.541 0 0 0 0 3.082h8.218a1.541 1.541 0 0 0 0-3.082z"/><path data-name="Контур 2204" d="M188.333 9726.33h-8.218a1.541 1.541 0 0 0 0 3.082h8.218a1.541 1.541 0 0 0 0-3.082z"/><path data-name="Контур 2205" d="M210.418 9723.241v-14.067a7.66 7.66 0 0 0-2.2-5.4l-6.257-6.461-.009-.013a7.754 7.754 0 0 0-5.5-2.3h-19.83a4.628 4.628 0 0 0-4.622 4.623v39.958a4.628 4.628 0 0 0 4.622 4.619h23.815a12.249 12.249 0 1 0 9.981-20.963zm-35.336 16.34v-39.958a1.543 1.543 0 0 1 1.541-1.541h19.834a4.654 4.654 0 0 1 3.294 1.378l6.249 6.464.009.009a4.6 4.6 0 0 1 1.326 3.24v14.07a12.22 12.22 0 0 0-9.242 17.88h-21.47a1.543 1.543 0 0 1-1.541-1.541zm33.8 4.931a9.143 9.143 0 1 1 9.245-9.142 9.153 9.153 0 0 1-9.25 9.142z"/><path data-name="Контур 2206" d="M212.432 9731.721a1.541 1.541 0 0 0-2.17.2l-2.6 3.121-.59-1.18a1.541 1.541 0 0 0-2.756 1.378l1.644 3.287a1.541 1.541 0 0 0 1.2.842 1.571 1.571 0 0 0 .178.01 1.541 1.541 0 0 0 1.184-.554l4.109-4.931a1.541 1.541 0 0 0-.2-2.17z"/><path data-name="Контур 2207" d="M196.551 9712.977h1.644a1.541 1.541 0 1 0 0-3.082h-1.644a1.541 1.541 0 1 0 0 3.082z"/><path data-name="Контур 2208" d="M199.735 9719.653a1.541 1.541 0 0 0-1.541-1.541h-1.644a1.541 1.541 0 0 0 0 3.082h1.644a1.541 1.541 0 0 0 1.541-1.541z"/></g></g></svg>