<svg xmlns="http://www.w3.org/2000/svg" width="43" height="43" viewBox="0 0 43 43"><path data-name="Контур 2133" d="M40.655 2.345A7.954 7.954 0 0 0 34.994 0H8.007A8.016 8.016 0 0 0 0 8.007v26.987A8.016 8.016 0 0 0 8.007 43h26.987A8.016 8.016 0 0 0 43 34.994V8.007a7.954 7.954 0 0 0-2.345-5.662zm-.175 32.649a5.493 5.493 0 0 1-5.487 5.487H8.007a5.493 5.493 0 0 1-5.487-5.487V8.006A5.493 5.493 0 0 1 8.007 2.52h26.987a5.487 5.487 0 0 1 5.486 5.487z" fill="#fff"/><path data-name="Контур 2134" d="M29.07 18.266a1.26 1.26 0 0 0-1.782 0l-4.528 4.53V9.356a1.26 1.26 0 0 0-2.52 0v13.44l-4.529-4.529a1.26 1.26 0 0 0-1.782 1.782l6.679 6.679a1.26 1.26 0 0 0 1.782 0l6.679-6.679a1.26 1.26 0 0 0 .001-1.783z" fill="#fff"/><path data-name="Контур 2135" d="M33.644 32.383H9.356a1.26 1.26 0 0 0 0 2.52h24.288a1.26 1.26 0 0 0 0-2.52z" fill="#fff"/></svg>