<svg data-name="Сгруппировать 4066" xmlns="http://www.w3.org/2000/svg" width="31.6" height="24.07" viewBox="0 0 31.6 24.07"><path data-name="Контур 2449" d="M28.822 0H2.777A2.782 2.782 0 0 0 0 2.777v18.516a2.782 2.782 0 0 0 2.777 2.777h26.045a2.782 2.782 0 0 0 2.778-2.777V2.777A2.782 2.782 0 0 0 28.822 0zm-.384 1.852l-12.58 12.58L3.17 1.852zM1.852 20.909V3.152l8.917 8.84zm1.309 1.309l8.922-8.918 3.126 3.1a.926.926 0 0 0 1.306 0l3.048-3.048 8.874 8.874zm26.587-1.309l-8.874-8.874 8.874-8.874z" fill="#fff"/><path data-name="Контур 2452" d="M28.822 0H2.777A2.782 2.782 0 0 0 0 2.777v18.516a2.782 2.782 0 0 0 2.777 2.777h26.045a2.782 2.782 0 0 0 2.778-2.777V2.777A2.782 2.782 0 0 0 28.822 0zm-.384 1.852l-12.58 12.58L3.17 1.852zM1.852 20.909V3.152l8.917 8.84zm1.309 1.309l8.922-8.918 3.126 3.1a.926.926 0 0 0 1.306 0l3.048-3.048 8.874 8.874zm26.587-1.309l-8.874-8.874 8.874-8.874z" fill="#fff"/></svg>