<svg xmlns="http://www.w3.org/2000/svg" width="28.223" height="28.224" viewBox="0 0 28.223 28.224"><g fill="#74bfff"><path data-name="Контур 2108" d="M24.079 4.145A14.1 14.1 0 0 0 1.636 20.7L.024 27.2a.827.827 0 0 0 1 1l6.5-1.612A14.1 14.1 0 0 0 24.079 4.145zM14.112 26.57a12.409 12.409 0 0 1-6.068-1.583.828.828 0 0 0-.6-.082L1.96 26.264l1.359-5.48a.827.827 0 0 0-.082-.6 12.455 12.455 0 1 1 10.875 6.39zm0 0"/><path data-name="Контур 2109" d="M21.574 16.623a7.109 7.109 0 0 0-1.848-1.438 2.3 2.3 0 0 0-2.8.405c-.347.347-.825 1.032-1.1 1.369a9.32 9.32 0 0 1-4.562-4.562c.335-.273 1.022-.753 1.369-1.1a2.3 2.3 0 0 0 .405-2.8 7.108 7.108 0 0 0-1.437-1.848c-1.116-1.139-2.837-1.223-4.323.262-1.11 1.11-2.1 3.168-.508 6.668a17.844 17.844 0 0 0 3.208 4.658l.006.006a17.834 17.834 0 0 0 4.658 3.208c2.338 1.064 4.845 1.316 6.668-.507 1.508-1.508 1.381-3.227.262-4.322zm-1.432 3.153c-1.077 1.077-2.7 1.135-4.814.171a13.969 13.969 0 0 1-7.051-7.051c-.963-2.118-.905-3.737.171-4.814.629-.629 1.352-.907 1.972-.275l.012.012c1.468 1.468 1.364 1.977 1.033 2.308-.294.294-1.163.884-1.444 1.165-.659.659-.536 1.68.365 3.033a14.217 14.217 0 0 0 1.583 1.928 14.229 14.229 0 0 0 1.928 1.583c1.354.9 2.374 1.023 3.033.365.281-.281.871-1.15 1.165-1.444.224-.224.445-.309.911-.085a6.008 6.008 0 0 1 1.4 1.117l.012.012c.636.628.353 1.346-.276 1.975zm0 0"/></g></svg>