<svg xmlns="http://www.w3.org/2000/svg" width="16.865" height="16.865" viewBox="0 0 16.865 16.865"><path data-name="Контур 15" d="M16.854.564V.556a.706.706 0 0 0-.058-.162l-.021-.04A.691.691 0 0 0 16.662.2a.693.693 0 0 0-.15-.111l-.039-.02a.7.7 0 0 0-.167-.06.7.7 0 0 0-.185-.009h-.04a.7.7 0 0 0-.181.05L.437 6.376A.7.7 0 0 0 .5 7.7l6.666 2 2 6.666a.7.7 0 0 0 .639.5h.035a.7.7 0 0 0 .65-.437L16.816.967a.687.687 0 0 0 .044-.18V.742a.71.71 0 0 0-.006-.178zM2.809 6.924L13.2 2.673 7.531 8.341zm7.133 7.133L8.525 9.334l5.666-5.666z" fill="#959595"/></svg>