<svg xmlns="http://www.w3.org/2000/svg" width="56.269" height="63.847" viewBox="0 0 56.269 63.847"><path data-name="Контур 2227" d="M56.269 18.649l-3.2-8.788a5.617 5.617 0 0 0-7.192-3.354l-5.88 2.141.028-.173a7.315 7.315 0 0 0-3.037-7 7.589 7.589 0 0 0-11.985 4.987l-.84 5.419-4.349-3.84a7.59 7.59 0 0 0-10.1 11.334c.078.07.158.138.239.205l-6.259 2.281A5.608 5.608 0 0 0 .34 29.053l3.2 8.788 3.983-1.442v21.836a5.6 5.6 0 0 0 5.591 5.612h37.4a5.618 5.618 0 0 0 5.611-5.611V29.929H25.279zm-9.111-8.627a1.873 1.873 0 0 1 2.4 1.118l1.919 5.273-17.577 6.4-2.559-7.031zm-18.456-3a3.848 3.848 0 0 1 6.078-2.535 3.59 3.59 0 0 1-.956 6.4l-3.764 1.37-2.3.837zm-.878 10.033l2.559 7.031-3.515 1.28-2.56-7.027zm-14.18-7.006a3.819 3.819 0 0 1 3.7.79l4.848 4.286-6.082 2.213a3.792 3.792 0 0 1-3.886-.752 3.847 3.847 0 0 1 1.419-6.532zM5.775 33.047l-1.919-5.273a1.87 1.87 0 0 1 1.118-2.4l15.819-5.758 2.559 7.031zm31.65.623h14.989v24.565a1.894 1.894 0 0 1-1.9 1.871H37.425zm-7.482 0h3.766v26.436h-3.766zm-3.716 0v26.436H13.109a1.873 1.873 0 0 1-1.871-1.871V35.039L15 33.67z" fill="#84c44c"/></svg>