<svg xmlns="http://www.w3.org/2000/svg" width="52.047" height="57.835" viewBox="0 0 52.047 57.835"><path d="M51.632 7.775L49.16 5.6l2.471-2.176a1.22 1.22 0 0 0-.806-2.136H40.6v-.44a.848.848 0 1 0-1.7 0v11.431l-6.962 3.78a2.682 2.682 0 0 0-.275-.89l-.981-1.915a2.682 2.682 0 0 0-3.6-1.163l-.758.388a2.678 2.678 0 0 0-1.163 3.605L26.14 18a2.662 2.662 0 0 0 .965 1.049 7.425 7.425 0 0 0-1.022 2.459l-.183.647a.847.847 0 0 0 .585 1.046.835.835 0 0 0 .231.032.848.848 0 0 0 .815-.617l.183-.646c.372-1.31.6-2.012 1.326-2.406l1.3-.707.161-.082c.053-.027.1-.058.154-.089l9.28-5.039a3.587 3.587 0 0 1-1.711 2.88l-6.035 3.667-.021.012-1.878 1.141a.848.848 0 0 0 .81 1.487l-1.425 4.308-1.042.427-2.833 1.162.816-2.886a.848.848 0 0 0-1.632-.462L23.7 29.945a.814.814 0 0 0-.03.184l-.338 6.2a2.837 2.837 0 0 1-.069.914l-3.752 7.887h-2.724a2.9 2.9 0 0 0-2.894 2.894v2.447a2.871 2.871 0 0 0-1.2-.261H5.776a2.9 2.9 0 0 0-2.893 2.89v3.036H.848a.848.848 0 1 0 0 1.7h49.977a.848.848 0 0 0 0-1.7h-2.2V34.291a2.9 2.9 0 0 0-2.898-2.891H40.6V16.61a5.286 5.286 0 0 0 .852-4.53.848.848 0 0 0-.852-.622V9.91h10.225a1.22 1.22 0 0 0 .807-2.136zm-25.025 6.787a.976.976 0 0 1 .488-.574l.758-.388a.983.983 0 0 1 1.323.427l.981 1.915a.985.985 0 0 1-.327 1.264l-.276.15-.583.3a.984.984 0 0 1-1.323-.427l-.981-1.915a.977.977 0 0 1-.06-.75zM24.9 45.391a2.877 2.877 0 0 0-.931-.248l.931-1.236zm4.025-6.83a3.194 3.194 0 0 0 .611-1.519c.023-.109.441-2.394.441-2.394s.4.247.437.264a.09.09 0 0 1 .052.074l.461 4.687H28.09zm5.013-4.679l-.716 5.787h-.591l-.477-4.849a1.786 1.786 0 0 0-1-1.433l-.852-.541.568-3.147s2.392 2.842 2.448 2.914c.5.644.665.9.619 1.269zm-9.156 4.1a4.6 4.6 0 0 0 .237-1.573l.308-5.655 3.92-1.607-.709 3.953c0 .011 0 .022-.006.032l-.59 3.264a3.229 3.229 0 0 1-.355 1.129l-5.726 7.605h-.472zM4.578 53.1a1.2 1.2 0 0 1 1.2-1.2h6.918a1.2 1.2 0 0 1 1.2 1.2v3.04H4.578zm11.01 0v-5.076a1.2 1.2 0 0 1 1.2-1.2h6.918a1.2 1.2 0 0 1 1.2 1.2v8.116h-9.317V53.1zm31.337-18.809V56.14H37.61v-5.083a.848.848 0 0 0-1.7 0v5.083H26.6V42.567a1.2 1.2 0 0 1 1.2-1.2h6.918a1.2 1.2 0 0 1 1.2 1.2v4.249a.848.848 0 1 0 1.7 0V34.291a1.2 1.2 0 0 1 1.2-1.2h6.918a1.2 1.2 0 0 1 1.2 1.2zM38.808 31.4a2.9 2.9 0 0 0-2.894 2.894v5.644a2.869 2.869 0 0 0-.983-.252l.691-5.591a3.274 3.274 0 0 0-.958-2.511c-.057-.074-3.352-3.986-3.352-3.986l2.021-6.111L38.9 18.1v13.3zM40.6 8.215V2.983h8.967l-1.931 1.7a1.22 1.22 0 0 0 0 1.831l1.931 1.7H40.6zm0 0" fill="#0160b2"/></svg>