<svg xmlns="http://www.w3.org/2000/svg" width="27.445" height="24" viewBox="0 0 27.445 24"><g data-name="presentation (1)" fill="#ef0f3d"><path data-name="Контур 2001" d="M24.919 0H12.861a2.526 2.526 0 0 0-2.527 2.526v5.939l1.969.979.983-1.968a2.412 2.412 0 1 1 4.315 2.158l-1.753 3.507a3.663 3.663 0 0 1-.126 1.385h1.158l-3.053 8.395a.804.804 0 1 0 1.511.549l3.253-8.944h.563l3.286 8.947a.804.804 0 0 0 1.509-.554l-3.082-8.393h4.05A2.526 2.526 0 0 0 27.445 12V2.526A2.526 2.526 0 0 0 24.919 0zm-1.723 11.082h-3.608a.804.804 0 0 1 0-1.608h3.608a.804.804 0 1 1 0 1.608zm0-3.015h-3.608a.804.804 0 0 1 0-1.608h3.608a.804.804 0 1 1 0 1.608zm0-3.014h-8.612a.804.804 0 1 1 0-1.608h8.612a.804.804 0 1 1 0 1.608zm0 0"/><path data-name="Контур 2002" d="M14.147 14.181a2.079 2.079 0 0 0 .022-1.276l2-3.99a.804.804 0 1 0-1.438-.719l-1.7 3.4-3.815-1.888a6.9 6.9 0 0 0-3.395-1.1H5.11a3.5 3.5 0 1 0-2.55-1.1 3.493 3.493 0 0 0 2.55 1.1 5.136 5.136 0 0 0-3.61 1.5A5.07 5.07 0 0 0 0 13.722v2.586a2.531 2.531 0 0 0 1.722 2.4v4.494a.8.8 0 0 0 .8.8h5.172a.8.8 0 0 0 .8-.8v-9.041l2.574 1.287a2.2 2.2 0 0 0 3.072-1.258v-.009zm0 0"/></g></svg>