<svg xmlns="http://www.w3.org/2000/svg" width="20" height="24" viewBox="0 0 20 24"><g transform="translate(-2)" fill="#84c44c"><circle data-name="Эллипс 205" cx="3" cy="3" r="3" transform="translate(9 8)"/><path data-name="Контур 1998" d="M12 0a10 10 0 1 0 10 10A10.011 10.011 0 0 0 12 0zm0 18A7.993 7.993 0 0 1 7.694 3.268l.338.507A2.745 2.745 0 0 0 10.32 5h3.359a2.745 2.745 0 0 0 2.288-1.225l.338-.507A7.993 7.993 0 0 1 12 18z"/><path data-name="Контур 1999" d="M18.71 23H5.29a.817.817 0 0 1 .29-.37 4.3 4.3 0 0 0 1.92-3.58v-.3a.761.761 0 0 1 .49-.7 8.938 8.938 0 0 0 8.02 0 .761.761 0 0 1 .49.7v.3a4.3 4.3 0 0 0 1.92 3.58.817.817 0 0 1 .29.37z"/><path data-name="Контур 2000" d="M19 24H5a1 1 0 0 1 0-2h14a1 1 0 0 1 0 2z"/></g></svg>