<svg xmlns="http://www.w3.org/2000/svg" width="18.4" height="24" viewBox="0 0 18.4 24"><path data-name="user (1)" d="M16.406 17.156l-3.821-1.91A1.052 1.052 0 0 1 12 14.3v-1.353a7.18 7.18 0 0 0 .288-.38 9.154 9.154 0 0 0 1.182-2.32A1.587 1.587 0 0 0 14.4 8.8V7.2a1.6 1.6 0 0 0-.4-1.05V4.022a3.586 3.586 0 0 0-.837-2.61A5.035 5.035 0 0 0 9.2 0a5.036 5.036 0 0 0-3.963 1.412 3.587 3.587 0 0 0-.837 2.61V6.15A1.6 1.6 0 0 0 4 7.2v1.6a1.591 1.591 0 0 0 .6 1.244A8.4 8.4 0 0 0 6 12.938v1.324a1.057 1.057 0 0 1-.551.928l-3.568 1.946A3.607 3.607 0 0 0 0 20.3v1.3C0 23.5 6.018 24 9.2 24s9.2-.5 9.2-2.4v-1.217a3.589 3.589 0 0 0-1.994-3.227z" fill="#1486e8"/></svg>