<svg xmlns="http://www.w3.org/2000/svg" width="53.001" height="53.001" viewBox="0 0 53.001 53.001"><g fill="#fff"><path data-name="Контур 2087" d="M51.804 39.494a6.02 6.02 0 0 0 1.2-3.59V24.791a2.556 2.556 0 0 0-3.519-2.376 2.542 2.542 0 0 0-4.175-1.231 2.486 2.486 0 0 0-2.565-.509v-7.852a2.523 2.523 0 0 0-.257-1.1l3.669-3.676 3.028 3.028 2.422-9.686-9.682 2.422 3.032 3.028-3.677 3.677a2.523 2.523 0 0 0-1.1-.257 2.561 2.561 0 0 0-2.407 1.71h-8.2L.25 41.283l1.207 1.209 28.816-28.814h7.34v15.4a2.578 2.578 0 0 1-.256 1.126l-.717-3.585a5.525 5.525 0 0 0-5.4-4.428 2.167 2.167 0 0 0-1.8 3.369l.88 1.319a3.83 3.83 0 0 1 .61 1.637l.591 4.731a5.848 5.848 0 0 0 .716 2.176l2.824 5.806v1.513h-1.71v10.259h18.795V42.743h-1.71v-1.425zM49.257 3.74l-1 3.991-2.988-2.994zm1.175 40.712v1.712H35.049v-1.71zm-15.383 6.839v-3.419h15.387v3.419zm1.71-8.549v-1.906l-3.024-6.211a4.251 4.251 0 0 1-.53-1.59l-.591-4.731a5.544 5.544 0 0 0-.883-2.373l-.88-1.32a.457.457 0 0 1 .38-.711 3.809 3.809 0 0 1 3.726 3.054l1.1 5.494h2.084l.73-1.46a4.3 4.3 0 0 0 .451-1.911V12.823a.855.855 0 1 1 1.71 0V26.5h1.71v-3.419a.855.855 0 1 1 1.71 0V26.5h1.705v-3.419a.855.855 0 1 1 1.71 0V26.5h1.71v-1.71a.855.855 0 0 1 1.71 0v11.114a4.3 4.3 0 0 1-.855 2.565l-1.71 2.28v1.994z"/><path data-name="Контур 2088" d="M11.113 22.226A11.113 11.113 0 1 0 0 11.113a11.126 11.126 0 0 0 11.113 11.113zm0-20.517a9.4 9.4 0 1 1-9.4 9.4 9.415 9.415 0 0 1 9.4-9.399z"/><path data-name="Контур 2089" d="M11.113 15.387a1.711 1.711 0 0 1-1.71-1.71H7.694a3.417 3.417 0 0 0 2.565 3.3v1.831h1.71v-1.71h2.565v-3.421a3.423 3.423 0 0 0-3.419-3.419 1.711 1.711 0 0 1-1.71-1.71v-1.71h1.71a1.711 1.711 0 0 1 1.71 1.71h1.71a3.417 3.417 0 0 0-2.565-3.3V3.419h-1.71v1.71H7.694v3.419a3.423 3.423 0 0 0 3.419 3.419 1.711 1.711 0 0 1 1.71 1.71v1.71z"/><path data-name="Контур 2090" d="M17.097 10.258h1.71v1.71h-1.71z"/><path data-name="Контур 2091" d="M3.419 10.258h1.71v1.71h-1.71z"/><path data-name="Контур 2092" d="M1.71 53.001h6.839V42.743H1.71zm1.71-8.548h3.419v6.839H3.42z"/><path data-name="Контур 2093" d="M11.968 53.001h6.839V34.194h-6.839zm1.71-17.1h3.419v15.393h-3.419z"/><path data-name="Контур 2094" d="M22.226 53.001h6.839V27.355h-6.839zm1.71-23.936h3.419v22.226h-3.419z"/></g></svg>