<svg xmlns="http://www.w3.org/2000/svg" width="61" height="61.729" viewBox="0 0 61 61.729"><g data-name="Сгруппировать 3041" fill="#fff"><path data-name="Контур 2070" d="M3.508 59.921h-2.6a.904.904 0 1 0 0 1.808h2.6a.904.904 0 1 0 0-1.808z"/><path data-name="Контур 2071" d="M7.742 59.921H6.727a.904.904 0 1 0 0 1.808h1.015a.904.904 0 1 0 0-1.808z"/><path data-name="Контур 2072" d="M12.476 56.565H.904a.904.904 0 1 0 0 1.808h11.572a.904.904 0 0 0 0-1.808z"/><path data-name="Контур 2073" d="M6.16 1.808h2.6A.904.904 0 1 0 8.76 0h-2.6a.904.904 0 1 0 0 1.808z"/><path data-name="Контур 2074" d="M11.983 1.808h1.014a.904.904 0 1 0 0-1.808h-1.014a.904.904 0 1 0 0 1.808z"/><path data-name="Контур 2075" d="M6.16 5.164h11.573a.904.904 0 0 0 0-1.808H6.16a.904.904 0 1 0 0 1.808z"/><path data-name="Контур 2076" d="M31.242 22.395h7.913a.9.9 0 0 0 .639-.265l4.712-4.712a13.8 13.8 0 0 1 3.131 8.106 1.624 1.624 0 0 0 1.621 1.555h1.82a.904.904 0 1 0 0-1.808h-1.645a15.646 15.646 0 0 0-3.625-9.155l1.309-1.309a.904.904 0 0 0-1.279-1.279l-1.268 1.268a15.658 15.658 0 0 0-9.919-4.307V3.023a23.191 23.191 0 0 1 22.246 22.246h-1.8a.904.904 0 1 0 0 1.808h1.991a1.625 1.625 0 0 0 1.624-1.673 25 25 0 0 0-24.2-24.2 1.625 1.625 0 0 0-1.673 1.624v7.83a1.624 1.624 0 0 0 1.555 1.621 13.849 13.849 0 0 1 8.875 3.808l-4.491 4.496h-7.539a.904.904 0 0 0 0 1.809z"/><path data-name="Контур 2077" d="M31.242 29.341h2.6a.904.904 0 0 0 0-1.808h-2.6a.904.904 0 1 0 0 1.808z"/><path data-name="Контур 2078" d="M37.065 27.533a.904.904 0 1 0 0 1.808h1.015a.904.904 0 1 0 0-1.808z"/><path data-name="Контур 2079" d="M31.242 25.985h10.522a.904.904 0 1 0 0-1.808H31.242a.904.904 0 1 0 0 1.808z"/><path data-name="Контур 2080" d="M51.543 48.958a.9.9 0 0 0 .639.265h7.914a.904.904 0 0 0 0-1.808h-7.539l-3.223-3.223a24.812 24.812 0 0 0 2.714-10.582 1.625 1.625 0 0 0-1.624-1.674h-7.83a1.625 1.625 0 0 0-1.618 1.555 13.833 13.833 0 0 1-7.21 11.565l-3.424-3.426a.9.9 0 0 0-.639-.265h-7.627a.904.904 0 1 0 0 1.808h7.254l2.683 2.683a14 14 0 0 1-4.922.886h-.213a13.9 13.9 0 0 1-8.762-3.3.904.904 0 1 0-1.17 1.379 15.725 15.725 0 0 0 9.23 3.709v7.463a23.018 23.018 0 0 1-13.3-4.9l2.805-2.805a.904.904 0 0 0-1.279-1.279l-2.912 2.912a23.143 23.143 0 0 1-7.555-16.177h7.463a15.6 15.6 0 0 0 2.691 7.9.903.903 0 0 0 1.495-1.014 13.882 13.882 0 0 1 10.657-21.668 1.629 1.629 0 0 0 1.535-1.62V15.51a.904.904 0 1 0-1.808 0v1.658a15.732 15.732 0 0 0-14.569 14.767H3.935A23.391 23.391 0 0 1 16.976 12.03l2.689 2.689a.904.904 0 0 0 1.279-1.279l-2.195-2.195a22.707 22.707 0 0 1 7.217-1.547v1.792a.904.904 0 1 0 1.808 0V9.509a1.625 1.625 0 0 0-1.688-1.624 24.861 24.861 0 0 0-8.747 1.954l-2.627-2.627a.9.9 0 0 0-.639-.265H6.16a.904.904 0 1 0 0 1.808h7.538l1.9 1.9A25.06 25.06 0 0 0 2.109 33.099a24.815 24.815 0 0 0 7.355 17.4c.243.242.491.478.742.709l-1.763 1.763H.904a.904.904 0 0 0 0 1.808h7.913a.9.9 0 0 0 .639-.265l2.126-2.126a24.754 24.754 0 0 0 15.3 5.423h.2a24.829 24.829 0 0 0 17.331-7.008 25.181 25.181 0 0 0 4-4.979zm-23.555 7.031V48.53a15.6 15.6 0 0 0 5.4-1.292l2.532 2.532a.904.904 0 0 0 1.279-1.279l-2.123-2.125a15.839 15.839 0 0 0 2.789-2.105c.134-.127.265-.256.394-.386 1.7 1.69 3.453 3.446 5.242 5.237a23.171 23.171 0 0 1-15.512 6.877zm16.737-8.21c-1.8-1.8-3.565-3.565-5.268-5.263a15.592 15.592 0 0 0 3.319-8.772h7.464a22.809 22.809 0 0 1-2.271 9.076l-1.372-1.372a.908.908 0 0 0-1.285 1.282l1.764 1.756a23.466 23.466 0 0 1-2.346 3.292z"/><path data-name="Контур 2081" d="M60.095 54.36h-2.6a.904.904 0 1 0 0 1.808h2.6a.904.904 0 1 0 0-1.808z"/><path data-name="Контур 2082" d="M54.273 54.36h-1.015a.904.904 0 0 0 0 1.808h1.015a.904.904 0 1 0 0-1.808z"/><path data-name="Контур 2083" d="M60.096 51.005H49.574a.904.904 0 0 0 0 1.809h10.522a.904.904 0 0 0 0-1.809z"/><path data-name="Контур 2084" d="M22.073 35.773h2.6a.904.904 0 1 0 0-1.808h-2.6a.904.904 0 1 0 0 1.808z"/><path data-name="Контур 2085" d="M26.992 34.869a.9.9 0 0 0 .9.9h1.014a.904.904 0 0 0 0-1.808h-1.01a.9.9 0 0 0-.904.908z"/><path data-name="Контур 2086" d="M22.073 39.129H33.12a.904.904 0 1 0 0-1.808H22.073a.904.904 0 1 0 0 1.808z"/></g></svg>