<svg xmlns="http://www.w3.org/2000/svg" width="62.333" height="53.826" viewBox="0 0 62.333 53.826"><g fill="#fff"><path data-name="Контур 2059" d="M60.2 0H2.131A2.133 2.133 0 0 0 0 2.13v7.5a.914.914 0 0 0 1.826 0v-7.5a.3.3 0 0 1 .3-.3H60.2a.3.3 0 0 1 .3.3v44.527a.3.3 0 0 1-.3.3H48.5v-1.893h9.184a.913.913 0 0 0 .913-.913v-9.564a.914.914 0 0 0-1.826 0v8.649H48.5v-4.052l.088.008a2.793 2.793 0 0 0 2.354-.5 2.8 2.8 0 0 0 .5-2.356 1.385 1.385 0 0 1 .631-1.557c1.611-1.339 1.641-2.773 0-4.137a1.386 1.386 0 0 1-.631-1.557c.179-2.042-.775-3.043-2.857-2.861a1.378 1.378 0 0 1-1.551-.631c-1.337-1.614-2.772-1.644-4.134 0a1.377 1.377 0 0 1-1.551.631c-2.044-.18-3.04.78-2.858 2.861a1.386 1.386 0 0 1-.631 1.557c-1.611 1.339-1.64 2.773 0 4.137a1.386 1.386 0 0 1 .631 1.557c-.192 2.188.853 3.034 2.945 2.853v4.051H5.561V5.552h51.211v24.165a.914.914 0 0 0 1.826 0V4.639a.913.913 0 0 0-.913-.913H4.648a.913.913 0 0 0-.913.913v39.509a.913.913 0 0 0 .913.916H41.44v1.9H2.131a.3.3 0 0 1-.3-.3v-32.4a.914.914 0 0 0-1.826 0v32.4a2.133 2.133 0 0 0 2.131 2.131H41.44v4.133a.913.913 0 0 0 1.3.828l2.232-1.038 2.228 1.031a.931.931 0 0 0 1.3-.828v-4.133h11.7a2.133 2.133 0 0 0 2.131-2.131V2.13A2.133 2.133 0 0 0 60.2 0zM41.193 37.372c-.914.08-.958.032-.879-.882a3.15 3.15 0 0 0-1.283-3.12c-.741-.616-.741-.712 0-1.328a3.15 3.15 0 0 0 1.283-3.12c-.08-.914-.036-.962.879-.882a3.141 3.141 0 0 0 3.117-1.286c.614-.741.708-.741 1.321 0a3.142 3.142 0 0 0 3.117 1.286c.914-.08.958-.032.879.882a3.15 3.15 0 0 0 1.283 3.12c.741.616.741.712 0 1.328a3.15 3.15 0 0 0-1.283 3.12c.08.914.036.963-.878.882a3.815 3.815 0 0 0-1.8.13 3.643 3.643 0 0 0-1.321 1.155 3.376 3.376 0 0 1-.661.675 3.379 3.379 0 0 1-.661-.675 3.643 3.643 0 0 0-1.321-1.155 4 4 0 0 0-1.792-.13zm4.163 13.5a.913.913 0 0 0-.77 0l-1.319.614v-11.24a2.041 2.041 0 0 0 3.409 0v11.243z"/><path data-name="Контур 2060" d="M11.841 13.195h31.477a.914.914 0 0 0 0-1.826H11.841a.914.914 0 0 0 0 1.826z"/><path data-name="Контур 2061" d="M51.405 17.836a.913.913 0 0 0-.913-.913h-38.65a.914.914 0 0 0 0 1.826h38.651a.913.913 0 0 0 .912-.913z"/><path data-name="Контур 2062" d="M34.714 23.389a.913.913 0 0 0-.913-.913H11.842a.914.914 0 0 0 0 1.826h21.959a.913.913 0 0 0 .913-.913z"/><path data-name="Контур 2063" d="M22.728 36.117h-1.494c-.958 0-1.485-.255-1.681-1.27-.179-.927-1.516-.809-1.761 0-.108.358-.656 1.384-1.135 1.3-.254-.044-.364-.436-.458-.638a7.788 7.788 0 0 1-.429-1.231c-.481-1.769-.577-3.617-.877-5.42-.174-1.045-1.768-.75-1.794.243a27.941 27.941 0 0 1-1.724 9.244c-.418 1.1 1.347 1.575 1.761.486a25.818 25.818 0 0 0 1.046-3.5 9.259 9.259 0 0 0 .523 1.27 2.173 2.173 0 0 0 2.784 1.209 3.117 3.117 0 0 0 1.117-.816c.864 1 2.149.951 3.348.95q2.711 0 5.423-.012a.914.914 0 0 0 0-1.826l-4.649.01z"/><path data-name="Контур 2064" d="M44.97 36.272a3.566 3.566 0 1 0-3.566-3.566 3.57 3.57 0 0 0 3.566 3.566zm0-5.307a1.74 1.74 0 1 1-1.74 1.74 1.742 1.742 0 0 1 1.74-1.74z"/></g></svg>