<svg xmlns="http://www.w3.org/2000/svg" width="34.687" height="34.645" viewBox="0 0 34.687 34.645"><path d="M26.842 6.234a1.746 1.746 0 0 0-1.739 1.739 1.739 1.739 0 1 0 3.477 0 1.746 1.746 0 0 0-1.738-1.739zm7.8 7.082v-.382a23.474 23.474 0 0 0-.509-5.47A9.335 9.335 0 0 0 31 2.417 9.772 9.772 0 0 0 25.148.212a143.932 143.932 0 0 0-15.6 0 10.459 10.459 0 0 0-5.852 2.205A9.335 9.335 0 0 0 .558 7.463a23.69 23.69 0 0 0-.509 5.47v.127c0 1.272-.042 2.756-.042 4.241 0 1.611.042 3.265.042 4.368a23.474 23.474 0 0 0 .509 5.47 9.446 9.446 0 0 0 3.138 5.089 9.773 9.773 0 0 0 5.852 2.205c2.375.127 4.919.212 7.8.212h.975c2.459 0 4.665-.085 6.827-.212A9.875 9.875 0 0 0 31 32.228a9.294 9.294 0 0 0 3.138-5.089 23.689 23.689 0 0 0 .509-5.47v-.212c0-1.272.042-2.672.042-4.156-.002-1.401-.044-2.801-.044-3.986zm-2.12 8.354a21.631 21.631 0 0 1-.466 4.961 7.509 7.509 0 0 1-2.417 3.986 7.959 7.959 0 0 1-4.622 1.739c-2.332.127-4.834.212-7.675.212h-.3c-2.629 0-5-.085-7.378-.212a7.959 7.959 0 0 1-4.622-1.739 7.113 7.113 0 0 1-2.417-3.986 22 22 0 0 1-.466-5v-.594c0-1.145-.042-2.417-.042-3.732 0-1.527.042-3.053.042-4.325a21.631 21.631 0 0 1 .466-4.961 7.51 7.51 0 0 1 2.417-3.986 7.959 7.959 0 0 1 4.622-1.739c2.247-.127 4.665-.212 7.675-.212 2.714 0 5.216.042 7.675.212a7.959 7.959 0 0 1 4.622 1.739 7.113 7.113 0 0 1 2.417 3.986 22 22 0 0 1 .466 5v.594c0 1.145.042 2.417.042 3.732.006 1.525-.036 3.009-.036 4.324zM17.259 8.99a8.312 8.312 0 0 0-.127 16.623h.127a8.325 8.325 0 0 0 8.311-8.311 8.138 8.138 0 0 0-2.417-5.852 8.349 8.349 0 0 0-5.894-2.46zm4.368 12.679a6.094 6.094 0 0 1-4.368 1.823 6.191 6.191 0 1 1 0-12.382 6.226 6.226 0 0 1 6.191 6.191 6.023 6.023 0 0 1-1.823 4.368z" fill="#fff"/></svg>