<svg xmlns="http://www.w3.org/2000/svg" width="243" height="61.291" viewBox="0 0 243 61.291"><defs><linearGradient id="a" x1=".562" y1="-.103" x2=".829" y2="1.267" gradientUnits="objectBoundingBox"><stop offset="0" stop-color="#ff3f17"/><stop offset="1" stop-color="#985440"/></linearGradient><radialGradient id="b" cx="1.065" cy=".297" r="1.621" gradientTransform="matrix(-.654 .614 -.509 -.789 1.932 -.085)"><stop offset="0" stop-color="#61caf8"/><stop offset=".58" stop-color="#1db3ef"/><stop offset="1" stop-color="#013cb2"/></radialGradient><radialGradient id="c" cx="1.512" cy=".5" r="4.414" gradientTransform="matrix(-.49 .424 -.229 -.906 2.338 .221)"><stop offset="0" stop-color="#b1e5ff"/><stop offset=".58" stop-color="#6dd3ff"/><stop offset="1" stop-color="#00b7ff"/></radialGradient><radialGradient id="d" cx=".235" cy=".832" r=".859" gradientTransform="matrix(.735 -.637 .607 .771 -.429 .338)"><stop offset="0" stop-color="#ffc50d"/><stop offset=".271" stop-color="#ffac1d"/><stop offset=".69" stop-color="#ff6c00"/><stop offset="1" stop-color="#ff9926"/></radialGradient><radialGradient id="e" cx=".133" cy=".667" r="1.113" gradientTransform="matrix(.672 -.65 .575 .76 -.36 .237)"><stop offset="0" stop-color="#ffd800"/><stop offset=".271" stop-color="#ffcb00"/><stop offset=".69" stop-color="#ff9100"/><stop offset="1" stop-color="#ffc32d"/></radialGradient><radialGradient id="f" cx="-.109" cy=".606" r="2.646" gradientTransform="matrix(.434 -.702 .428 .712 -.357 .089)"><stop offset="0" stop-color="#fff8af"/><stop offset=".271" stop-color="#ffe330"/><stop offset=".69" stop-color="#ffd657"/><stop offset="1" stop-color="#ffb300"/></radialGradient></defs><g data-name="Сгруппировать 3670"><g data-name="Сгруппировать 2954" fill-rule="evenodd"><path data-name="Контур 1953" d="M7.959 51.254A30.919 30.919 0 0 1 1.121 38.92c-1.067-7 3.61-12.909 9.9-15.672C6.044 27.515-.328 41.791 7.959 51.254z" fill="#0160b2"/><path data-name="Контур 1954" d="M9.08 52.402l-.109-.109c.027.027.055.082.109.109z" fill="#15647d"/><path data-name="Контур 1955" d="M11.2 0a30.467 30.467 0 0 1 17.832 5.716c5.661 6.236 4.431 12.2 2.27 15.972a9.756 9.756 0 0 1-.684 1.039C31.111 8.834 25.8.191 11.2 0z" transform="translate(19.432)" fill="url(#a)"/><path data-name="Контур 1956" d="M1.723 20.513c3.009-5.634 13.265-7 19.993-5.306 4.786 1.2 12.39 3.118 15.836-.821C43.514 7.6 35.336 0 30.632 0c15.343 0 18.926 11.925 14.66 18.844-3.556 5.744-15.918 5.032-21.716 3.364C12.663 19.118-.6 27.6 1.121 38.919A35.764 35.764 0 0 1 0 30.632a30.361 30.361 0 0 1 1.723-10.12z" fill="url(#b)"/><path data-name="Контур 1957" d="M29.539 0c4.7 0 12.882 7.6 6.92 14.386-3.473 3.938-11.049 2.024-15.836.821-6.728-1.7-16.984-.328-19.993 5.306A30.622 30.622 0 0 1 29.539 0z" transform="translate(1.093)" fill="url(#c)"/><path data-name="Контур 1958" d="M55.479 14.042A30.648 30.648 0 0 0 45.524 2.09c5.661 6.236 4.431 12.2 2.27 15.972C43.363 25.8 29 27.334 18.967 24.49c-6.974-2-12.773 1.5-15.535 6.783a14.712 14.712 0 0 0 2.708 17.5 29.931 29.931 0 0 0 7.795 5.607c-5.087-2.544-5.88-9.846-3.966-13.866a13.415 13.415 0 0 1 15.671-7.546c10.393 2.544 25.025.438 29.265-7.658a12.815 12.815 0 0 0 .574-11.268z" transform="translate(2.941 3.626)" fill="url(#d)"/><path data-name="Контур 1959" d="M52.395 28.34a30.973 30.973 0 0 0 1.313-8.916A30.7 30.7 0 0 0 50.836 6.46a12.815 12.815 0 0 1-.574 11.268C46.022 25.824 31.39 27.93 21 25.386a13.415 13.415 0 0 0-15.675 7.549C3.411 36.983 4.2 44.258 9.291 46.8a30.278 30.278 0 0 0 13.757 3.282c-10.5 0-11.761-9.19-7.822-13.183a11.251 11.251 0 0 1 11.405-2.872c8.807 2.516 21.388 1.149 25.272-5.634a11.817 11.817 0 0 0 1.121-2.6 28.43 28.43 0 0 1-.629 2.544z" transform="translate(7.584 11.208)" fill="url(#e)"/><path data-name="Контур 1960" d="M17.467 37.817A30.655 30.655 0 0 0 47.442 13.53a11.816 11.816 0 0 1-1.121 2.6c-3.884 6.783-16.465 8.15-25.272 5.634a11.251 11.251 0 0 0-11.404 2.87c-3.938 3.993-2.68 13.183 7.822 13.183z" transform="translate(13.166 23.475)" fill="url(#f)"/></g><path data-name="Контур 1961" d="M83.302 20.002v16.629h-2.215V22.108h-7.631v14.523h-2.215V20.002h12.061zm9.6 0a5.235 5.235 0 0 1 5.361 5.359 5.234 5.234 0 0 1-5.361 5.333h-3.829v5.937h-2.215V20.002h6.044zm0 8.643a3.035 3.035 0 0 0 2.27-.957 3.22 3.22 0 0 0 .9-2.325 3.2 3.2 0 0 0-.9-2.352 3.012 3.012 0 0 0-2.27-.93h-3.829v6.564zm21.689 5.77a8.683 8.683 0 0 1-12.226 0 8.38 8.38 0 0 1-2.489-6.1 8.545 8.545 0 0 1 8.616-8.614 8.3 8.3 0 0 1 6.1 2.516 8.3 8.3 0 0 1 2.516 6.1 8.3 8.3 0 0 1-2.516 6.1zm-10.694-1.5a6.572 6.572 0 0 0 9.162 0 6.226 6.226 0 0 0 1.832-4.595 6.332 6.332 0 0 0-1.832-4.622 6.572 6.572 0 0 0-9.162 0 6.332 6.332 0 0 0-1.832 4.622 6.226 6.226 0 0 0 1.832 4.591zm30.5-9.19a5.519 5.519 0 0 1 2.161 4.595 5.57 5.57 0 0 1-2.161 4.622 10.179 10.179 0 0 1-5.716 1.942v1.887h-2.165V34.88a10.179 10.179 0 0 1-5.716-1.942 5.57 5.57 0 0 1-2.161-4.622 5.519 5.519 0 0 1 2.161-4.595 9.785 9.785 0 0 1 5.716-1.942v-1.887h2.161v1.888a9.785 9.785 0 0 1 5.716 1.941zm-5.721 9.136a8.063 8.063 0 0 0 4.185-1.313 3.842 3.842 0 0 0 1.477-3.227 3.756 3.756 0 0 0-1.477-3.2 7.823 7.823 0 0 0-4.185-1.34zm-7.845-4.545a3.708 3.708 0 0 0 1.5 3.2 7.446 7.446 0 0 0 4.185 1.313v-9.053a7.663 7.663 0 0 0-4.185 1.34 3.708 3.708 0 0 0-1.5 3.2zm28.472 8.314V24.241l-8.538 12.39h-1.778V20.002h2.188v12.417l8.556-12.417h1.778v16.629zm16.41-16.629v2.107h-4.9v14.523h-2.188V22.108h-4.9v-2.106zm6.918 4.46a5.746 5.746 0 0 1 4.267 1.805 6.2 6.2 0 0 1 1.75 4.431 6.2 6.2 0 0 1-1.75 4.431 5.746 5.746 0 0 1-4.267 1.805 5.034 5.034 0 0 1-4.485-2.325v6.783h-2.079v-16.63h2.079v2.051a5 5 0 0 1 4.485-2.351zm-.249 10.5a4 4 0 0 0 2.981-1.231 4.1 4.1 0 0 0 1.2-3.036 4.113 4.113 0 0 0-4.185-4.239 4.294 4.294 0 0 0-3.036 7.275 4.125 4.125 0 0 0 3.04 1.231zm10.174-3.309a3.819 3.819 0 0 0 1.477 2.462 4.386 4.386 0 0 0 2.817.875 3.7 3.7 0 0 0 3.419-1.723l1.778.985a5.79 5.79 0 0 1-5.224 2.68 6.206 6.206 0 0 1-4.595-1.75 6 6 0 0 1-1.778-4.485 6.149 6.149 0 0 1 1.723-4.458 5.955 5.955 0 0 1 4.485-1.778 5.43 5.43 0 0 1 4.267 1.832 6.338 6.338 0 0 1 1.668 4.431 5.585 5.585 0 0 1-.082.93h-9.955zm4.1-5.251a4 4 0 0 0-2.735.93 4.165 4.165 0 0 0-1.368 2.516h7.932a3.723 3.723 0 0 0-3.829-3.446zm16.52-1.641h2.079v11.871h-2.079v-4.95h-6.154v4.95h-2.079v-11.87h2.079v4.95h6.154v-4.95zm13.812 0h1.668v11.871h-2.051v-8.342l-6.564 8.342h-1.668v-11.87h2.058v8.342l6.564-8.342zm13.019 0h2.079v11.871h-2.079v-4.95h-6.154v4.95h-2.051v-11.87h2.051v4.95h6.154v-4.95zm12.991 0v2h-5.716v9.871h-2.079v-11.87h7.795z" fill="#0160b2"/></g></svg>