<svg xmlns="http://www.w3.org/2000/svg" width="24.691" height="29.63" viewBox="0 0 24.691 29.63"><g transform="translate(.001)" fill="#84c44c"><ellipse data-name="Эллипс 205" cx="3.5" cy="4" rx="3.5" ry="4" transform="translate(9.062 9.629)"/><path data-name="Контур 1998" d="M12.345 0A12.346 12.346 0 1 0 24.69 12.346 12.36 12.36 0 0 0 12.345 0zm0 22.222A9.868 9.868 0 0 1 7.029 4.035l.417.626a3.388 3.388 0 0 0 2.825 1.512h4.147a3.388 3.388 0 0 0 2.824-1.513l.417-.626a9.868 9.868 0 0 1-5.315 18.188z"/><path data-name="Контур 1999" d="M20.629 28.395H4.061a1.009 1.009 0 0 1 .358-.457 5.308 5.308 0 0 0 2.37-4.42v-.37a.94.94 0 0 1 .6-.864 11.035 11.035 0 0 0 9.9 0 .94.94 0 0 1 .6.864v.37a5.308 5.308 0 0 0 2.382 4.416 1.009 1.009 0 0 1 .358.461z"/><path data-name="Контур 2000" d="M20.987 29.629H3.704a1.235 1.235 0 0 1 0-2.469h17.283a1.235 1.235 0 0 1 0 2.469z"/></g></svg>