<svg xmlns="http://www.w3.org/2000/svg" width="34.998" height="30.491" viewBox="0 0 34.998 30.491"><path data-name="Контур 2339" d="M31.921 0H21.735a3.08 3.08 0 0 0-3.076 3.076v8.737l-.816 2.718a2.048 2.048 0 0 0 3.051 2.329l1.818-1.136h9.209a3.08 3.08 0 0 0 3.076-3.076V3.076A3.08 3.08 0 0 0 31.921 0zm-4.034 11.349h-2.188a1.025 1.025 0 1 1 0-2.051h2.188a1.025 1.025 0 0 1 0 2.051zm1.641-4.922h-5.469a1.025 1.025 0 0 1 0-2.051h5.469a1.025 1.025 0 1 1 0 2.051z" fill="#fe2e59"/><path data-name="Контур 2340" d="M0 25.569a5.133 5.133 0 0 0 5.122 4.922h24.749a5.133 5.133 0 0 0 5.122-4.922z" fill="#fe2e59"/><ellipse data-name="Эллипс 294" cx="1.162" cy="1.162" rx="1.162" ry="1.162" transform="translate(9.771 14.63)" fill="#fe2e59"/><path data-name="Контур 2341" d="M9.224 20.168v3.35h3.418v-3.35a1.01 1.01 0 0 0-.418-.744 2.093 2.093 0 0 0-1.291-.418c-.91 0-1.709.543-1.709 1.162z" fill="#fe2e59"/><path data-name="Контур 2342" d="M23.301 17.775l-1.319.825a4.1 4.1 0 0 1-6.1-4.657l.729-2.43v-4.4H5.873a3.08 3.08 0 0 0-3.076 3.076v12.306a3.062 3.062 0 0 0 .176 1.025h4.2v-3.35a3.023 3.023 0 0 1 1.242-2.384 3.213 3.213 0 1 1 5.039 0l.052.04a3.025 3.025 0 0 1 1.188 2.346v3.35h17.325a3.062 3.062 0 0 0 .176-1.025v-4.716z" fill="#fe2e59"/></svg>