<svg xmlns="http://www.w3.org/2000/svg" width="29.605" height="32.299" viewBox="0 0 29.605 32.299"><path data-name="Контур 2343" d="M27.248 0h-8.745a2.358 2.358 0 0 0-2.355 2.355v10.093a2.358 2.358 0 0 0 2.355 2.352h8.745a2.358 2.358 0 0 0 2.355-2.355V2.355A2.358 2.358 0 0 0 27.248 0zm-2.014 8.152L21.87 11.18a1.011 1.011 0 0 1-1.685-.751V4.373a1.011 1.011 0 0 1 1.685-.751l3.364 3.028a1.011 1.011 0 0 1 0 1.5z" fill="#fd0"/><path data-name="Контур 2344" d="M24.222 17.494H18.5a5.048 5.048 0 0 1-5.046-5.046V2.355A4.969 4.969 0 0 1 14.049 0H4.037A4.049 4.049 0 0 0 0 4.037V23.55c0 1.319 1.8 3.364 4.037 3.364h4.037v4.373a1.011 1.011 0 0 0 1.682.754l2.355-2.1 2.355 2.1a1.011 1.011 0 0 0 1.682-.754v-4.373h6.728a1.35 1.35 0 0 0 1.346-1.346zM8.074 24.222H4.037a1.346 1.346 0 1 1 0-2.691h4.037zm13.457 0h-5.383v-2.691h5.383z" fill="#fd0"/></svg>