<svg xmlns="http://www.w3.org/2000/svg" width="30.532" height="30.529" viewBox="0 0 30.532 30.529"><path data-name="Контур 2355" d="M20.672 30.528H9.86a.953.953 0 0 1-.943-.809l-1.272-8.267a.953.953 0 0 1 .943-1.1h13.356a.955.955 0 0 1 .943 1.1l-1.272 8.268a.953.953 0 0 1-.943.808z" fill="#1288d6"/><ellipse data-name="Эллипс 300" cx="5.081" cy="5.081" rx="5.081" ry="5.081" transform="translate(10.163)" fill="#1288d6"/><path data-name="Контур 2356" d="M29.534 16.532a9.245 9.245 0 0 0-4.093-7 1.928 1.928 0 1 0-.955 1.657 7.332 7.332 0 0 1 3.14 5.343h-2.26a6.049 6.049 0 0 0-5.965-5.084h-8.269a6.049 6.049 0 0 0-5.966 5.084H.955a.97.97 0 0 0-.9 1.285l2.544 7a.967.967 0 0 0 .9.623h2.188l-.56-3.6a3.513 3.513 0 0 1 .8-2.811 3.564 3.564 0 0 1 2.659-1.221h13.358a3.5 3.5 0 0 1 3.46 4.032l-.56 3.6h2.188a.967.967 0 0 0 .9-.623l2.544-7a.967.967 0 0 0-.945-1.285z" fill="#1288d6"/></svg>