<svg xmlns="http://www.w3.org/2000/svg" width="30.492" height="30.491" viewBox="0 0 30.492 30.491"><ellipse data-name="Эллипс 298" cx="3.811" cy="3.811" rx="3.811" ry="3.811" fill="#10dc54" transform="translate(11.434)"/><path data-name="Контур 2351" d="M20.955 17.982l-.865-6.739a1.9 1.9 0 0 0-1.894-1.72h-1.044a.96.96 0 0 0-.675.278l-1.231 1.231-1.231-1.231a.96.96 0 0 0-.675-.278h-1.042a1.894 1.894 0 0 0-1.894 1.69l-.867 6.765a.955.955 0 0 0 .945 1.073h1.029l.8 9.719a1.9 1.9 0 0 0 1.9 1.715h2.087a1.9 1.9 0 0 0 1.9-1.732l.795-9.7h1.027a.95.95 0 0 0 .715-.324.938.938 0 0 0 .22-.747z" fill="#10dc54"/><ellipse data-name="Эллипс 299" cx="3.811" cy="3.811" rx="3.811" ry="3.811" fill="#10dc54" transform="translate(20.963)"/><path data-name="Контур 2352" d="M5.717-.005a3.811 3.811 0 1 0 3.811 3.811A3.815 3.815 0 0 0 5.717-.005z" fill="#10dc54"/><path data-name="Контур 2353" d="M30.484 17.982l-.865-6.737a1.9 1.9 0 0 0-1.894-1.717h-1.044a.96.96 0 0 0-.675.278l-1.231 1.231-1.231-1.231a.959.959 0 0 0-.673-.278h-1.044a1.816 1.816 0 0 0-.337.063 3.708 3.708 0 0 1 .5 1.433l.863 6.716a2.851 2.851 0 0 1-.7 2.26 2.762 2.762 0 0 1-.945.671l.633 6.2a1.9 1.9 0 0 0 1.9 1.715h2.087a1.9 1.9 0 0 0 1.9-1.732l.793-7.8h1.021a.95.95 0 0 0 .715-.324.938.938 0 0 0 .227-.748z" fill="#10dc54"/><path data-name="Контур 2354" d="M8.336 19.99a2.854 2.854 0 0 1-.69-2.247l.867-6.767a3.523 3.523 0 0 1 .475-1.387 1.794 1.794 0 0 0-.32-.061H7.623a.96.96 0 0 0-.675.278l-1.231 1.231-1.231-1.231a.959.959 0 0 0-.672-.283H2.769a1.894 1.894 0 0 0-1.894 1.7l-.867 6.765a.955.955 0 0 0 .945 1.073h1.029l.8 7.813a1.9 1.9 0 0 0 1.9 1.715h2.08a1.9 1.9 0 0 0 1.9-1.732l.633-6.184a2.857 2.857 0 0 1-.959-.683z" fill="#10dc54"/></svg>