<svg xmlns="http://www.w3.org/2000/svg" width="36.378" height="32.7" viewBox="0 0 36.378 32.7"><path d="M17.572 29.679a3.021 3.021 0 1 1-3.021-3.021 3.021 3.021 0 0 1 3.021 3.021zm9.211-3.021a3.021 3.021 0 1 0 3.021 3.021 3.021 3.021 0 0 0-3.02-3.021zm9.378-14.182l-3.717 11.049a2 2 0 0 1-1.876 1.64H11.8c-1.871 0-1.95-2.055-1.95-2.055S7.855 8.31 7.757 7.418 6.515 5.861 6.515 5.861l-4.919-2.3C-1.097 2.153.127-.527 1.596.088c6.238 2.942 9.135 4.391 9.322 5.55s.517 3.958.517 3.958v.018l.065-.018h22.988c2.776.002 1.673 2.884 1.673 2.88zm-5.377 6.152H12.546l.375 2.974H29.9zm1.772-6H11.795l.4 3.178h19.422z" fill="#a513a5"/></svg>