<svg data-name="Сгруппировать 4068" xmlns="http://www.w3.org/2000/svg" width="27.943" height="34.413" viewBox="0 0 27.943 34.413"><g data-name="Сгруппировать 4067" fill="#fff"><path data-name="Контур 2450" d="M13.469.009A13.976 13.976 0 0 0 .249 16.6c.007.056.035.211.091.457a13.685 13.685 0 0 0 .934 2.754c1.419 3.351 4.517 8.508 11.22 14.065a2.305 2.305 0 0 0 2.951 0c6.7-5.557 9.794-10.714 11.22-14.065a14.019 14.019 0 0 0 .934-2.74c.035-.155.07-.3.091-.45A13.977 13.977 0 0 0 13.469.009zm11.853 16.158a.3.3 0 0 1-.007.035c-.007.021-.021.126-.07.323a11.437 11.437 0 0 1-.78 2.29c-.007.014-.014.021-.014.035-1.307 3.1-4.187 7.883-10.482 13.117C7.674 26.726 4.794 21.942 3.487 18.85c-.007-.014-.007-.021-.014-.035a11.414 11.414 0 0 1-.78-2.3q-.053-.242-.063-.3c0-.014-.007-.035-.007-.049a11.7 11.7 0 0 1-.155-3.323A11.58 11.58 0 0 1 13.561 2.418c.141-.007.274-.007.415-.007a11.578 11.578 0 0 1 11.563 11.564 12.137 12.137 0 0 1-.217 2.192z"/><path data-name="Контур 2451" d="M13.969 6.711a7.408 7.408 0 1 0 7.412 7.4 7.422 7.422 0 0 0-7.412-7.4zm0 12.407a5 5 0 1 1 5-5 5.009 5.009 0 0 1-5 5z"/></g></svg>