<svg xmlns="http://www.w3.org/2000/svg" width="124.688" height="124.688" viewBox="0 0 124.688 124.688"><path data-name="networking (1)" d="M99.75 49.875A24.938 24.938 0 1 0 77.176 14.41L70.5 11.945a10.088 10.088 0 0 0 .158-1.555 10.481 10.481 0 1 0-1.588 5.457l6.667 2.461a24.483 24.483 0 0 0 .341 14.42l-22.857 9.687a24.817 24.817 0 0 0-30.839-11.692l-5.748-12.08a10.338 10.338 0 1 0-6.242 2.138 10.217 10.217 0 0 0 2.5-.339L18.63 32.51a24.895 24.895 0 0 0-1.33 42.229l-3.8 6.833a10.284 10.284 0 0 0-3.107-.526 10.515 10.515 0 1 0 6.74 2.548l3.809-6.847a24.728 24.728 0 0 0 25.384-2.957l8.18 9A24.818 24.818 0 0 0 47.8 99.75a25.1 25.1 0 0 0 .309 3.73l-9.624 2.284a10.33 10.33 0 1 0 1 4.376c0-.115-.031-.222-.033-.337l9.605-2.277A24.927 24.927 0 1 0 94.7 87.959l12.2-7.937a10.6 10.6 0 1 0-2.257-3.491l-12.23 7.955a25.076 25.076 0 0 0-9.288-7.377L93.268 48.99a24.848 24.848 0 0 0 6.482.885zm-39.484-33.25a6.234 6.234 0 1 1 6.234-6.234 6.242 6.242 0 0 1-6.234 6.234zm-56.11-6.234a6.234 6.234 0 1 1 6.234 6.234 6.242 6.242 0 0 1-6.234-6.234zm6.234 87.281a6.234 6.234 0 1 1 6.234-6.234 6.242 6.242 0 0 1-6.233 6.234zm18.7 18.7a6.234 6.234 0 1 1 6.234-6.234 6.242 6.242 0 0 1-6.23 6.237zM114.3 66.5a6.234 6.234 0 1 1-6.234 6.234A6.242 6.242 0 0 1 114.3 66.5zM87.512 41.7a10.421 10.421 0 0 1 10.16-8.445h4.156a10.421 10.421 0 0 1 10.16 8.445 20.625 20.625 0 0 1-24.477 0zM99.75 29.1a6.234 6.234 0 1 1 6.234-6.234 6.242 6.242 0 0 1-6.234 6.228zm0-24.937a20.75 20.75 0 0 1 15.685 34.37 14.721 14.721 0 0 0-8.275-8.406 10.391 10.391 0 1 0-14.821 0 14.721 14.721 0 0 0-8.275 8.406A20.75 20.75 0 0 1 99.75 4.156zM10.391 54.031a20.781 20.781 0 1 1 36.438 13.623 14.723 14.723 0 0 0-8.286-8.439 10.392 10.392 0 1 0-14.823 0 14.717 14.717 0 0 0-8.265 8.372 20.671 20.671 0 0 1-5.064-13.556zM24.9 51.953a6.234 6.234 0 1 1 6.234 6.234 6.242 6.242 0 0 1-6.234-6.234zm-6 18.809a10.418 10.418 0 0 1 10.153-8.418h4.156a10.417 10.417 0 0 1 10.164 8.473 20.621 20.621 0 0 1-24.473-.055zm41.563 45.719a10.418 10.418 0 0 1 10.153-8.418h4.156a10.417 10.417 0 0 1 10.164 8.473 20.621 20.621 0 0 1-24.474-.055zm12.231-12.574a6.234 6.234 0 1 1 6.234-6.234 6.242 6.242 0 0 1-6.235 6.233zm20.822-4.157a20.678 20.678 0 0 1-5.124 13.622 14.723 14.723 0 0 0-8.286-8.439 10.392 10.392 0 1 0-14.823 0 14.717 14.717 0 0 0-8.265 8.372 20.77 20.77 0 1 1 36.5-13.556zM79.217 75.7a24.6 24.6 0 0 0-21.636 4.294l-8.18-9a24.757 24.757 0 0 0 5.445-24.754L77.7 36.554a25.073 25.073 0 0 0 11.66 11.025zm0 0" fill="#fff"/></svg>