<svg xmlns="http://www.w3.org/2000/svg" width="152.047" height="35.16" viewBox="0 0 152.047 35.16"><path data-name="Контур 1963" d="M70.815 27.695a7.439 7.439 0 0 1-10.454 0 7.2 7.2 0 0 1-2.128-5.227 7.169 7.169 0 0 1 2.128-5.228 7.439 7.439 0 0 1 10.454 0 7.1 7.1 0 0 1 2.128 5.227 7.126 7.126 0 0 1-2.128 5.228zm-9.134-1.3a5.58 5.58 0 0 0 7.813 0 5.381 5.381 0 0 0 1.577-3.925 5.423 5.423 0 0 0-1.577-3.943 5.58 5.58 0 0 0-7.813 0 5.351 5.351 0 0 0-1.577 3.943 5.309 5.309 0 0 0 1.579 3.923zm17.974 3.445a5 5 0 0 1-3.723-1.486 5.2 5.2 0 0 1-1.449-3.814 8.475 8.475 0 0 1 .752-4 6.655 6.655 0 0 1 3.118-2.531c.275-.147.679-.312 1.174-.532s.844-.385 1.082-.5c.22-.128.477-.275.77-.477a2.139 2.139 0 0 0 .642-.642 2.758 2.758 0 0 0 .312-.818l1.412.807a4.883 4.883 0 0 1-.147.605 2.56 2.56 0 0 1-.293.532c-.128.165-.257.312-.348.422a1.868 1.868 0 0 1-.477.4c-.22.147-.385.257-.477.312-.11.073-.312.165-.587.312q-.44.193-.605.275c-.092.037-.312.147-.679.275-.348.147-.569.238-.642.275a6.754 6.754 0 0 0-2.018 1.211 3.635 3.635 0 0 0-.935 1.541 3.935 3.935 0 0 1 1.632-1.21 5.244 5.244 0 0 1 1.944-.385 4.484 4.484 0 0 1 4.57 4.661 4.471 4.471 0 0 1-1.412 3.411 5.046 5.046 0 0 1-3.616 1.356zm-2.384-2.6a3.591 3.591 0 0 0 4.732.018 2.879 2.879 0 0 0 .917-2.183 2.942 2.942 0 0 0-.88-2.219 3.128 3.128 0 0 0-2.329-.862 3.8 3.8 0 0 0-2.348.807 2.642 2.642 0 0 0-1.045 2.164 3.016 3.016 0 0 0 .953 2.275zm15.957-7.813h1.889L90.99 30.208a5.776 5.776 0 0 1-1.834 2.623 3.816 3.816 0 0 1-2.673.809v-1.653c1.247.11 2.164-.569 2.733-2.018l.165-.367-4.4-10.179h1.871l3.466 7.96 2.916-7.96zm9.776 0h1.761v10.157h-1.762v-3.668a6.549 6.549 0 0 1-2.733.532 4.553 4.553 0 0 1-3.026-.917 3.408 3.408 0 0 1-1.061-2.733v-3.375h1.761v3.265a1.984 1.984 0 0 0 .624 1.632 2.894 2.894 0 0 0 1.816.477 6.376 6.376 0 0 0 2.623-.514v-4.86zm5.686 5.887a3.314 3.314 0 0 0 1.247 2.109 3.813 3.813 0 0 0 2.421.752 3.19 3.19 0 0 0 2.935-1.486l1.5.862a4.981 4.981 0 0 1-4.472 2.289 5.294 5.294 0 0 1-3.925-1.5 5.211 5.211 0 0 1-1.522-3.833 5.213 5.213 0 0 1 1.486-3.815 5.085 5.085 0 0 1 3.833-1.522 4.652 4.652 0 0 1 3.65 1.559 5.566 5.566 0 0 1 1.412 3.8 5.9 5.9 0 0 1-.055.789h-8.51zm3.5-4.494a3.508 3.508 0 0 0-2.348.807 3.443 3.443 0 0 0-1.155 2.146h6.786a3.462 3.462 0 0 0-1.137-2.2 3.327 3.327 0 0 0-2.146-.752zm14.123-1.394h1.761v10.158h-1.759v-4.255h-5.264v4.255h-1.761V19.423h1.761v4.217h5.264v-4.217zm11.812 0h1.431v10.158h-1.761V22.45l-5.612 7.134h-1.43V19.423h1.761v7.135l5.612-7.135zm5.337 5.887a3.394 3.394 0 0 0 1.247 2.109 3.831 3.831 0 0 0 2.439.752 3.16 3.16 0 0 0 2.916-1.486l1.5.862a4.97 4.97 0 0 1-4.451 2.29 5.337 5.337 0 0 1-3.943-1.5 5.2 5.2 0 0 1-1.5-3.833 5.213 5.213 0 0 1 1.486-3.815 5.057 5.057 0 0 1 3.833-1.522 4.7 4.7 0 0 1 3.65 1.559 5.566 5.566 0 0 1 1.412 3.8 6.009 6.009 0 0 1-.073.789h-8.51zm3.521-4.494a3.378 3.378 0 0 0-3.521 2.953h6.786a3.461 3.461 0 0 0-1.137-2.2 3.278 3.278 0 0 0-2.128-.752z" fill="#fff"/><path data-name="Контур 1964" d="M2.953 10.069h49.429v22.138a2.951 2.951 0 0 1-2.953 2.953H2.953A2.951 2.951 0 0 1 0 32.207V13.022a2.951 2.951 0 0 1 2.953-2.953z" fill="#00a859" fill-rule="evenodd"/><path data-name="Контур 1965" d="M58.526 7.391c.972-1.321 1.486-3.595.7-7.391-9.76 1.5-7.651 6.786-6.739 8.437a33.839 33.839 0 0 1 5.062-6.108 36.33 36.33 0 0 0-3.37 5.961 3.385 3.385 0 0 1 4.347-.899zm3.081 3.081c-5.007-5.337-7.153-1.651-7.667-.4a13.045 13.045 0 0 1 4.365.55 11.248 11.248 0 0 0-4.127.569c.845 1.446 3.156 4.109 7.429-.718z" fill="#84c44c" fill-rule="evenodd"/><path data-name="Контур 1966" d="M29.859 15.571h1.285v1.284h-1.285zm-18.415 8.052l3.192-8.052h2.128l-4.9 11.555a3.487 3.487 0 0 1-3.411 2.531 7.54 7.54 0 0 1-2.639-.476v-1.615a7.789 7.789 0 0 0 2.458.532c.807-.018 1.486-.44 2.256-2.256L5.814 15.571h2.054zm13.921 6.016h-1.76v-3.742a8.778 8.778 0 0 1-2.384.312c-2.494 0-3.962-1.284-3.98-3.815v-3.063h1.761v3.118a1.949 1.949 0 0 0 2.219 2.219 8.778 8.778 0 0 0 2.384-.312v-5.007h1.761zm7.061 0c-3.3 0-4.915-2.164-4.915-5.19 0-2.623 1.706-5.1 4.677-5.1 3.7 0 4.4 2.7 4.4 5.631h-7.444a3.213 3.213 0 0 0 3.338 3.228 3.518 3.518 0 0 0 2.862-1.284l1.119.807a4.581 4.581 0 0 1-4.035 1.907zm-.238-8.914a3.039 3.039 0 0 0-2.971 2.861h5.741a2.71 2.71 0 0 0-2.77-2.861zm14.4.037H43.12v8.877h-1.761v-8.878h-3.393v-1.412h8.62zm-13.611-5.173h1.284v1.284h-1.284z" fill="#fefefe"/></svg>