<svg xmlns="http://www.w3.org/2000/svg" width="202" height="46.711" viewBox="0 0 202 46.711"><path data-name="Контур 1963" d="M94.08 36.794a9.884 9.884 0 0 1-13.889 0 9.564 9.564 0 0 1-2.827-6.944 9.524 9.524 0 0 1 2.827-6.944 9.884 9.884 0 0 1 13.889 0 9.429 9.429 0 0 1 2.827 6.944 9.468 9.468 0 0 1-2.827 6.944zm-12.135-1.73a7.413 7.413 0 0 0 10.38 0 7.149 7.149 0 0 0 2.1-5.214 7.205 7.205 0 0 0-2.1-5.239 7.413 7.413 0 0 0-10.38 0 7.109 7.109 0 0 0-2.1 5.239 7.054 7.054 0 0 0 2.1 5.214zm23.879 4.581a6.646 6.646 0 0 1-4.946-1.974 6.91 6.91 0 0 1-1.925-5.068 11.259 11.259 0 0 1 1-5.312 8.842 8.842 0 0 1 4.142-3.363c.366-.195.9-.414 1.559-.707s1.121-.512 1.438-.658c.292-.171.634-.365 1.023-.634a2.841 2.841 0 0 0 .853-.853 3.664 3.664 0 0 0 .414-1.1l1.876 1.072a6.484 6.484 0 0 1-.195.8 3.4 3.4 0 0 1-.39.707c-.171.219-.341.414-.463.56a2.481 2.481 0 0 1-.634.536 19.88 19.88 0 0 1-.634.414c-.146.1-.414.219-.78.414q-.585.256-.8.365c-.122.049-.414.195-.9.365-.463.195-.755.317-.853.365a8.973 8.973 0 0 0-2.68 1.608 4.829 4.829 0 0 0-1.243 2.047 5.228 5.228 0 0 1 2.169-1.608 6.966 6.966 0 0 1 2.583-.512 5.958 5.958 0 0 1 6.067 6.189 5.94 5.94 0 0 1-1.876 4.532 6.7 6.7 0 0 1-4.8 1.8zm-3.167-3.464a4.771 4.771 0 0 0 6.287.024 3.825 3.825 0 0 0 1.218-2.9 3.909 3.909 0 0 0-1.17-2.948 4.155 4.155 0 0 0-3.095-1.145 5.041 5.041 0 0 0-3.119 1.072 3.509 3.509 0 0 0-1.389 2.875 4.006 4.006 0 0 0 1.268 3.022zm21.2-10.38h2.51l-5.484 14.331a7.673 7.673 0 0 1-2.437 3.484 5.069 5.069 0 0 1-3.558 1.072v-2.192c1.657.146 2.875-.755 3.631-2.68l.219-.487-5.847-13.524h2.485l4.605 10.576 3.874-10.575zm12.987 0h2.339v13.5h-2.34V34.43a8.7 8.7 0 0 1-3.631.707 6.049 6.049 0 0 1-4.02-1.218 4.528 4.528 0 0 1-1.413-3.631v-4.483h2.335v4.337a2.635 2.635 0 0 0 .828 2.169 3.845 3.845 0 0 0 2.412.634 8.471 8.471 0 0 0 3.484-.682v-6.458zm7.554 7.822a4.4 4.4 0 0 0 1.657 2.8 5.066 5.066 0 0 0 3.216 1 4.238 4.238 0 0 0 3.9-1.974l2 1.145a6.617 6.617 0 0 1-5.945 3.046 7.034 7.034 0 0 1-5.214-2 6.923 6.923 0 0 1-2.022-5.093 6.926 6.926 0 0 1 1.968-5.066 6.755 6.755 0 0 1 5.093-2.022 6.181 6.181 0 0 1 4.849 2.071 7.4 7.4 0 0 1 1.876 5.044 7.841 7.841 0 0 1-.073 1.048h-11.306zm4.654-5.97a4.661 4.661 0 0 0-3.119 1.072 4.574 4.574 0 0 0-1.536 2.856h9.017a4.6 4.6 0 0 0-1.511-2.924 4.42 4.42 0 0 0-2.851-1zm18.762-1.848h2.339v13.5h-2.339v-5.654h-6.993v5.653h-2.339v-13.5h2.339v5.6h6.993v-5.6zm15.692 0h1.9v13.5h-2.339v-9.48l-7.453 9.479h-1.9v-13.5h2.339v9.477l7.456-9.479zm7.091 7.822a4.509 4.509 0 0 0 1.657 2.8 5.089 5.089 0 0 0 3.241 1 4.2 4.2 0 0 0 3.874-1.974l2 1.145a6.6 6.6 0 0 1-5.921 3.046 7.09 7.09 0 0 1-5.239-2 6.9 6.9 0 0 1-2-5.093 6.926 6.926 0 0 1 1.974-5.068 6.719 6.719 0 0 1 5.093-2.022 6.251 6.251 0 0 1 4.849 2.071 7.4 7.4 0 0 1 1.876 5.044 7.983 7.983 0 0 1-.1 1.048h-11.305zm4.678-5.97a4.488 4.488 0 0 0-4.678 3.923h9.017a4.6 4.6 0 0 0-1.511-2.924 4.355 4.355 0 0 0-2.827-1z" fill="#272424"/><path data-name="Контур 1964" d="M3.923 13.377h65.668v29.41a3.92 3.92 0 0 1-3.923 3.923H3.923A3.92 3.92 0 0 1 0 42.787V17.3a3.92 3.92 0 0 1 3.923-3.923z" fill="#00a859" fill-rule="evenodd"/><path data-name="Контур 1965" d="M77.755 9.82c1.291-1.754 1.974-4.776.926-9.82-12.964 2-10.162 9.016-8.943 11.209a44.957 44.957 0 0 1 6.725-8.114 48.265 48.265 0 0 0-4.483 7.919 4.5 4.5 0 0 1 5.775-1.194zm4.094 4.094c-6.652-7.091-9.5-2.193-10.185-.536a17.331 17.331 0 0 1 5.8.731 14.943 14.943 0 0 0-5.483.755c1.119 1.925 4.19 5.458 9.867-.951z" fill="#84c44c" fill-rule="evenodd"/><path data-name="Контур 1966" d="M39.669 20.687h1.705v1.71h-1.705zm-24.464 10.7l4.24-10.7h2.827l-6.507 15.351c-.95 2.266-2.217 3.265-4.532 3.363a10.017 10.017 0 0 1-3.509-.634v-2.144a10.347 10.347 0 0 0 3.265.707c1.072-.024 1.974-.585 3-3L7.724 20.687h2.73zm18.494 7.992H31.36v-4.974a11.662 11.662 0 0 1-3.168.414c-3.314 0-5.263-1.706-5.288-5.068v-4.069h2.34v4.142c0 2.047 1.023 2.948 2.948 2.948a11.662 11.662 0 0 0 3.168-.414v-6.651h2.339zm9.381 0c-4.386 0-6.53-2.875-6.53-6.9 0-3.484 2.266-6.774 6.214-6.774 4.922 0 5.848 3.582 5.848 7.481h-9.894a4.269 4.269 0 0 0 4.436 4.29 4.673 4.673 0 0 0 3.8-1.706l1.486 1.072a6.085 6.085 0 0 1-5.361 2.534zm-.317-11.842a4.037 4.037 0 0 0-3.947 3.8h7.627a3.6 3.6 0 0 0-3.68-3.803zm19.128.049h-4.605v11.79h-2.339V27.583h-4.508v-1.876h11.452zm-18.08-6.875h1.706v1.706h-1.706z" fill="#fefefe"/></svg>