<svg xmlns="http://www.w3.org/2000/svg" width="31.428" height="31.57" viewBox="0 0 31.428 31.57">
  <path id="Контур_2445" data-name="Контур 2445" d="M26.8,46.225a3.3,3.3,0,0,0-2.39-1.1,3.408,3.408,0,0,0-2.419,1.089l-2.235,2.228c-.184-.1-.368-.191-.545-.283-.255-.127-.5-.248-.7-.375a24.289,24.289,0,0,1-5.82-5.3,14.329,14.329,0,0,1-1.909-3.013c.58-.53,1.117-1.082,1.641-1.612.2-.2.4-.4.594-.6a3.245,3.245,0,0,0,0-4.894l-1.931-1.931c-.219-.219-.446-.446-.658-.672-.424-.438-.87-.891-1.33-1.315a3.348,3.348,0,0,0-2.369-1.04,3.464,3.464,0,0,0-2.4,1.04l-.014.014-2.4,2.426A5.174,5.174,0,0,0,.374,34.174a12.4,12.4,0,0,0,.905,5.247,30.45,30.45,0,0,0,5.41,9.024A33.28,33.28,0,0,0,17.77,57.123a17.265,17.265,0,0,0,6.223,1.839c.149.007.3.014.446.014a5.329,5.329,0,0,0,4.08-1.754c.007-.014.021-.021.028-.035a16.075,16.075,0,0,1,1.238-1.28c.3-.29.615-.594.919-.912a3.528,3.528,0,0,0,1.068-2.447,3.4,3.4,0,0,0-1.089-2.426Zm2.532,7.447c-.007,0-.007.007,0,0-.276.3-.559.566-.863.863a18.6,18.6,0,0,0-1.365,1.414,3.409,3.409,0,0,1-2.659,1.124c-.106,0-.219,0-.325-.007A15.338,15.338,0,0,1,18.6,55.411,31.414,31.414,0,0,1,8.167,47.236a28.711,28.711,0,0,1-5.092-8.479,10.1,10.1,0,0,1-.792-4.427,3.246,3.246,0,0,1,.976-2.1L5.67,29.818a1.608,1.608,0,0,1,1.075-.5,1.513,1.513,0,0,1,1.032.5l.021.021c.431.4.842.82,1.273,1.266.219.226.446.453.672.686l1.931,1.931a1.35,1.35,0,0,1,0,2.192c-.205.205-.4.41-.608.608-.594.608-1.16,1.174-1.775,1.726-.014.014-.028.021-.035.035a1.442,1.442,0,0,0-.368,1.605l.021.064a15.5,15.5,0,0,0,2.284,3.727l.007.007a25.956,25.956,0,0,0,6.28,5.714,9.656,9.656,0,0,0,.87.474c.255.127.5.248.7.375.028.014.057.035.085.049a1.533,1.533,0,0,0,.7.177,1.512,1.512,0,0,0,1.075-.488l2.419-2.419a1.6,1.6,0,0,1,1.068-.53,1.44,1.44,0,0,1,1.018.516l.014.014,3.9,3.9A1.4,1.4,0,0,1,29.333,53.672Z" transform="translate(-0.344 -27.406)" fill="#fff"/>
</svg>
