<svg data-name="Сгруппировать 3067" xmlns="http://www.w3.org/2000/svg" width="202" height="50.95" viewBox="0 0 202 50.95"><defs><linearGradient id="a" x1=".562" y1="-.103" x2=".829" y2="1.267" gradientUnits="objectBoundingBox"><stop offset="0" stop-color="#ff3f17"/><stop offset="1" stop-color="#985440"/></linearGradient><radialGradient id="b" cx="1.065" cy=".297" r="1.621" gradientTransform="matrix(-.654 .614 -.509 -.789 1.932 -.085)"><stop offset="0" stop-color="#61caf8"/><stop offset=".58" stop-color="#1db3ef"/><stop offset="1" stop-color="#013cb2"/></radialGradient><radialGradient id="c" cx="1.512" cy=".5" r="4.414" gradientTransform="matrix(-.49 .424 -.229 -.906 2.338 .221)"><stop offset="0" stop-color="#b1e5ff"/><stop offset=".58" stop-color="#6dd3ff"/><stop offset="1" stop-color="#00b7ff"/></radialGradient><radialGradient id="d" cx=".235" cy=".832" r=".859" gradientTransform="matrix(.735 -.637 .607 .771 -.429 .338)"><stop offset="0" stop-color="#ffc50d"/><stop offset=".271" stop-color="#ffac1d"/><stop offset=".69" stop-color="#ff6c00"/><stop offset="1" stop-color="#ff9926"/></radialGradient><radialGradient id="e" cx=".133" cy=".667" r="1.113" gradientTransform="matrix(.672 -.65 .575 .76 -.36 .237)"><stop offset="0" stop-color="#ffd800"/><stop offset=".271" stop-color="#ffcb00"/><stop offset=".69" stop-color="#ff9100"/><stop offset="1" stop-color="#ffc32d"/></radialGradient><radialGradient id="f" cx="-.109" cy=".606" r="2.646" gradientTransform="matrix(.434 -.702 .428 .712 -.357 .089)"><stop offset="0" stop-color="#fff8af"/><stop offset=".271" stop-color="#ffe330"/><stop offset=".69" stop-color="#ffd657"/><stop offset="1" stop-color="#ffb300"/></radialGradient></defs><g data-name="Сгруппировать 2954" fill-rule="evenodd"><path data-name="Контур 1953" d="M6.616 42.606A25.7 25.7 0 0 1 .932 32.352c-.887-5.82 3-10.731 8.23-13.027C5.024 22.872-.273 34.74 6.616 42.606z" fill="#0160b2"/><path data-name="Контур 1954" d="M7.548 43.561l-.091-.091c.023.023.045.068.091.091z" fill="#15647d"/><path data-name="Контур 1955" d="M11.2 0a25.327 25.327 0 0 1 14.823 4.752c4.706 5.184 3.683 10.14 1.887 13.277a8.11 8.11 0 0 1-.568.864C27.751 7.344 23.341.159 11.2 0z" transform="translate(14.264)" fill="url(#a)"/><path data-name="Контур 1956" d="M1.432 17.052c2.5-4.683 11.027-5.82 16.62-4.411 3.979 1 10.3 2.592 13.164-.682C36.172 6.32 29.374 0 25.464 0 38.218 0 41.2 9.913 37.65 15.665c-2.956 4.774-13.232 4.183-18.052 2.8C10.526 15.892-.5 22.94.932 32.352A29.73 29.73 0 0 1 0 25.464a25.238 25.238 0 0 1 1.432-8.412z" fill="url(#b)"/><path data-name="Контур 1957" d="M24.661 0c3.91 0 10.708 6.32 5.752 11.959-2.887 3.274-9.185 1.682-13.164.682-5.593-1.41-14.119-.273-16.62 4.411A25.456 25.456 0 0 1 24.661 0z" transform="translate(.802)" fill="url(#c)"/><path data-name="Контур 1958" d="M46.4 12.025a25.477 25.477 0 0 0-8.271-9.935c4.706 5.184 3.683 10.14 1.887 13.277C36.333 21.8 24.4 23.075 16.053 20.71a10.821 10.821 0 0 0-12.914 5.639A12.229 12.229 0 0 0 5.39 40.9a24.881 24.881 0 0 0 6.48 4.661c-4.229-2.114-4.888-8.185-3.3-11.527a11.151 11.151 0 0 1 13.03-6.276c8.639 2.114 20.8.364 24.327-6.366a10.653 10.653 0 0 0 .477-9.367z" transform="translate(2.159 2.662)" fill="url(#d)"/><path data-name="Контур 1959" d="M44.292 24.648a25.747 25.747 0 0 0 1.091-7.412A25.518 25.518 0 0 0 43 6.46a10.653 10.653 0 0 1-.477 9.367c-3.524 6.73-15.687 8.48-24.327 6.366a11.151 11.151 0 0 0-13.032 6.275c-1.591 3.365-.932 9.412 3.3 11.527A25.169 25.169 0 0 0 19.9 42.723c-8.73 0-9.776-7.639-6.5-10.958a9.353 9.353 0 0 1 9.481-2.387c7.321 2.092 17.779.955 21.008-4.683a9.823 9.823 0 0 0 .932-2.16c-.136.7-.318 1.41-.523 2.114z" transform="translate(5.567 8.227)" fill="url(#e)"/><path data-name="Контур 1960" d="M15.8 33.719A25.483 25.483 0 0 0 40.718 13.53a9.822 9.822 0 0 1-.932 2.16c-3.228 5.638-13.687 6.775-21.008 4.683A9.353 9.353 0 0 0 9.3 22.761c-3.276 3.319-2.231 10.958 6.5 10.958z" transform="translate(9.664 17.231)" fill="url(#f)"/></g><path data-name="Контур 1961" d="M69.247 16.627V30.45h-1.841V18.378h-6.343V30.45h-1.842V16.627h10.026zm7.98 0a4.351 4.351 0 0 1 4.456 4.456 4.351 4.351 0 0 1-4.456 4.433h-3.183v4.934h-1.841V16.627h5.025zm0 7.184a2.523 2.523 0 0 0 1.887-.8 2.676 2.676 0 0 0 .75-1.933 2.657 2.657 0 0 0-.75-1.955 2.5 2.5 0 0 0-1.887-.773h-3.183v5.456zm18.029 4.8a7.218 7.218 0 0 1-10.163 0 6.966 6.966 0 0 1-2.069-5.07 7.1 7.1 0 0 1 7.163-7.164 6.9 6.9 0 0 1 5.07 2.092 6.9 6.9 0 0 1 2.092 5.07 6.9 6.9 0 0 1-2.092 5.07zm-8.89-1.25a5.463 5.463 0 0 0 7.616 0 5.175 5.175 0 0 0 1.529-3.824 5.263 5.263 0 0 0-1.523-3.842 5.463 5.463 0 0 0-7.616 0 5.263 5.263 0 0 0-1.528 3.842 5.175 5.175 0 0 0 1.523 3.821zm25.35-7.639a4.588 4.588 0 0 1 1.795 3.815 4.63 4.63 0 0 1-1.8 3.842 8.462 8.462 0 0 1-4.752 1.614v1.569h-1.8v-1.567a8.462 8.462 0 0 1-4.752-1.614 4.63 4.63 0 0 1-1.8-3.842 4.588 4.588 0 0 1 1.8-3.82 8.134 8.134 0 0 1 4.752-1.614v-1.568h1.8v1.568a8.134 8.134 0 0 1 4.752 1.614zm-4.752 7.594a6.7 6.7 0 0 0 3.479-1.091 3.194 3.194 0 0 0 1.229-2.688 3.122 3.122 0 0 0-1.228-2.66 6.5 6.5 0 0 0-3.479-1.114zm-6.524-3.779a3.082 3.082 0 0 0 1.25 2.66 6.19 6.19 0 0 0 3.479 1.091v-7.523a6.37 6.37 0 0 0-3.479 1.114 3.082 3.082 0 0 0-1.25 2.658zm23.671 6.913V20.151l-7.1 10.299h-1.474V16.627h1.819v10.322l7.116-10.322h1.478V30.45zm13.638-13.823v1.751h-4.07V30.45h-1.818V18.378h-4.07v-1.751zm5.752 3.71a4.777 4.777 0 0 1 3.547 1.5 5.151 5.151 0 0 1 1.455 3.683 5.151 5.151 0 0 1-1.455 3.683 4.777 4.777 0 0 1-3.547 1.5 4.185 4.185 0 0 1-3.729-1.933v5.638h-1.728V20.583h1.728v1.705a4.156 4.156 0 0 1 3.729-1.951zm-.2 8.73a3.327 3.327 0 0 0 2.478-1.023 3.41 3.41 0 0 0 1-2.524 3.419 3.419 0 0 0-3.479-3.524 3.57 3.57 0 0 0-2.524 6.048 3.429 3.429 0 0 0 2.521 1.019zm8.458-2.751a3.175 3.175 0 0 0 1.228 2.046 3.646 3.646 0 0 0 2.342.728 3.075 3.075 0 0 0 2.842-1.432l1.478.818a4.813 4.813 0 0 1-4.342 2.228 5.159 5.159 0 0 1-3.82-1.455 4.985 4.985 0 0 1-1.478-3.729 5.111 5.111 0 0 1 1.432-3.706 4.95 4.95 0 0 1 3.723-1.477 4.514 4.514 0 0 1 3.547 1.523 5.269 5.269 0 0 1 1.387 3.683 4.641 4.641 0 0 1-.068.773h-8.276zm3.41-4.365a3.324 3.324 0 0 0-2.274.773 3.463 3.463 0 0 0-1.137 2.092h6.593a3.1 3.1 0 0 0-3.183-2.865zm13.732-1.364h1.728v9.867h-1.728v-4.117h-5.12v4.115h-1.728v-9.869h1.728v4.115h5.115v-4.115zm11.481 0h1.387v9.867h-1.705v-6.938l-5.456 6.934h-1.387v-9.867h1.705v6.934l5.456-6.934zm10.822 0h1.728v9.867h-1.728v-4.117h-5.115v4.115h-1.705v-9.869h1.705v4.115h5.115v-4.115zm10.8 0v1.66h-4.752v8.207h-1.728v-9.871h6.48z" fill="#fff"/></svg>