<svg xmlns="http://www.w3.org/2000/svg" width="59.159" height="56.39" viewBox="0 0 59.159 56.39">
  <path id="question" d="M15.488,56.39a3.7,3.7,0,0,1-3.7-3.7V48.76a2.545,2.545,0,0,0-2.542-2.542A9.254,9.254,0,0,1,0,36.974V9.243A9.254,9.254,0,0,1,9.244,0H49.916a9.254,9.254,0,0,1,9.244,9.244V25.42a2.311,2.311,0,0,1-4.622,0V9.243a4.627,4.627,0,0,0-4.622-4.622H9.244A4.627,4.627,0,0,0,4.622,9.243V36.974A4.627,4.627,0,0,0,9.244,41.6a7.172,7.172,0,0,1,7.164,7.164v1.7l5.032-5.032A13,13,0,0,1,30.691,41.6H49.916a4.627,4.627,0,0,0,4.622-4.622,2.311,2.311,0,0,1,4.622,0,9.254,9.254,0,0,1-9.244,9.244H30.691A8.408,8.408,0,0,0,24.708,48.7L18.1,55.3a3.687,3.687,0,0,1-2.612,1.085Zm16.4-21.611A2.311,2.311,0,1,0,29.58,37.09,2.311,2.311,0,0,0,31.891,34.779Zm0-8.088V25.075a.3.3,0,0,1,.175-.288A7.858,7.858,0,0,0,29.883,9.48a7.857,7.857,0,0,0-8.161,7.851,2.311,2.311,0,1,0,4.622,0A3.236,3.236,0,0,1,29.708,14.1a3.236,3.236,0,0,1,.9,6.3,4.9,4.9,0,0,0-3.335,4.673v1.616a2.311,2.311,0,0,0,4.622,0Zm0,0" transform="translate(0 0)" fill="#84c44c"/>
</svg>
