<svg xmlns="http://www.w3.org/2000/svg" width="56" height="56" viewBox="0 0 56 56">
  <g id="Сгруппировать_4086" data-name="Сгруппировать 4086" transform="translate(-152 -12081)">
    <circle id="Эллипс_223" data-name="Эллипс 223" cx="28" cy="28" r="28" transform="translate(152 12081)" fill="#fff"/>
    <g id="calendar" transform="translate(165 12094)">
      <g id="Сгруппировать_3363" data-name="Сгруппировать 3363" transform="translate(0)">
        <g id="Сгруппировать_3362" data-name="Сгруппировать 3362">
          <ellipse id="Эллипс_251" data-name="Эллипс 251" cx="0.959" cy="1.278" rx="0.959" ry="1.278" transform="translate(21.845 11.388)" fill="#84c44c"/>
          <path id="Контур_2220" data-name="Контур 2220" d="M25.623,2.373H24.081V1.186a1.186,1.186,0,1,0-2.372,0V2.373h-5.4V1.186a1.186,1.186,0,1,0-2.372,0V2.373H8.6V1.186a1.186,1.186,0,1,0-2.372,0V2.373H4.745A4.75,4.75,0,0,0,0,7.118V25.623a4.75,4.75,0,0,0,4.745,4.745H13.82a1.186,1.186,0,0,0,0-2.373H4.745a2.375,2.375,0,0,1-2.372-2.373V7.118A2.375,2.375,0,0,1,4.745,4.745H6.228V5.931a1.186,1.186,0,1,0,2.372,0V4.745h5.338V5.931a1.186,1.186,0,1,0,2.372,0V4.745h5.4V5.931a1.186,1.186,0,1,0,2.372,0V4.745h1.542A2.375,2.375,0,0,1,28,7.118v6.762a1.186,1.186,0,1,0,2.372,0V7.118A4.75,4.75,0,0,0,25.623,2.373Z" fill="#84c44c"/>
          <path id="Контур_2221" data-name="Контур 2221" d="M277.177,270a7.177,7.177,0,1,0,7.177,7.177A7.185,7.185,0,0,0,277.177,270Zm0,11.981a4.8,4.8,0,1,1,4.8-4.8A4.81,4.81,0,0,1,277.177,281.981Z" transform="translate(-253.986 -253.985)" fill="#84c44c"/>
          <path id="Контур_2222" data-name="Контур 2222" d="M373.906,332.432h-.534v-1.246a1.186,1.186,0,1,0-2.372,0v2.432a1.186,1.186,0,0,0,1.186,1.186h1.72a1.186,1.186,0,0,0,0-2.373Z" transform="translate(-348.995 -310.427)" fill="#84c44c"/>
          <ellipse id="Эллипс_252" data-name="Эллипс 252" cx="0.959" cy="1.278" rx="0.959" ry="1.278" transform="translate(16.731 11.388)" fill="#84c44c"/>
          <ellipse id="Эллипс_253" data-name="Эллипс 253" cx="0.959" cy="1.278" rx="0.959" ry="1.278" transform="translate(11.617 16.502)" fill="#84c44c"/>
          <ellipse id="Эллипс_254" data-name="Эллипс 254" cx="0.959" cy="1.278" rx="0.959" ry="1.278" transform="translate(6.503 11.388)" fill="#84c44c"/>
          <ellipse id="Эллипс_255" data-name="Эллипс 255" cx="0.959" cy="1.278" rx="0.959" ry="1.278" transform="translate(6.503 16.502)" fill="#84c44c"/>
          <ellipse id="Эллипс_256" data-name="Эллипс 256" cx="0.959" cy="1.278" rx="0.959" ry="1.278" transform="translate(6.503 21.616)" fill="#84c44c"/>
          <ellipse id="Эллипс_257" data-name="Эллипс 257" cx="0.959" cy="1.278" rx="0.959" ry="1.278" transform="translate(11.617 21.616)" fill="#84c44c"/>
          <ellipse id="Эллипс_258" data-name="Эллипс 258" cx="0.959" cy="1.278" rx="0.959" ry="1.278" transform="translate(11.617 11.388)" fill="#84c44c"/>
        </g>
      </g>
    </g>
  </g>
</svg>
