<svg xmlns="http://www.w3.org/2000/svg" width="56" height="56" viewBox="0 0 56 56">
  <g id="Сгруппировать_4087" data-name="Сгруппировать 4087" transform="translate(-152 -12153)">
    <circle id="Эллипс_247" data-name="Эллипс 247" cx="28" cy="28" r="28" transform="translate(152 12153)" fill="#fff"/>
    <g id="youtube" transform="translate(164 12169)">
      <path id="Контур_2223" data-name="Контур 2223" d="M205.075,170.907l-7.619-4.762a.952.952,0,0,0-1.457.808v9.524a.952.952,0,0,0,1.457.808l7.619-4.762a.952.952,0,0,0,0-1.615Zm-7.171,3.851v-6.087l4.87,3.044Z" transform="translate(-183.555 -159.333)" fill="#84c44c"/>
      <path id="Контур_2224" data-name="Контур 2224" d="M27.745,61H4.762A4.767,4.767,0,0,0,0,65.762V81a4.767,4.767,0,0,0,4.762,4.762H27.745A4.767,4.767,0,0,0,32.507,81V65.762A4.767,4.767,0,0,0,27.745,61ZM30.6,81a2.86,2.86,0,0,1-2.857,2.857H4.762A2.86,2.86,0,0,1,1.9,81V65.762A2.86,2.86,0,0,1,4.762,62.9H27.745A2.86,2.86,0,0,1,30.6,65.762Z" transform="translate(0 -61)" fill="#84c44c"/>
    </g>
  </g>
</svg>
