<svg xmlns="http://www.w3.org/2000/svg" width="56" height="56" viewBox="0 0 56 56">
  <g id="Сгруппировать_4088" data-name="Сгруппировать 4088" transform="translate(-152 -12224)">
    <circle id="Эллипс_248" data-name="Эллипс 248" cx="28" cy="28" r="28" transform="translate(152 12224)" fill="#fff"/>
    <path id="telegram" d="M32,.753A2.11,2.11,0,0,0,30.33,0a3.285,3.285,0,0,0-1.169.233L1.645,10.737C.184,11.294-.012,12.13,0,12.579s.256,1.273,1.746,1.747l.027.008,5.708,1.633,3.087,8.827a2.665,2.665,0,0,0,2.466,1.951,2.918,2.918,0,0,0,1.973-.84l3.53-3.251,5.121,4.123h0l.049.039.014.011a2.956,2.956,0,0,0,1.8.675h0a2.523,2.523,0,0,0,2.4-2.236L32.432,3A2.659,2.659,0,0,0,32,.753ZM9.39,15.657,20.4,10.031l-6.857,7.286a.951.951,0,0,0-.231.424L11.992,23.1ZM13.716,24.5c-.046.042-.092.079-.137.114l1.227-4.968,2.231,1.8ZM30.566,2.626,26.057,24.889c-.043.213-.182.709-.538.709a1.11,1.11,0,0,1-.624-.27l-5.8-4.672,0,0-3.453-2.78L25.553,7.337a.952.952,0,0,0-1.127-1.5L8.118,14.168,2.332,12.513,29.84,2.012a1.4,1.4,0,0,1,.49-.107c.058,0,.162.007.2.054a.908.908,0,0,1,.035.667Zm0,0" transform="translate(164 12238)" fill="#84c44c"/>
  </g>
</svg>
