<svg xmlns="http://www.w3.org/2000/svg" width="56" height="56" viewBox="0 0 56 56">
  <g id="Сгруппировать_4089" data-name="Сгруппировать 4089" transform="translate(-152 -12296)">
    <circle id="Эллипс_249" data-name="Эллипс 249" cx="28" cy="28" r="28" transform="translate(152 12296)" fill="#fff"/>
    <g id="user" transform="translate(165 12309)">
      <g id="Сгруппировать_3364" data-name="Сгруппировать 3364" transform="translate(0 -0.001)">
        <path id="Контур_2225" data-name="Контур 2225" d="M26.139,4.68A15.168,15.168,0,1,0,4.669,26.1c.009.009.012.022.021.029.088.085.183.156.272.237.244.217.488.441.744.65.138.108.281.217.422.316.243.181.485.362.739.529.172.108.35.217.527.325.234.141.467.283.709.412.2.108.414.2.622.3.228.108.452.217.685.314s.467.173.7.258.44.163.666.232c.256.077.518.137.778.2.217.053.427.114.65.157.3.06.6.1.906.139.187.026.371.063.56.081.5.049,1,.076,1.5.076s1.006-.027,1.5-.076c.19-.018.373-.055.56-.081.3-.041.607-.079.906-.139.217-.043.433-.108.65-.157.26-.064.522-.124.778-.2.226-.069.445-.154.666-.232s.472-.163.7-.258.457-.207.685-.314c.208-.1.417-.192.622-.3.242-.129.475-.271.709-.412.177-.108.354-.207.527-.325.254-.167.5-.348.739-.529.141-.108.284-.206.422-.316.257-.206.5-.425.744-.65.089-.081.184-.153.272-.237.009-.008.012-.021.021-.029A15.152,15.152,0,0,0,26.139,4.68ZM23.7,24.969c-.2.173-.4.338-.607.5-.121.093-.243.185-.367.274-.2.142-.4.276-.6.405-.147.094-.3.185-.45.274q-.286.163-.581.325c-.173.089-.35.172-.528.255s-.374.17-.566.247-.4.15-.6.217c-.183.063-.366.128-.552.183-.217.065-.443.118-.667.172-.176.041-.349.088-.527.122-.257.05-.519.085-.782.12-.15.019-.3.047-.449.062-.416.04-.838.064-1.263.064s-.847-.024-1.263-.064c-.151-.015-.3-.042-.449-.062-.263-.036-.526-.07-.782-.12-.178-.035-.351-.081-.527-.122-.224-.054-.448-.108-.667-.172-.185-.055-.368-.12-.552-.183-.2-.069-.4-.14-.6-.217S9.956,27.085,9.77,27s-.354-.166-.528-.255c-.2-.1-.39-.209-.581-.325-.152-.089-.3-.18-.45-.274-.2-.129-.4-.263-.6-.405-.125-.089-.246-.181-.367-.274-.206-.159-.41-.325-.607-.5-.048-.036-.091-.081-.138-.122a8.694,8.694,0,0,1,5.909-8.121,6.425,6.425,0,0,0,5.52,0,8.694,8.694,0,0,1,5.909,8.121C23.793,24.887,23.75,24.929,23.7,24.969ZM11.392,8.7a4.334,4.334,0,1,1,5.9,5.9.023.023,0,0,0-.018.006,4.591,4.591,0,0,1-.906.384c-.056.016-.108.038-.168.052-.108.028-.222.048-.334.067a4.389,4.389,0,0,1-.636.064h-.124a4.389,4.389,0,0,1-.636-.064c-.108-.019-.223-.039-.334-.067-.057-.014-.108-.036-.168-.052a4.587,4.587,0,0,1-.906-.384l-.019-.006A4.334,4.334,0,0,1,11.392,8.7Zm14.369,14h0a10.89,10.89,0,0,0-5.8-7.469,6.5,6.5,0,1,0-9.579,0A10.89,10.89,0,0,0,4.58,22.7a13,13,0,1,1,21.181,0Z" transform="translate(0 -0.011)" fill="#84c44c"/>
      </g>
    </g>
  </g>
</svg>
