<svg xmlns="http://www.w3.org/2000/svg" width="56" height="56" viewBox="0 0 56 56">
  <g id="Сгруппировать_4090" data-name="Сгруппировать 4090" transform="translate(-152 -12367)">
    <circle id="Эллипс_250" data-name="Эллипс 250" cx="28" cy="28" r="28" transform="translate(152 12367)" fill="#fff"/>
    <path id="icons8-zoom" d="M40.33,16.629a1.852,1.852,0,0,0-1.008.283L32.99,20.868a5.6,5.6,0,0,0-5.26-3.822H13.124A1.124,1.124,0,0,0,12,18.17V29.4a5.645,5.645,0,0,0,5.627,5.627H32.233a1.124,1.124,0,0,0,1.124-1.124V30.313l5.965,3.728a2.017,2.017,0,0,0,3.028-1.677V18.589A2.027,2.027,0,0,0,40.33,16.629ZM40.1,19.075v12.8l-6.744-4.215V23.29Zm-25.853.22H27.73a3.362,3.362,0,0,1,3.379,3.379v10.11H17.627A3.362,3.362,0,0,1,14.248,29.4Z" transform="translate(153 12369.371)" fill="#84c44c"/>
  </g>
</svg>
