<svg xmlns="http://www.w3.org/2000/svg" width="80" height="80" viewBox="0 0 80 80">
  <g id="Сгруппировать_4086" data-name="Сгруппировать 4086" transform="translate(-967 -12714)">
    <g id="istockphoto-487502634-170667a" transform="translate(967 12714)" fill="#fff" stroke="#fff" stroke-width="1">
      <circle cx="40" cy="40" r="40" stroke="none"/>
      <circle cx="40" cy="40" r="39.5" fill="none"/>
    </g>
    <path id="mindmap" d="M43,23.462a3.78,3.78,0,0,0-3.1,1.621L37.11,24.6c0-.1.008-.209.008-.315a9.224,9.224,0,0,0-.687-3.5l4.723-2.849a3.787,3.787,0,1,0-1.439-2.361l-4.7,2.835a9.278,9.278,0,0,0-5.792-3.3v-5.8a4.369,4.369,0,1,0-2.765,0v5.8a9.3,9.3,0,0,0-7.082,5.383l-8.653-2.658a5.385,5.385,0,1,0-1.036,2.574l8.947,2.748A9.217,9.217,0,0,0,21.15,30.7l-3.9,4.148a4.586,4.586,0,1,0,2.07,1.834L23.349,32.4a9.25,9.25,0,0,0,8.8.1L36.17,38.6a5.376,5.376,0,1,0,2.4-1.386l-4.185-6.364a9.294,9.294,0,0,0,2.223-3.537l2.65.459A3.782,3.782,0,1,0,43,23.462Zm-21.671.822A6.512,6.512,0,1,1,27.84,30.8,6.52,6.52,0,0,1,21.328,24.284Z" transform="translate(979 12728.203)" fill="#ff6d01"/>
  </g>
</svg>
