<svg id="add" xmlns="http://www.w3.org/2000/svg" width="30" height="30" viewBox="0 0 30 30">
  <g id="Сгруппировать_3466" data-name="Сгруппировать 3466">
    <g id="Сгруппировать_3465" data-name="Сгруппировать 3465">
      <path id="Контур_2270" data-name="Контур 2270" d="M15,0A15,15,0,1,0,30,15,15.016,15.016,0,0,0,15,0Zm0,27.676A12.676,12.676,0,1,1,27.676,15,12.691,12.691,0,0,1,15,27.676Z" fill="#fff"/>
    </g>
  </g>
  <g id="Сгруппировать_3468" data-name="Сгруппировать 3468" transform="translate(8.183 8.077)">
    <g id="Сгруппировать_3467" data-name="Сгруппировать 3467">
      <path id="Контур_2271" data-name="Контур 2271" d="M149.519,140.919h-4.545v-4.544a1.136,1.136,0,1,0-2.272,0v4.544h-4.545a1.136,1.136,0,0,0,0,2.272H142.7v4.545a1.136,1.136,0,0,0,2.272,0v-4.545h4.545a1.136,1.136,0,0,0,0-2.272Z" transform="translate(-137.022 -135.238)" fill="#fff"/>
    </g>
  </g>
</svg>
