<svg xmlns="http://www.w3.org/2000/svg" width="69.517" height="69.517" viewBox="0 0 69.517 69.517">
  <path id="Объединение_77" data-name="Объединение 77" d="M11164.515-4847.83a1.748,1.748,0,0,1-1.754-1.745v-39.8a1.735,1.735,0,0,1,.515-1.233l8.8-8.761a8.692,8.692,0,0,1,1.113-10.978,8.8,8.8,0,0,1,12.391,0,8.705,8.705,0,0,1,1.113,10.978l8.8,8.761a1.732,1.732,0,0,1,.512,1.233v39.8a1.746,1.746,0,0,1-1.751,1.745Zm1.753-40.824v37.334h26.232v-37.334l-13.116-13.06-2.649,2.638,3.568,4.546a5.251,5.251,0,0,1,4.338,5.153,5.249,5.249,0,0,1-5.257,5.232,5.249,5.249,0,0,1-5.257-5.232,5.224,5.224,0,0,1,2.352-4.358l-2.242-2.855Zm11.363-.722a1.745,1.745,0,0,0,1.753,1.742,1.749,1.749,0,0,0,1.753-1.742,1.748,1.748,0,0,0-1.753-1.745A1.75,1.75,0,0,0,11177.631-4889.376Zm2.992-16.039,3.5,3.49a5.228,5.228,0,0,0-1.025-5.957,5.282,5.282,0,0,0-7.436,0,5.217,5.217,0,0,0-1.028,5.957l3.507-3.49a1.751,1.751,0,0,1,1.238-.51A1.757,1.757,0,0,1,11180.623-4905.415Zm-3,49.548v-14.091h-5.915a1.68,1.68,0,0,1-1.681-1.681,1.679,1.679,0,0,1,1.681-1.677h15.215a1.679,1.679,0,0,1,1.681,1.677,1.68,1.68,0,0,1-1.681,1.681h-5.914v14.091a1.692,1.692,0,0,1-1.691,1.692A1.692,1.692,0,0,1,11177.628-4855.866Zm-5.915-19.486a1.682,1.682,0,0,1-1.681-1.68,1.682,1.682,0,0,1,1.681-1.681h15.215a1.682,1.682,0,0,1,1.681,1.681,1.681,1.681,0,0,1-1.681,1.68Z" transform="translate(-11321.197 -4419.32) rotate(45)" fill="#fff"/>
</svg>
