<svg xmlns="http://www.w3.org/2000/svg" width="60" height="57.656" viewBox="0 0 60 57.656"><g fill="#fff"><path data-name="Контур 2095" d="M27.198 15.383a.879.879 0 0 0 .568.208h.075a.879.879 0 0 0 .6-.311l5.607-6.691a.879.879 0 0 0-1.347-1.129l-5.04 6.014-2.306-1.953a.879.879 0 1 0-1.136 1.341z"/><path data-name="Контур 2096" d="M29.422 23.411a11.7 11.7 0 1 0-9.353-18.754.879.879 0 0 0 1.4 1.059 9.951 9.951 0 1 1-1.626 3.283.879.879 0 0 0-1.692-.477 11.7 11.7 0 0 0 11.271 14.89z"/><path data-name="Контур 2097" d="M56.426 43.587c-.292-.166-.593-.337-.9-.523l-2.3-1.378a8.694 8.694 0 0 0 2.184-3.9 5.449 5.449 0 0 0 .145-1.218v-5.816c0-2.646-1.991-5.034-5.074-6.083-2.7-.916-5.371-.491-6.811 1.046-1.477.26-3.547 1.431-3.477 5.965v4.891a5.4 5.4 0 0 0 .145 1.214 8.675 8.675 0 0 0 2.184 3.9l-2.259 1.355-.049.028c-.3.183-.6.353-.892.517a10.281 10.281 0 0 0-2.354 1.636l-1.62-.971a8.7 8.7 0 0 0 2.186-3.9 5.5 5.5 0 0 0 .142-1.219v-5.818c0-2.645-1.99-5.032-5.07-6.081-2.695-.918-5.371-.493-6.812 1.044-1.478.259-3.549 1.43-3.477 5.964V39.132a5.707 5.707 0 0 0 .142 1.219 8.689 8.689 0 0 0 2.187 3.9l-1.617.971a10.3 10.3 0 0 0-2.357-1.637c-.292-.166-.593-.336-.9-.521l-.023-.014h-.007l-2.268-1.359a8.688 8.688 0 0 0 2.185-3.9 5.419 5.419 0 0 0 .142-1.217v-5.822c0-2.646-1.99-5.033-5.071-6.082-2.7-.918-5.373-.493-6.814 1.045-1.476.26-3.546 1.43-3.474 5.963v4.891a5.417 5.417 0 0 0 .142 1.215 8.694 8.694 0 0 0 2.186 3.9l-2.3 1.378a40.99 40.99 0 0 1-.9.521C1.736 44.629 0 45.616 0 48.49v5.162a1.5 1.5 0 0 0 .385 1.086 1.363 1.363 0 0 0 1.014.351H17.874v1.13a1.5 1.5 0 0 0 .387 1.089 1.363 1.363 0 0 0 1.014.352H20.543a.879.879 0 1 0 0-1.758h-.912v-4.85c0-1.778.776-2.289 2.687-3.373l.089-.05.371-.213 1.466.949 1.511.979.039.022c.105.061.2.125.288.186a1.745 1.745 0 0 0 .961.366 1.148 1.148 0 0 0 .559-.148l.121.473-1.712 3.709v.008a.907.907 0 0 0 .059.912l.6 1.02H24.6a.879.879 0 1 0 0 1.758h16.123a1.37 1.37 0 0 0 1.017-.352 1.5 1.5 0 0 0 .386-1.089v-1.13H58.601a1.363 1.363 0 0 0 1.014-.352A1.493 1.493 0 0 0 60 53.652v-5.163c0-2.873-1.735-3.86-3.574-4.9zm-38.767.259l-2.234 1.445a6.713 6.713 0 0 0-.247.156l-.48-.509-.025-.027-.8-.848q.13-.043.263-.093a8.3 8.3 0 0 0 1.956-1.065zM8.443 27.42a.879.879 0 0 0 .619-.339c.892-1.158 2.99-1.464 5.1-.744 1.79.61 3.88 2.132 3.88 4.418v2.349h-.37c-.866 0-1.426-.483-2.267-1.271a5.778 5.778 0 0 0-4.171-1.99H9.662c-1.912 0-2.231 1.554-2.422 2.482-.219 1.067-.323 1.277-1.023 1.277H6.2v-1.821-.128c-.042-2.675.712-4.1 2.243-4.234zM6.3 37.394a3.658 3.658 0 0 1-.1-.822v-1.213h.015c2.194 0 2.552-1.744 2.745-2.681.222-1.078.313-1.078.7-1.078h1.575a4.1 4.1 0 0 1 2.969 1.515 4.928 4.928 0 0 0 3.468 1.745h.37v1.711a3.662 3.662 0 0 1-.1.824 7.56 7.56 0 0 1-4.427 4.927 3.941 3.941 0 0 1-1.4.29 3.943 3.943 0 0 1-1.4-.29A7.559 7.559 0 0 1 6.3 37.394zm6.766 8.376l-.285 1.117h-1.32l-.284-1.112.946-1zm-4.909-2.864a8.29 8.29 0 0 0 1.955 1.064q.134.05.264.094l-1.307 1.388a6.81 6.81 0 0 0-.248-.156l-2.233-1.444zm.023 9.389l.609 1.034H1.758V48.49c0-1.78.775-2.292 2.684-3.376l.458-.262 2.98 1.927.035.021c.105.061.2.125.288.187a1.748 1.748 0 0 0 .966.375 1.137 1.137 0 0 0 .558-.15l.12.471-1.713 3.711a.91.91 0 0 0 .045.901zm5.232 1.034h-2.583L9.9 51.758l1.437-3.113H12.9l1.437 3.113zm4.463-2.276v2.276h-2.423l.609-1.034a.91.91 0 0 0 .043-.9l-1.713-3.711.121-.474a1.14 1.14 0 0 0 .564.153 1.753 1.753 0 0 0 .97-.377 4.71 4.71 0 0 1 .285-.185l.033-.02 2.98-1.927.46.264a12.918 12.918 0 0 1 1.643 1.039c-1.837 1.039-3.572 2.026-3.572 4.895zm35.535-7.201l-2.23 1.444a5.245 5.245 0 0 0-.251.158l-.48-.51-.032-.033-.795-.843c.087-.028.173-.06.263-.093a8.343 8.343 0 0 0 1.956-1.065zM44.2 27.42a.878.878 0 0 0 .62-.339c.891-1.157 2.987-1.464 5.1-.745 1.791.611 3.882 2.133 3.882 4.419v2.348h-.373c-.866 0-1.425-.482-2.265-1.269a5.778 5.778 0 0 0-4.173-1.991h-1.579c-1.913 0-2.231 1.554-2.421 2.483-.219 1.066-.322 1.275-1.02 1.275h-.019v-1.82-.127c-.041-2.675.714-4.1 2.245-4.235zm-2.143 9.975a3.665 3.665 0 0 1-.1-.823v-1.213h.019c2.191 0 2.549-1.744 2.741-2.68.221-1.078.313-1.078.7-1.078h1.575a4.1 4.1 0 0 1 2.971 1.515 4.924 4.924 0 0 0 3.468 1.745h.369v1.711a3.7 3.7 0 0 1-.1.825 7.559 7.559 0 0 1-4.429 4.928 3.511 3.511 0 0 1-2.789 0 7.549 7.549 0 0 1-4.426-4.929zm6.763 8.377l-.284 1.116h-1.324l-.284-1.112.946-1zm-4.908-2.864a8.3 8.3 0 0 0 1.955 1.063c.089.033.177.064.264.094l-1.307 1.383a10.15 10.15 0 0 0-.248-.156l-2.231-1.445zm-8.372 3.505l-2.23 1.445c-.094.054-.177.108-.251.156l-1.308-1.383a9.36 9.36 0 0 0 .263-.093 8.294 8.294 0 0 0 1.957-1.068zm-9.214-16.429a.879.879 0 0 0 .619-.339c.891-1.156 2.988-1.462 5.1-.743 1.789.609 3.879 2.132 3.879 4.417v2.352h-.37c-.866 0-1.425-.482-2.265-1.27a5.778 5.778 0 0 0-4.173-1.991h-1.579c-1.913 0-2.231 1.554-2.422 2.483-.219 1.067-.322 1.276-1.02 1.276h-.018v-1.824-.127c-.042-2.675.713-4.1 2.246-4.234zm-2.145 9.987a3.96 3.96 0 0 1-.1-.834v-1.21h.019c2.192 0 2.549-1.744 2.742-2.68.221-1.079.313-1.079.7-1.079h1.575a4.1 4.1 0 0 1 2.971 1.516 4.924 4.924 0 0 0 3.467 1.745h.37v1.708a3.725 3.725 0 0 1-.1.826 7.576 7.576 0 0 1-4.425 4.928 3.505 3.505 0 0 1-2.795 0 7.569 7.569 0 0 1-4.425-4.919zm6.764 8.365l-.284 1.116h-1.325l-.282-1.112.946-1zm-4-.323a6.096 6.096 0 0 0-.248-.155l-2.23-1.445 1.567-.942a8.379 8.379 0 0 0 1.959 1.069c.088.032.175.062.26.09zm4.344 7.883H28.7l-.925-1.574 1.436-3.113h1.563l1.434 3.115zm9.081 0h-7.043l.609-1.034a.918.918 0 0 0 .046-.9v-.008l-1.71-3.711.121-.471a1.143 1.143 0 0 0 .561.152 1.757 1.757 0 0 0 .966-.373c.09-.062.183-.125.288-.186l.039-.022 2.977-1.928c.124.073.248.143.369.212l.095.054c1.909 1.084 2.684 1.595 2.684 3.37zm3.573-3.586l.6 1.02h-2.417v-2.278c0-2.87-1.736-3.855-3.573-4.9a12.758 12.758 0 0 1 1.641-1.037c.151-.087.306-.173.463-.265l2.978 1.927a.342.342 0 0 0 .034.022c.105.061.2.124.288.185a1.753 1.753 0 0 0 .968.369 1.146 1.146 0 0 0 .555-.146l.121.473-1.712 3.711a.9.9 0 0 0 .055.915zm5.221 1.02H46.58l-.925-1.578 1.436-3.111h1.562l1.435 3.111zm9.081 0H51.2l.608-1.034a.9.9 0 0 0 .07-.85 1.248 1.248 0 0 0-.023-.054l-1.713-3.711.121-.472a1.144 1.144 0 0 0 .563.152 1.758 1.758 0 0 0 .969-.376c.089-.061.182-.124.287-.185l.035-.022 2.977-1.927.463.265c1.91 1.084 2.685 1.595 2.685 3.375z"/></g></svg>