<svg xmlns="http://www.w3.org/2000/svg" width="56" height="53.812" viewBox="0 0 56 53.812">
  <g id="team" transform="translate(0 -10.001)">
    <path id="Контур_2095" data-name="Контур 2095" d="M207.081,78.652a.82.82,0,0,0,.53.194l.07,0a.82.82,0,0,0,.559-.29l5.234-6.245a.82.82,0,0,0-1.257-1.054l-4.7,5.613-2.152-1.822A.82.82,0,1,0,204.3,76.3Z" transform="translate(-181.696 -54.292)" fill="#0160b2"/>
    <path id="Контур_2096" data-name="Контур 2096" d="M162.059,31.852a10.924,10.924,0,1,0-8.73-17.5.82.82,0,0,0,1.31.988,9.288,9.288,0,1,1-1.521,3.063.82.82,0,0,0-1.579-.446,10.922,10.922,0,0,0,10.52,13.9Z" transform="translate(-134.599 0)" fill="#0160b2"/>
    <path id="Контур_2097" data-name="Контур 2097" d="M52.664,234.542c-.272-.155-.553-.315-.842-.488l-2.145-1.286a8.114,8.114,0,0,0,2.039-3.637,5.086,5.086,0,0,0,.136-1.136v-5.429c0-2.47-1.858-4.7-4.736-5.678-2.516-.855-5.013-.458-6.357.977-1.378.243-3.311,1.335-3.245,5.567,0,.037,0,.068,0,.092v4.471a5.035,5.035,0,0,0,.136,1.133,8.1,8.1,0,0,0,2.039,3.641l-2.109,1.264c-.015.008-.031.018-.046.026-.284.171-.563.329-.832.482a9.6,9.6,0,0,0-2.2,1.527l-1.512-.907a8.118,8.118,0,0,0,2.04-3.637,5.134,5.134,0,0,0,.132-1.138v-5.43c0-2.469-1.857-4.7-4.732-5.675-2.515-.857-5.013-.46-6.358.974-1.379.242-3.312,1.335-3.245,5.566,0,.038,0,.069,0,.093v4.472a5.326,5.326,0,0,0,.132,1.138A8.11,8.11,0,0,0,23,235.162l-1.509.907a9.614,9.614,0,0,0-2.2-1.528c-.272-.155-.553-.314-.841-.487l-.022-.013-.006,0-2.117-1.268a8.109,8.109,0,0,0,2.04-3.638A5.058,5.058,0,0,0,18.482,228v-5.43c0-2.469-1.858-4.7-4.733-5.677-2.516-.857-5.015-.46-6.36.975-1.378.242-3.309,1.335-3.242,5.566,0,.038,0,.07,0,.093V228a5.056,5.056,0,0,0,.132,1.134,8.115,8.115,0,0,0,2.04,3.639l-2.146,1.286c-.287.172-.568.332-.84.486C1.62,235.515,0,236.435,0,239.118v4.819a1.4,1.4,0,0,0,.359,1.013,1.272,1.272,0,0,0,.946.327h.118l.123,0H16.683v1.054a1.4,1.4,0,0,0,.361,1.016,1.272,1.272,0,0,0,.946.328h.118l.121,0h.945a.82.82,0,1,0,0-1.641h-.851V241.51c0-1.659.724-2.136,2.508-3.148l.083-.047.347-.2L22.63,239l1.41.913.036.021c.1.057.185.117.269.174a1.628,1.628,0,0,0,.9.341,1.071,1.071,0,0,0,.522-.138l.113.442-1.6,3.464,0,.008a.846.846,0,0,0,.055.851l.559.952H22.963a.82.82,0,1,0,0,1.641H37.768l.121,0h.118a1.279,1.279,0,0,0,.949-.328,1.4,1.4,0,0,0,.36-1.016v-1.054H54.576l.118,0a1.272,1.272,0,0,0,.946-.328,1.393,1.393,0,0,0,.36-1.013v-4.819c0-2.682-1.62-3.6-3.336-4.576Zm-36.182.242L14.4,236.133c-.086.051-.163.1-.231.146l-.448-.475-.024-.025-.747-.792q.121-.041.245-.087a7.741,7.741,0,0,0,1.826-.994Zm-8.6-15.331a.82.82,0,0,0,.578-.316c.833-1.08,2.791-1.366,4.762-.695,1.67.569,3.621,1.99,3.621,4.124v2.192H16.5c-.809,0-1.331-.451-2.116-1.186a5.393,5.393,0,0,0-3.893-1.858H9.018c-1.785,0-2.083,1.45-2.261,2.317-.2,1-.3,1.192-.955,1.192H5.789v-1.7c0-.03,0-.07,0-.119-.039-2.5.665-3.826,2.093-3.951Zm-2,9.309A3.414,3.414,0,0,1,5.789,228v-1.132H5.8c2.048,0,2.382-1.628,2.562-2.5.207-1.006.293-1.006.654-1.006h1.47a3.827,3.827,0,0,1,2.771,1.414A4.6,4.6,0,0,0,16.5,226.4h.345V228a3.417,3.417,0,0,1-.091.769,7.056,7.056,0,0,1-4.132,4.6,3.678,3.678,0,0,1-1.3.27,3.68,3.68,0,0,1-1.3-.271,7.055,7.055,0,0,1-4.132-4.6Zm6.315,7.818-.266,1.042H10.7l-.265-1.038.883-.935Zm-4.582-2.673a7.738,7.738,0,0,0,1.825.993q.125.047.246.087l-1.219,1.291c-.068-.046-.145-.1-.232-.146l-2.085-1.348Zm.022,8.763.568.965H1.641v-4.516c0-1.662.723-2.139,2.5-3.151l.43-.246,2.781,1.8.032.02c.1.057.185.117.269.174a1.631,1.631,0,0,0,.9.35,1.062,1.062,0,0,0,.521-.14l.112.439-1.6,3.463A.849.849,0,0,0,7.634,242.669Zm4.883.965H10.107l-.863-1.466,1.341-2.906H12.04l1.341,2.906Zm4.166-2.124v2.124H14.422l.569-.965a.849.849,0,0,0,.04-.843l-1.6-3.463.113-.442a1.064,1.064,0,0,0,.526.143,1.636,1.636,0,0,0,.906-.352c.083-.057.169-.116.266-.173l.031-.019,2.781-1.8.43.246a12.058,12.058,0,0,1,1.533.97C18.3,237.911,16.683,238.832,16.683,241.51Zm33.166-6.725-2.081,1.348c-.087.051-.165.1-.234.148l-.448-.476-.03-.031-.742-.786c.081-.026.162-.056.245-.086a7.787,7.787,0,0,0,1.825-.994Zm-8.6-15.332a.82.82,0,0,0,.579-.316c.831-1.08,2.788-1.366,4.759-.7,1.671.57,3.624,1.991,3.624,4.125v2.192h-.348c-.808,0-1.33-.45-2.114-1.185a5.392,5.392,0,0,0-3.895-1.858h-1.47c-1.785,0-2.083,1.45-2.26,2.318-.2,1-.3,1.19-.952,1.19h-.018v-1.7c0-.03,0-.07,0-.118-.038-2.5.666-3.827,2.1-3.953Zm-2,9.31a3.421,3.421,0,0,1-.094-.768v-1.132h.018c2.045,0,2.379-1.628,2.558-2.5.207-1.006.292-1.006.653-1.006h1.47a3.824,3.824,0,0,1,2.773,1.414,4.6,4.6,0,0,0,3.236,1.629h.348v1.6a3.455,3.455,0,0,1-.094.77,7.055,7.055,0,0,1-4.133,4.6,3.276,3.276,0,0,1-2.6,0,7.045,7.045,0,0,1-4.131-4.6Zm6.312,7.818-.265,1.041H44.064l-.265-1.038.883-.935Zm-4.581-2.673a7.749,7.749,0,0,0,1.824.992c.083.031.165.06.246.087l-1.22,1.291c-.069-.045-.145-.094-.232-.145l-2.083-1.349Zm-7.814,3.271-2.081,1.349c-.087.05-.165.1-.234.145l-1.221-1.291c.081-.027.162-.056.245-.086a7.741,7.741,0,0,0,1.827-1Zm-8.6-15.333a.82.82,0,0,0,.578-.317c.832-1.079,2.789-1.364,4.76-.693,1.67.569,3.62,1.99,3.62,4.122v2.2h-.345c-.808,0-1.33-.45-2.114-1.185a5.393,5.393,0,0,0-3.895-1.858H25.7c-1.785,0-2.083,1.451-2.26,2.318-.2,1-.3,1.191-.952,1.191h-.017v-1.7c0-.03,0-.07,0-.119-.04-2.5.666-3.826,2.1-3.951Zm-2,9.321a3.7,3.7,0,0,1-.093-.779v-1.129h.017c2.046,0,2.379-1.627,2.559-2.5.206-1.007.292-1.007.653-1.007h1.47a3.827,3.827,0,0,1,2.773,1.415,4.6,4.6,0,0,0,3.236,1.629h.345v1.594a3.476,3.476,0,0,1-.091.771,7.071,7.071,0,0,1-4.13,4.6,3.272,3.272,0,0,1-2.609,0,7.064,7.064,0,0,1-4.13-4.591Zm6.313,7.807-.265,1.041H27.38l-.264-1.038.883-.934Zm-3.732-.3c-.068-.045-.144-.094-.232-.144l-2.081-1.349L24.3,236.3a7.821,7.821,0,0,0,1.829,1c.082.03.163.058.243.084ZM29.2,246.03H26.79l-.863-1.469,1.34-2.905h1.459l1.339,2.907Zm8.475,0H31.105l.569-.965a.857.857,0,0,0,.043-.838l0-.008-1.6-3.464.113-.44a1.066,1.066,0,0,0,.524.142,1.64,1.64,0,0,0,.9-.348c.084-.058.171-.117.269-.174l.036-.021,2.778-1.8c.116.068.232.133.345.2l.089.05c1.782,1.012,2.5,1.489,2.5,3.146Zm3.335-3.347.56.952H39.317V241.51c0-2.679-1.62-3.6-3.335-4.573a0,0,0,0,1,0,0,11.908,11.908,0,0,1,1.531-.968c.141-.081.285-.162.432-.247l2.779,1.8a.322.322,0,0,0,.032.021c.1.057.185.116.269.173a1.636,1.636,0,0,0,.9.345,1.07,1.07,0,0,0,.518-.137l.113.442-1.6,3.464s0,0,0,0a.84.84,0,0,0,.051.854Zm4.873.952h-2.41l-.863-1.468,1.34-2.9h1.458l1.34,2.9Zm8.475,0H47.788l.568-.965a.844.844,0,0,0,.066-.793c-.007-.016-.014-.034-.022-.05l-1.6-3.464.113-.441a1.067,1.067,0,0,0,.525.142,1.64,1.64,0,0,0,.9-.351c.083-.057.17-.116.268-.173l.033-.021,2.778-1.8c.147.085.291.166.432.247,1.783,1.012,2.506,1.489,2.506,3.15Z" transform="translate(0 -183.86)" fill="#0160b2"/>
  </g>
</svg>
