<svg xmlns="http://www.w3.org/2000/svg" width="58.604" height="42.35" viewBox="0 0 58.604 42.35">
  <path id="Объединение_75" data-name="Объединение 75" d="M7,41.114a8.258,8.258,0,0,1-5.785-5.872C.014,30.687,0,21.561,0,21.175S.014,11.662,1.214,7.108A8.259,8.259,0,0,1,7,1.236c2.965-.807,11.3-1.1,17.78-1.2a1.144,1.144,0,1,1,.035,2.289c-8.967.139-15.08.535-17.215,1.115A5.964,5.964,0,0,0,3.428,7.691C2.3,11.959,2.29,21.083,2.29,21.175S2.3,30.39,3.428,34.658A5.964,5.964,0,0,0,7.6,38.905c4.195,1.142,21.527,1.156,21.7,1.156s17.506-.014,21.7-1.156a5.963,5.963,0,0,0,4.172-4.246c1.126-4.269,1.139-13.393,1.139-13.484S56.3,11.959,55.175,7.691A5.96,5.96,0,0,0,51,3.445c-2.089-.569-8.027-.962-16.721-1.108A1.145,1.145,0,1,1,34.321.049C40.6.154,48.7.445,51.6,1.236a8.257,8.257,0,0,1,5.785,5.873c1.2,4.553,1.214,13.68,1.214,14.066s-.014,9.512-1.214,14.066A8.256,8.256,0,0,1,51.6,41.114c-4.487,1.222-21.578,1.237-22.3,1.237S11.488,42.336,7,41.114ZM23.246,30.583a1.145,1.145,0,0,1-.573-.993V13.109a1.144,1.144,0,0,1,1.72-.99L38.586,20.36a1.144,1.144,0,0,1,0,1.979L24.393,30.58a1.148,1.148,0,0,1-1.147,0ZM24.962,27.6,35.731,21.35,24.962,15.1ZM29.586,2.29H29.5a1.146,1.146,0,0,1-1.142-1.146v0A1.145,1.145,0,0,1,29.506,0h.086a1.145,1.145,0,0,1,1.141,1.145v0A1.145,1.145,0,0,1,29.588,2.29Z" fill="#cfcfcf"/>
</svg>
