<svg xmlns="http://www.w3.org/2000/svg" width="43.217" height="25.358" viewBox="0 0 43.217 25.358">
  <path id="vk" d="M406,283.467a34.562,34.562,0,0,0-3.011-3.1c-.339-.339-.721-.679-1.06-1.018-.509-.467-.636-.721-.636-.848a1.636,1.636,0,0,1,.466-.933v-.042c.466-.679.975-1.357,1.484-1.993l.254-.339c.466-.636,1.018-1.357,1.569-2.078l.127-.17a16.931,16.931,0,0,0,2.629-4.58,2.193,2.193,0,0,0-.975-2.926,2.557,2.557,0,0,0-.975-.254,3.208,3.208,0,0,0-.636-.042h-6.742a2.562,2.562,0,0,0-2.417,1.739c-.339.89-.721,1.823-1.187,2.756a21.935,21.935,0,0,1-3.6,5.555H391.2a.586.586,0,0,0-.127.17,1.394,1.394,0,0,1-.169-.721v-7.633a2.67,2.67,0,0,0-2.332-2.714h-7.039a3.214,3.214,0,0,0-2.587,1.272,1.328,1.328,0,0,0-.466.933,1.448,1.448,0,0,0,.3,1.018,1.415,1.415,0,0,0,1.06.509,1.136,1.136,0,0,1,.975,1.1v.042a20.789,20.789,0,0,1,.085,5.131,5.432,5.432,0,0,1-.212,1.145,4.831,4.831,0,0,1-1.145-1.315,35.058,35.058,0,0,1-3.859-7.124,2.892,2.892,0,0,0-2.629-1.908c-1.018,0-2.035-.042-3.011-.042s-1.908,0-2.841.042h-.212a2.31,2.31,0,0,0-1.866.933v.042a2.24,2.24,0,0,0,.042,2.247,70.887,70.887,0,0,0,7.675,13.654,19.4,19.4,0,0,0,6.064,5.682,15.976,15.976,0,0,0,7.718,1.993h.339a9.234,9.234,0,0,0,1.06-.042c1.993-.085,2.841-.933,2.968-2.884a5.5,5.5,0,0,1,.509-2.332.585.585,0,0,1,.127-.17.6.6,0,0,1,.254.085,5.257,5.257,0,0,1,.89.763,7.6,7.6,0,0,0,.551.594l.212.212.127.127c.509.551.975,1.1,1.527,1.654a5.712,5.712,0,0,0,4.24,1.866h6.319a2.151,2.151,0,0,0,1.823-1.187,2.89,2.89,0,0,0,0-2.756A13.625,13.625,0,0,0,406,283.467Zm-.339,3.944h0l-6.022.042h-.3a3.317,3.317,0,0,1-2.629-1.23c-.551-.551-1.1-1.145-1.611-1.739-.254-.3-.509-.551-.763-.848a8.18,8.18,0,0,0-1.272-1.145,2.571,2.571,0,0,0-1.484-.466,2.605,2.605,0,0,0-.551.042,2.556,2.556,0,0,0-1.569,1.315,7.244,7.244,0,0,0-.763,3.265,2.2,2.2,0,0,1-.085.636,2.105,2.105,0,0,1-.763.127,10.321,10.321,0,0,1-1.145.042,14.047,14.047,0,0,1-6.785-1.739,17.487,17.487,0,0,1-5.385-5.046,69.012,69.012,0,0,1-7.421-13.273.148.148,0,0,0-.042-.085h.127c.933,0,1.866-.042,2.841-.042.933,0,1.951,0,2.926.042.17,0,.382,0,.594.509a35.992,35.992,0,0,0,4.071,7.548,6.93,6.93,0,0,0,1.781,1.908,1.958,1.958,0,0,0,1.272.466,2.053,2.053,0,0,0,1.527-.679,2.358,2.358,0,0,0,.382-.721,5.684,5.684,0,0,0,.424-1.866,25.088,25.088,0,0,0-.085-5.64,3.361,3.361,0,0,0-1.315-2.332h6.573c.085.042.212.042.3.127a2.792,2.792,0,0,1,.17.636v7.379a3.12,3.12,0,0,0,1.654,2.926h.127a2.476,2.476,0,0,0,.551.085,2.351,2.351,0,0,0,1.866-.975l.042-.042a25.248,25.248,0,0,0,3.986-6.106c.466-.975.891-2.035,1.272-2.926.127-.339.212-.339.424-.339h6.954c.085,0,.17.042.254.042,0,.085-.042.17-.042.254a14.341,14.341,0,0,1-2.29,3.986l-.127.17c-.424.594-.89,1.187-1.315,1.781l-.212.3c-.551.721-1.187,1.569-1.739,2.375a3.071,3.071,0,0,0,0,4.325,4.505,4.505,0,0,0,.466.382c.339.339.721.678,1.1,1.018a30.391,30.391,0,0,1,2.841,2.884,11.386,11.386,0,0,1,1.315,1.866A3.568,3.568,0,0,1,405.658,287.411Z" transform="translate(-364.837 -264.3)" fill="#fff"/>
</svg>
