<svg xmlns="http://www.w3.org/2000/svg" width="55.892" height="48.684" viewBox="0 0 55.892 48.684">
  <g id="warning" transform="translate(0 -33.02)">
    <g id="Сгруппировать_3339" data-name="Сгруппировать 3339" transform="translate(0 33.02)">
      <g id="Сгруппировать_3338" data-name="Сгруппировать 3338" transform="translate(0 0)">
        <path id="Контур_2209" data-name="Контур 2209" d="M55.256,69.323A2.183,2.183,0,1,0,51.2,70.942a4.667,4.667,0,0,1-.5,4.349,4.606,4.606,0,0,1-3.87,2.046H9.068a4.69,4.69,0,0,1-3.984-7.155L23.966,39.609a4.682,4.682,0,0,1,7.968,0L45.9,62.22a2.183,2.183,0,1,0,3.715-2.294L35.649,37.315a9.048,9.048,0,0,0-15.4,0L1.369,67.887A9.056,9.056,0,0,0,9.068,81.7H46.832a8.911,8.911,0,0,0,7.484-3.963A9.028,9.028,0,0,0,55.256,69.323Z" transform="translate(0 -33.02)" fill="#afafaf"/>
        <path id="Контур_2210" data-name="Контур 2210" d="M238.23,364.357a2.183,2.183,0,1,0,0-4.366h0a2.183,2.183,0,0,0,0,4.366Z" transform="translate(-210.278 -324.298)" fill="#afafaf"/>
        <path id="Контур_2211" data-name="Контур 2211" d="M240.408,161.239V145.193a2.183,2.183,0,0,0-4.366,0v16.046a2.183,2.183,0,1,0,4.366,0Z" transform="translate(-210.275 -131.003)" fill="#afafaf"/>
      </g>
    </g>
  </g>
</svg>
