<svg xmlns="http://www.w3.org/2000/svg" width="31.569" height="31.57" viewBox="0 0 31.569 31.57">
  <g id="whatsapp" transform="translate(0 0)">
    <path id="Контур_2108" data-name="Контур 2108" d="M26.933,4.636A15.772,15.772,0,0,0,1.83,23.153l-1.8,7.269a.925.925,0,0,0,1.12,1.12l7.269-1.8a15.77,15.77,0,0,0,18.516-25.1ZM15.784,29.72A13.879,13.879,0,0,1,9,27.949a.926.926,0,0,0-.676-.092l-6.129,1.52,1.52-6.13a.925.925,0,0,0-.091-.676A13.931,13.931,0,1,1,15.784,29.72Zm0,0" transform="translate(0 0)" fill="#fff"/>
    <path id="Контур_2109" data-name="Контур 2109" d="M125.24,117.25a7.951,7.951,0,0,0-2.067-1.608,2.577,2.577,0,0,0-3.13.453c-.388.389-.923,1.154-1.231,1.531a10.425,10.425,0,0,1-5.1-5.1c.375-.306,1.143-.843,1.531-1.231a2.577,2.577,0,0,0,.453-3.13,7.95,7.95,0,0,0-1.608-2.067c-1.248-1.274-3.173-1.368-4.835.294-1.242,1.242-2.348,3.543-.568,7.459a19.959,19.959,0,0,0,3.588,5.21l.007.007a19.948,19.948,0,0,0,5.21,3.588c2.616,1.19,5.419,1.472,7.459-.567,1.687-1.687,1.545-3.61.294-4.835Zm-1.6,3.527c-1.2,1.2-3.016,1.269-5.385.192a15.625,15.625,0,0,1-7.886-7.887c-1.077-2.369-1.013-4.181.192-5.385.7-.7,1.512-1.015,2.205-.307l.013.013c1.642,1.642,1.525,2.211,1.155,2.582-.329.329-1.3.989-1.615,1.3-.737.737-.6,1.879.408,3.393a15.9,15.9,0,0,0,1.771,2.157l0,0a15.917,15.917,0,0,0,2.157,1.771c1.514,1.008,2.656,1.145,3.393.408.314-.314.974-1.286,1.3-1.615.25-.25.5-.346,1.019-.095a6.72,6.72,0,0,1,1.563,1.25l.013.013C124.659,119.269,124.342,120.073,123.638,120.776Zm0,0" transform="translate(-101.109 -98.656)" fill="#fff"/>
  </g>
</svg>
