<svg xmlns="http://www.w3.org/2000/svg" width="51" height="36.089" viewBox="0 0 51 36.089">
  <g id="Сгруппировать_3057" data-name="Сгруппировать 3057" transform="translate(-289 -8012)">
    <path id="youtube_1_" data-name="youtube (1)" d="M40.408,67.393H10.592A10.592,10.592,0,0,0,0,77.985v14.9a10.592,10.592,0,0,0,10.592,10.592H40.408A10.592,10.592,0,0,0,51,92.89v-14.9A10.592,10.592,0,0,0,40.408,67.393Z" transform="translate(289 7944.607)" opacity="0.45"/>
    <path id="youtube_1_2" data-name="youtube (1)" d="M181.954,171.673l-13.946,6.651a.56.56,0,0,1-.8-.505V164.1a.56.56,0,0,1,.813-.5l13.946,7.067A.56.56,0,0,1,181.954,171.673Z" transform="translate(141.715 7859.081)" fill="#fff"/>
  </g>
</svg>
